%FSLAX45Y45*%
G04 Gerber Fmt 4.5, Leading zero omitted, Abs format (unit mm)*
G04 Created by KiCad (PCBNEW (5.1.2-1)-1) date 2019-10-09 15:24:18*
%MOMM*%
%LPD*%
G04 APERTURE LIST*
%ADD10C,0.050000*%
%ADD11C,0.100000*%
%ADD12C,0.200000*%
%ADD13C,0.300000*%
G04 APERTURE END LIST*
D10*
X16508584Y-5801360D02*
G75*
G03X16508584Y-5801360I-227185J0D01*
G01*
X21893385Y-5801360D02*
G75*
G03X21893385Y-5801360I-227185J0D01*
G01*
D11*
X21996400Y-13868400D02*
G75*
G02X21793200Y-14071600I-203200J0D01*
G01*
X16154400Y-14071600D02*
G75*
G02X15951200Y-13868400I0J203200D01*
G01*
X21793200Y-5461000D02*
G75*
G02X21996400Y-5664200I0J-203200D01*
G01*
X15951200Y-5664200D02*
G75*
G02X16154400Y-5461000I203200J0D01*
G01*
X21793200Y-5461000D02*
X16154400Y-5461000D01*
X21996400Y-13878560D02*
X21996400Y-5648960D01*
X16154400Y-14071600D02*
X21793200Y-14071600D01*
X15951200Y-5664200D02*
X15951200Y-13878560D01*
D12*
D13*
X16232628Y-14542314D02*
X16232628Y-14242314D01*
X16304057Y-14242314D01*
X16346914Y-14256600D01*
X16375486Y-14285171D01*
X16389771Y-14313743D01*
X16404057Y-14370886D01*
X16404057Y-14413743D01*
X16389771Y-14470886D01*
X16375486Y-14499457D01*
X16346914Y-14528029D01*
X16304057Y-14542314D01*
X16232628Y-14542314D01*
X16532628Y-14542314D02*
X16532628Y-14342314D01*
X16532628Y-14399457D02*
X16546914Y-14370886D01*
X16561200Y-14356600D01*
X16589771Y-14342314D01*
X16618343Y-14342314D01*
X16718343Y-14542314D02*
X16718343Y-14342314D01*
X16718343Y-14242314D02*
X16704057Y-14256600D01*
X16718343Y-14270886D01*
X16732628Y-14256600D01*
X16718343Y-14242314D01*
X16718343Y-14270886D01*
X16904057Y-14542314D02*
X16875486Y-14528029D01*
X16861200Y-14499457D01*
X16861200Y-14242314D01*
X17061200Y-14542314D02*
X17032628Y-14528029D01*
X17018343Y-14499457D01*
X17018343Y-14242314D01*
X17404057Y-14542314D02*
X17404057Y-14242314D01*
X17504057Y-14456600D01*
X17604057Y-14242314D01*
X17604057Y-14542314D01*
X17875486Y-14542314D02*
X17875486Y-14385171D01*
X17861200Y-14356600D01*
X17832628Y-14342314D01*
X17775486Y-14342314D01*
X17746914Y-14356600D01*
X17875486Y-14528029D02*
X17846914Y-14542314D01*
X17775486Y-14542314D01*
X17746914Y-14528029D01*
X17732628Y-14499457D01*
X17732628Y-14470886D01*
X17746914Y-14442314D01*
X17775486Y-14428029D01*
X17846914Y-14428029D01*
X17875486Y-14413743D01*
X18018343Y-14342314D02*
X18018343Y-14642314D01*
X18018343Y-14356600D02*
X18046914Y-14342314D01*
X18104057Y-14342314D01*
X18132628Y-14356600D01*
X18146914Y-14370886D01*
X18161200Y-14399457D01*
X18161200Y-14485171D01*
X18146914Y-14513743D01*
X18132628Y-14528029D01*
X18104057Y-14542314D01*
X18046914Y-14542314D01*
X18018343Y-14528029D01*
X18289771Y-14513743D02*
X18304057Y-14528029D01*
X18289771Y-14542314D01*
X18275486Y-14528029D01*
X18289771Y-14513743D01*
X18289771Y-14542314D01*
X18289771Y-14356600D02*
X18304057Y-14370886D01*
X18289771Y-14385171D01*
X18275486Y-14370886D01*
X18289771Y-14356600D01*
X18289771Y-14385171D01*
M02*
