G04 #@! TF.GenerationSoftware,KiCad,Pcbnew,(5.1.2-1)-1*
G04 #@! TF.CreationDate,2019-10-09T15:23:33+01:00*
G04 #@! TF.ProjectId,PixlVBoard,5069786c-5642-46f6-9172-642e6b696361,rev?*
G04 #@! TF.SameCoordinates,Original*
G04 #@! TF.FileFunction,Other,Fab,Top*
%FSLAX46Y46*%
G04 Gerber Fmt 4.6, Leading zero omitted, Abs format (unit mm)*
G04 Created by KiCad (PCBNEW (5.1.2-1)-1) date 2019-10-09 15:23:33*
%MOMM*%
%LPD*%
G04 APERTURE LIST*
%ADD10C,0.100000*%
%ADD11C,0.150000*%
%ADD12C,0.120000*%
G04 APERTURE END LIST*
D10*
X164338000Y-73380600D02*
X164973000Y-72745600D01*
X164338000Y-93065600D02*
X164338000Y-73380600D01*
X166878000Y-93065600D02*
X164338000Y-93065600D01*
X166878000Y-72745600D02*
X166878000Y-93065600D01*
X164973000Y-72745600D02*
X166878000Y-72745600D01*
X201549000Y-119227600D02*
X202184000Y-119862600D01*
X189484000Y-119227600D02*
X201549000Y-119227600D01*
X189484000Y-121767600D02*
X189484000Y-119227600D01*
X202184000Y-121767600D02*
X189484000Y-121767600D01*
X202184000Y-119862600D02*
X202184000Y-121767600D01*
X207772000Y-120751600D02*
X207772000Y-116941600D01*
X207772000Y-116941600D02*
X217932000Y-116941600D01*
X217932000Y-116941600D02*
X217932000Y-122021600D01*
X217932000Y-122021600D02*
X209042000Y-122021600D01*
X209042000Y-122021600D02*
X207772000Y-120751600D01*
X184734000Y-102501600D02*
X184734000Y-100901600D01*
X181534000Y-102501600D02*
X184734000Y-102501600D01*
X181534000Y-101301600D02*
X181534000Y-102501600D01*
X181934000Y-100901600D02*
X181534000Y-101301600D01*
X184734000Y-100901600D02*
X181934000Y-100901600D01*
X191948000Y-111391600D02*
X191948000Y-109791600D01*
X191948000Y-109791600D02*
X195148000Y-109791600D01*
X195148000Y-109791600D02*
X195148000Y-111391600D01*
X195148000Y-111391600D02*
X191948000Y-111391600D01*
X204542000Y-104955600D02*
X204542000Y-111655600D01*
X200842000Y-111655600D02*
X204542000Y-111655600D01*
X201892000Y-104955600D02*
X204542000Y-104955600D01*
X200842000Y-106005600D02*
X200842000Y-111655600D01*
X200842000Y-106005600D02*
X201892000Y-104955600D01*
X166497000Y-116078000D02*
X165862000Y-115443000D01*
X203962000Y-116078000D02*
X166497000Y-116078000D01*
X203962000Y-113538000D02*
X203962000Y-116078000D01*
X165862000Y-113538000D02*
X203962000Y-113538000D01*
X165862000Y-115443000D02*
X165862000Y-113538000D01*
X170837000Y-106265600D02*
X171337000Y-105765600D01*
X170837000Y-105265600D02*
X170837000Y-106265600D01*
X171337000Y-105765600D02*
X170837000Y-105265600D01*
X171962000Y-109015600D02*
X171962000Y-104515600D01*
X173562000Y-109015600D02*
X171962000Y-109015600D01*
X173562000Y-109715600D02*
X173562000Y-109015600D01*
X165962000Y-109715600D02*
X173562000Y-109715600D01*
X165962000Y-103815600D02*
X165962000Y-109715600D01*
X173562000Y-103815600D02*
X165962000Y-103815600D01*
X173562000Y-104515600D02*
X173562000Y-103815600D01*
X171962000Y-104515600D02*
X173562000Y-104515600D01*
X172934000Y-61444000D02*
X171934000Y-62444000D01*
X167934000Y-57444000D02*
X167934000Y-62444000D01*
X167934000Y-62444000D02*
X172934000Y-62444000D01*
X172934000Y-62444000D02*
X172934000Y-57444000D01*
X172934000Y-57444000D02*
X167934000Y-57444000D01*
X172434000Y-59944000D02*
G75*
G03X172434000Y-59944000I-2000000J0D01*
G01*
X210526000Y-61444000D02*
X209526000Y-62444000D01*
X205526000Y-57444000D02*
X205526000Y-62444000D01*
X205526000Y-62444000D02*
X210526000Y-62444000D01*
X210526000Y-62444000D02*
X210526000Y-57444000D01*
X210526000Y-57444000D02*
X205526000Y-57444000D01*
X210026000Y-59944000D02*
G75*
G03X210026000Y-59944000I-2000000J0D01*
G01*
X201128000Y-61444000D02*
X200128000Y-62444000D01*
X196128000Y-57444000D02*
X196128000Y-62444000D01*
X196128000Y-62444000D02*
X201128000Y-62444000D01*
X201128000Y-62444000D02*
X201128000Y-57444000D01*
X201128000Y-57444000D02*
X196128000Y-57444000D01*
X200628000Y-59944000D02*
G75*
G03X200628000Y-59944000I-2000000J0D01*
G01*
X191730000Y-61444000D02*
X190730000Y-62444000D01*
X186730000Y-57444000D02*
X186730000Y-62444000D01*
X186730000Y-62444000D02*
X191730000Y-62444000D01*
X191730000Y-62444000D02*
X191730000Y-57444000D01*
X191730000Y-57444000D02*
X186730000Y-57444000D01*
X191230000Y-59944000D02*
G75*
G03X191230000Y-59944000I-2000000J0D01*
G01*
X182086000Y-59944000D02*
G75*
G03X182086000Y-59944000I-2000000J0D01*
G01*
X182586000Y-57444000D02*
X177586000Y-57444000D01*
X182586000Y-62444000D02*
X182586000Y-57444000D01*
X177586000Y-62444000D02*
X182586000Y-62444000D01*
X177586000Y-57444000D02*
X177586000Y-62444000D01*
X182586000Y-61444000D02*
X181586000Y-62444000D01*
X165862000Y-67538600D02*
X165862000Y-65633600D01*
X165862000Y-65633600D02*
X186182000Y-65633600D01*
X186182000Y-65633600D02*
X186182000Y-68173600D01*
X186182000Y-68173600D02*
X166497000Y-68173600D01*
X166497000Y-68173600D02*
X165862000Y-67538600D01*
X188087000Y-68173600D02*
X187452000Y-67538600D01*
X212852000Y-68173600D02*
X188087000Y-68173600D01*
X212852000Y-65633600D02*
X212852000Y-68173600D01*
X187452000Y-65633600D02*
X212852000Y-65633600D01*
X187452000Y-67538600D02*
X187452000Y-65633600D01*
D11*
X165060380Y-83238933D02*
X165774666Y-83238933D01*
X165917523Y-83286552D01*
X166012761Y-83381790D01*
X166060380Y-83524647D01*
X166060380Y-83619885D01*
X165393714Y-82334171D02*
X166060380Y-82334171D01*
X165012761Y-82572266D02*
X165727047Y-82810361D01*
X165727047Y-82191314D01*
X195500666Y-119949980D02*
X195500666Y-120664266D01*
X195453047Y-120807123D01*
X195357809Y-120902361D01*
X195214952Y-120949980D01*
X195119714Y-120949980D01*
X195881619Y-119949980D02*
X196500666Y-119949980D01*
X196167333Y-120330933D01*
X196310190Y-120330933D01*
X196405428Y-120378552D01*
X196453047Y-120426171D01*
X196500666Y-120521409D01*
X196500666Y-120759504D01*
X196453047Y-120854742D01*
X196405428Y-120902361D01*
X196310190Y-120949980D01*
X196024476Y-120949980D01*
X195929238Y-120902361D01*
X195881619Y-120854742D01*
X218444380Y-119814933D02*
X219158666Y-119814933D01*
X219301523Y-119862552D01*
X219396761Y-119957790D01*
X219444380Y-120100647D01*
X219444380Y-120195885D01*
X218539619Y-119386361D02*
X218492000Y-119338742D01*
X218444380Y-119243504D01*
X218444380Y-119005409D01*
X218492000Y-118910171D01*
X218539619Y-118862552D01*
X218634857Y-118814933D01*
X218730095Y-118814933D01*
X218872952Y-118862552D01*
X219444380Y-119433980D01*
X219444380Y-118814933D01*
X182395904Y-103973980D02*
X182395904Y-102973980D01*
X182634000Y-102973980D01*
X182776857Y-103021600D01*
X182872095Y-103116838D01*
X182919714Y-103212076D01*
X182967333Y-103402552D01*
X182967333Y-103545409D01*
X182919714Y-103735885D01*
X182872095Y-103831123D01*
X182776857Y-103926361D01*
X182634000Y-103973980D01*
X182395904Y-103973980D01*
X183919714Y-103973980D02*
X183348285Y-103973980D01*
X183634000Y-103973980D02*
X183634000Y-102973980D01*
X183538761Y-103116838D01*
X183443523Y-103212076D01*
X183348285Y-103259695D01*
D12*
X203053904Y-108946838D02*
X202672952Y-109213504D01*
X203053904Y-109403980D02*
X202253904Y-109403980D01*
X202253904Y-109099219D01*
X202292000Y-109023028D01*
X202330095Y-108984933D01*
X202406285Y-108946838D01*
X202520571Y-108946838D01*
X202596761Y-108984933D01*
X202634857Y-109023028D01*
X202672952Y-109099219D01*
X202672952Y-109403980D01*
X202634857Y-108603980D02*
X202634857Y-108337314D01*
X203053904Y-108223028D02*
X203053904Y-108603980D01*
X202253904Y-108603980D01*
X202253904Y-108223028D01*
X202292000Y-107461123D02*
X202253904Y-107537314D01*
X202253904Y-107651600D01*
X202292000Y-107765885D01*
X202368190Y-107842076D01*
X202444380Y-107880171D01*
X202596761Y-107918266D01*
X202711047Y-107918266D01*
X202863428Y-107880171D01*
X202939619Y-107842076D01*
X203015809Y-107765885D01*
X203053904Y-107651600D01*
X203053904Y-107575409D01*
X203015809Y-107461123D01*
X202977714Y-107423028D01*
X202711047Y-107423028D01*
X202711047Y-107575409D01*
X202330095Y-107118266D02*
X202292000Y-107080171D01*
X202253904Y-107003980D01*
X202253904Y-106813504D01*
X202292000Y-106737314D01*
X202330095Y-106699219D01*
X202406285Y-106661123D01*
X202482476Y-106661123D01*
X202596761Y-106699219D01*
X203053904Y-107156361D01*
X203053904Y-106661123D01*
D11*
X169164380Y-107098933D02*
X169878666Y-107098933D01*
X170021523Y-107146552D01*
X170116761Y-107241790D01*
X170164380Y-107384647D01*
X170164380Y-107479885D01*
X170164380Y-106098933D02*
X170164380Y-106670361D01*
X170164380Y-106384647D02*
X169164380Y-106384647D01*
X169307238Y-106479885D01*
X169402476Y-106575123D01*
X169450095Y-106670361D01*
X168141714Y-60051904D02*
X167760761Y-60051904D01*
X167760761Y-59251904D01*
X168408380Y-59632857D02*
X168675047Y-59632857D01*
X168789333Y-60051904D02*
X168408380Y-60051904D01*
X168408380Y-59251904D01*
X168789333Y-59251904D01*
X169132190Y-60051904D02*
X169132190Y-59251904D01*
X169322666Y-59251904D01*
X169436952Y-59290000D01*
X169513142Y-59366190D01*
X169551238Y-59442380D01*
X169589333Y-59594761D01*
X169589333Y-59709047D01*
X169551238Y-59861428D01*
X169513142Y-59937619D01*
X169436952Y-60013809D01*
X169322666Y-60051904D01*
X169132190Y-60051904D01*
X205733714Y-60051904D02*
X205352761Y-60051904D01*
X205352761Y-59251904D01*
X206000380Y-59632857D02*
X206267047Y-59632857D01*
X206381333Y-60051904D02*
X206000380Y-60051904D01*
X206000380Y-59251904D01*
X206381333Y-59251904D01*
X206724190Y-60051904D02*
X206724190Y-59251904D01*
X206914666Y-59251904D01*
X207028952Y-59290000D01*
X207105142Y-59366190D01*
X207143238Y-59442380D01*
X207181333Y-59594761D01*
X207181333Y-59709047D01*
X207143238Y-59861428D01*
X207105142Y-59937619D01*
X207028952Y-60013809D01*
X206914666Y-60051904D01*
X206724190Y-60051904D01*
X196335714Y-60051904D02*
X195954761Y-60051904D01*
X195954761Y-59251904D01*
X196602380Y-59632857D02*
X196869047Y-59632857D01*
X196983333Y-60051904D02*
X196602380Y-60051904D01*
X196602380Y-59251904D01*
X196983333Y-59251904D01*
X197326190Y-60051904D02*
X197326190Y-59251904D01*
X197516666Y-59251904D01*
X197630952Y-59290000D01*
X197707142Y-59366190D01*
X197745238Y-59442380D01*
X197783333Y-59594761D01*
X197783333Y-59709047D01*
X197745238Y-59861428D01*
X197707142Y-59937619D01*
X197630952Y-60013809D01*
X197516666Y-60051904D01*
X197326190Y-60051904D01*
X186937714Y-60051904D02*
X186556761Y-60051904D01*
X186556761Y-59251904D01*
X187204380Y-59632857D02*
X187471047Y-59632857D01*
X187585333Y-60051904D02*
X187204380Y-60051904D01*
X187204380Y-59251904D01*
X187585333Y-59251904D01*
X187928190Y-60051904D02*
X187928190Y-59251904D01*
X188118666Y-59251904D01*
X188232952Y-59290000D01*
X188309142Y-59366190D01*
X188347238Y-59442380D01*
X188385333Y-59594761D01*
X188385333Y-59709047D01*
X188347238Y-59861428D01*
X188309142Y-59937619D01*
X188232952Y-60013809D01*
X188118666Y-60051904D01*
X187928190Y-60051904D01*
X177793714Y-60051904D02*
X177412761Y-60051904D01*
X177412761Y-59251904D01*
X178060380Y-59632857D02*
X178327047Y-59632857D01*
X178441333Y-60051904D02*
X178060380Y-60051904D01*
X178060380Y-59251904D01*
X178441333Y-59251904D01*
X178784190Y-60051904D02*
X178784190Y-59251904D01*
X178974666Y-59251904D01*
X179088952Y-59290000D01*
X179165142Y-59366190D01*
X179203238Y-59442380D01*
X179241333Y-59594761D01*
X179241333Y-59709047D01*
X179203238Y-59861428D01*
X179165142Y-59937619D01*
X179088952Y-60013809D01*
X178974666Y-60051904D01*
X178784190Y-60051904D01*
X174688666Y-67355980D02*
X174355333Y-66879790D01*
X174117238Y-67355980D02*
X174117238Y-66355980D01*
X174498190Y-66355980D01*
X174593428Y-66403600D01*
X174641047Y-66451219D01*
X174688666Y-66546457D01*
X174688666Y-66689314D01*
X174641047Y-66784552D01*
X174593428Y-66832171D01*
X174498190Y-66879790D01*
X174117238Y-66879790D01*
X175117238Y-66832171D02*
X175450571Y-66832171D01*
X175593428Y-67355980D02*
X175117238Y-67355980D01*
X175117238Y-66355980D01*
X175593428Y-66355980D01*
X176355333Y-66832171D02*
X176022000Y-66832171D01*
X176022000Y-67355980D02*
X176022000Y-66355980D01*
X176498190Y-66355980D01*
X177022000Y-66355980D02*
X177022000Y-66594076D01*
X176783904Y-66498838D02*
X177022000Y-66594076D01*
X177260095Y-66498838D01*
X176879142Y-66784552D02*
X177022000Y-66594076D01*
X177164857Y-66784552D01*
X177783904Y-66355980D02*
X177783904Y-66594076D01*
X177545809Y-66498838D02*
X177783904Y-66594076D01*
X178022000Y-66498838D01*
X177641047Y-66784552D02*
X177783904Y-66594076D01*
X177926761Y-66784552D01*
X198818666Y-67355980D02*
X198485333Y-66879790D01*
X198247238Y-67355980D02*
X198247238Y-66355980D01*
X198628190Y-66355980D01*
X198723428Y-66403600D01*
X198771047Y-66451219D01*
X198818666Y-66546457D01*
X198818666Y-66689314D01*
X198771047Y-66784552D01*
X198723428Y-66832171D01*
X198628190Y-66879790D01*
X198247238Y-66879790D01*
X199247238Y-66832171D02*
X199580571Y-66832171D01*
X199723428Y-67355980D02*
X199247238Y-67355980D01*
X199247238Y-66355980D01*
X199723428Y-66355980D01*
X200485333Y-66832171D02*
X200152000Y-66832171D01*
X200152000Y-67355980D02*
X200152000Y-66355980D01*
X200628190Y-66355980D01*
X201152000Y-66355980D02*
X201152000Y-66594076D01*
X200913904Y-66498838D02*
X201152000Y-66594076D01*
X201390095Y-66498838D01*
X201009142Y-66784552D02*
X201152000Y-66594076D01*
X201294857Y-66784552D01*
X201913904Y-66355980D02*
X201913904Y-66594076D01*
X201675809Y-66498838D02*
X201913904Y-66594076D01*
X202152000Y-66498838D01*
X201771047Y-66784552D02*
X201913904Y-66594076D01*
X202056761Y-66784552D01*
M02*
