M48
; DRILL file {KiCad (5.1.2-1)-1} date Wednesday, 09 October 2019 at 15:23:38
; FORMAT={-:-/ absolute / inch / decimal}
; #@! TF.CreationDate,2019-10-09T15:23:38+01:00
; #@! TF.GenerationSoftware,Kicad,Pcbnew,(5.1.2-1)-1
; #@! TF.FileFunction,Plated,1,2,PTH
FMAT,2
INCH
T1C0.0295
T2C0.0394
%
G90
G05
T1
X6.78Y-4.164
X6.78Y-4.2427
T2
X7.51Y-4.744
X7.61Y-4.744
X7.71Y-4.744
X7.81Y-4.744
X7.91Y-4.744
X6.58Y-4.52
X6.68Y-4.52
X6.78Y-4.52
X6.88Y-4.52
X6.98Y-4.52
X7.08Y-4.52
X7.18Y-4.52
X7.28Y-4.52
X7.38Y-4.52
X7.48Y-4.52
X7.58Y-4.52
X7.68Y-4.52
X7.78Y-4.52
X7.88Y-4.52
X7.98Y-4.52
X7.43Y-2.634
X7.53Y-2.634
X7.63Y-2.634
X7.73Y-2.634
X7.83Y-2.634
X7.93Y-2.634
X8.03Y-2.634
X8.13Y-2.634
X8.23Y-2.634
X8.33Y-2.634
X6.9104Y-5.024
X7.2096Y-5.024
X6.58Y-2.634
X6.68Y-2.634
X6.78Y-2.634
X6.88Y-2.634
X6.98Y-2.634
X7.08Y-2.634
X7.18Y-2.634
X7.28Y-2.634
X6.52Y-2.914
X6.52Y-3.014
X6.52Y-3.114
X6.52Y-3.214
X6.52Y-3.314
X6.52Y-3.414
X6.52Y-3.514
X6.52Y-3.614
X8.23Y-4.654
X8.23Y-4.754
X8.33Y-4.654
X8.33Y-4.754
X8.43Y-4.654
X8.43Y-4.754
X8.53Y-4.654
X8.53Y-4.754
T0
M30
