G04 #@! TF.GenerationSoftware,KiCad,Pcbnew,(5.1.2-1)-1*
G04 #@! TF.CreationDate,2019-10-09T15:23:33+01:00*
G04 #@! TF.ProjectId,PixlVBoard,5069786c-5642-46f6-9172-642e6b696361,rev?*
G04 #@! TF.SameCoordinates,Original*
G04 #@! TF.FileFunction,Soldermask,Top*
G04 #@! TF.FilePolarity,Negative*
%FSLAX46Y46*%
G04 Gerber Fmt 4.6, Leading zero omitted, Abs format (unit mm)*
G04 Created by KiCad (PCBNEW (5.1.2-1)-1) date 2019-10-09 15:23:33*
%MOMM*%
%LPD*%
G04 APERTURE LIST*
%ADD10C,0.150000*%
G04 APERTURE END LIST*
D10*
G36*
X183358810Y-126835535D02*
G01*
X183505309Y-126896217D01*
X183505310Y-126896218D01*
X183637158Y-126984316D01*
X183749284Y-127096442D01*
X183749285Y-127096444D01*
X183837383Y-127228291D01*
X183898065Y-127374790D01*
X183929000Y-127530313D01*
X183929000Y-127688887D01*
X183898065Y-127844410D01*
X183837383Y-127990909D01*
X183837382Y-127990910D01*
X183749284Y-128122758D01*
X183637158Y-128234884D01*
X183570785Y-128279233D01*
X183505309Y-128322983D01*
X183358810Y-128383665D01*
X183203287Y-128414600D01*
X183044713Y-128414600D01*
X182889190Y-128383665D01*
X182742691Y-128322983D01*
X182677215Y-128279233D01*
X182610842Y-128234884D01*
X182498716Y-128122758D01*
X182410618Y-127990910D01*
X182410617Y-127990909D01*
X182349935Y-127844410D01*
X182319000Y-127688887D01*
X182319000Y-127530313D01*
X182349935Y-127374790D01*
X182410617Y-127228291D01*
X182498715Y-127096444D01*
X182498716Y-127096442D01*
X182610842Y-126984316D01*
X182742690Y-126896218D01*
X182742691Y-126896217D01*
X182889190Y-126835535D01*
X183044713Y-126804600D01*
X183203287Y-126804600D01*
X183358810Y-126835535D01*
X183358810Y-126835535D01*
G37*
G36*
X175758810Y-126835535D02*
G01*
X175905309Y-126896217D01*
X175905310Y-126896218D01*
X176037158Y-126984316D01*
X176149284Y-127096442D01*
X176149285Y-127096444D01*
X176237383Y-127228291D01*
X176298065Y-127374790D01*
X176329000Y-127530313D01*
X176329000Y-127688887D01*
X176298065Y-127844410D01*
X176237383Y-127990909D01*
X176237382Y-127990910D01*
X176149284Y-128122758D01*
X176037158Y-128234884D01*
X175970785Y-128279233D01*
X175905309Y-128322983D01*
X175758810Y-128383665D01*
X175603287Y-128414600D01*
X175444713Y-128414600D01*
X175289190Y-128383665D01*
X175142691Y-128322983D01*
X175077215Y-128279233D01*
X175010842Y-128234884D01*
X174898716Y-128122758D01*
X174810618Y-127990910D01*
X174810617Y-127990909D01*
X174749935Y-127844410D01*
X174719000Y-127688887D01*
X174719000Y-127530313D01*
X174749935Y-127374790D01*
X174810617Y-127228291D01*
X174898715Y-127096444D01*
X174898716Y-127096442D01*
X175010842Y-126984316D01*
X175142690Y-126896218D01*
X175142691Y-126896217D01*
X175289190Y-126835535D01*
X175444713Y-126804600D01*
X175603287Y-126804600D01*
X175758810Y-126835535D01*
X175758810Y-126835535D01*
G37*
G36*
X211692442Y-119857118D02*
G01*
X211758627Y-119863637D01*
X211928466Y-119915157D01*
X212084991Y-119998822D01*
X212120729Y-120028152D01*
X212222186Y-120111414D01*
X212305448Y-120212871D01*
X212334778Y-120248609D01*
X212418443Y-120405134D01*
X212469963Y-120574973D01*
X212487359Y-120751600D01*
X212469963Y-120928227D01*
X212418443Y-121098066D01*
X212334778Y-121254591D01*
X212305448Y-121290329D01*
X212222186Y-121391786D01*
X212120729Y-121475048D01*
X212084991Y-121504378D01*
X211928466Y-121588043D01*
X211758627Y-121639563D01*
X211692442Y-121646082D01*
X211626260Y-121652600D01*
X211537740Y-121652600D01*
X211471558Y-121646082D01*
X211405373Y-121639563D01*
X211235534Y-121588043D01*
X211079009Y-121504378D01*
X211043271Y-121475048D01*
X210941814Y-121391786D01*
X210858552Y-121290329D01*
X210829222Y-121254591D01*
X210745557Y-121098066D01*
X210694037Y-120928227D01*
X210676641Y-120751600D01*
X210694037Y-120574973D01*
X210745557Y-120405134D01*
X210829222Y-120248609D01*
X210858552Y-120212871D01*
X210941814Y-120111414D01*
X211043271Y-120028152D01*
X211079009Y-119998822D01*
X211235534Y-119915157D01*
X211405373Y-119863637D01*
X211471558Y-119857118D01*
X211537740Y-119850600D01*
X211626260Y-119850600D01*
X211692442Y-119857118D01*
X211692442Y-119857118D01*
G37*
G36*
X209943000Y-121652600D02*
G01*
X208141000Y-121652600D01*
X208141000Y-119850600D01*
X209943000Y-119850600D01*
X209943000Y-121652600D01*
X209943000Y-121652600D01*
G37*
G36*
X216772442Y-119857118D02*
G01*
X216838627Y-119863637D01*
X217008466Y-119915157D01*
X217164991Y-119998822D01*
X217200729Y-120028152D01*
X217302186Y-120111414D01*
X217385448Y-120212871D01*
X217414778Y-120248609D01*
X217498443Y-120405134D01*
X217549963Y-120574973D01*
X217567359Y-120751600D01*
X217549963Y-120928227D01*
X217498443Y-121098066D01*
X217414778Y-121254591D01*
X217385448Y-121290329D01*
X217302186Y-121391786D01*
X217200729Y-121475048D01*
X217164991Y-121504378D01*
X217008466Y-121588043D01*
X216838627Y-121639563D01*
X216772442Y-121646082D01*
X216706260Y-121652600D01*
X216617740Y-121652600D01*
X216551558Y-121646082D01*
X216485373Y-121639563D01*
X216315534Y-121588043D01*
X216159009Y-121504378D01*
X216123271Y-121475048D01*
X216021814Y-121391786D01*
X215938552Y-121290329D01*
X215909222Y-121254591D01*
X215825557Y-121098066D01*
X215774037Y-120928227D01*
X215756641Y-120751600D01*
X215774037Y-120574973D01*
X215825557Y-120405134D01*
X215909222Y-120248609D01*
X215938552Y-120212871D01*
X216021814Y-120111414D01*
X216123271Y-120028152D01*
X216159009Y-119998822D01*
X216315534Y-119915157D01*
X216485373Y-119863637D01*
X216551558Y-119857118D01*
X216617740Y-119850600D01*
X216706260Y-119850600D01*
X216772442Y-119857118D01*
X216772442Y-119857118D01*
G37*
G36*
X214232442Y-119857118D02*
G01*
X214298627Y-119863637D01*
X214468466Y-119915157D01*
X214624991Y-119998822D01*
X214660729Y-120028152D01*
X214762186Y-120111414D01*
X214845448Y-120212871D01*
X214874778Y-120248609D01*
X214958443Y-120405134D01*
X215009963Y-120574973D01*
X215027359Y-120751600D01*
X215009963Y-120928227D01*
X214958443Y-121098066D01*
X214874778Y-121254591D01*
X214845448Y-121290329D01*
X214762186Y-121391786D01*
X214660729Y-121475048D01*
X214624991Y-121504378D01*
X214468466Y-121588043D01*
X214298627Y-121639563D01*
X214232442Y-121646082D01*
X214166260Y-121652600D01*
X214077740Y-121652600D01*
X214011558Y-121646082D01*
X213945373Y-121639563D01*
X213775534Y-121588043D01*
X213619009Y-121504378D01*
X213583271Y-121475048D01*
X213481814Y-121391786D01*
X213398552Y-121290329D01*
X213369222Y-121254591D01*
X213285557Y-121098066D01*
X213234037Y-120928227D01*
X213216641Y-120751600D01*
X213234037Y-120574973D01*
X213285557Y-120405134D01*
X213369222Y-120248609D01*
X213398552Y-120212871D01*
X213481814Y-120111414D01*
X213583271Y-120028152D01*
X213619009Y-119998822D01*
X213775534Y-119915157D01*
X213945373Y-119863637D01*
X214011558Y-119857118D01*
X214077740Y-119850600D01*
X214166260Y-119850600D01*
X214232442Y-119857118D01*
X214232442Y-119857118D01*
G37*
G36*
X201815000Y-121398600D02*
G01*
X200013000Y-121398600D01*
X200013000Y-119596600D01*
X201815000Y-119596600D01*
X201815000Y-121398600D01*
X201815000Y-121398600D01*
G37*
G36*
X190864443Y-119603119D02*
G01*
X190930627Y-119609637D01*
X191100466Y-119661157D01*
X191256991Y-119744822D01*
X191292729Y-119774152D01*
X191394186Y-119857414D01*
X191477448Y-119958871D01*
X191506778Y-119994609D01*
X191590443Y-120151134D01*
X191641963Y-120320973D01*
X191659359Y-120497600D01*
X191641963Y-120674227D01*
X191590443Y-120844066D01*
X191506778Y-121000591D01*
X191477448Y-121036329D01*
X191394186Y-121137786D01*
X191292729Y-121221048D01*
X191256991Y-121250378D01*
X191100466Y-121334043D01*
X190930627Y-121385563D01*
X190867453Y-121391785D01*
X190798260Y-121398600D01*
X190709740Y-121398600D01*
X190640547Y-121391785D01*
X190577373Y-121385563D01*
X190407534Y-121334043D01*
X190251009Y-121250378D01*
X190215271Y-121221048D01*
X190113814Y-121137786D01*
X190030552Y-121036329D01*
X190001222Y-121000591D01*
X189917557Y-120844066D01*
X189866037Y-120674227D01*
X189848641Y-120497600D01*
X189866037Y-120320973D01*
X189917557Y-120151134D01*
X190001222Y-119994609D01*
X190030552Y-119958871D01*
X190113814Y-119857414D01*
X190215271Y-119774152D01*
X190251009Y-119744822D01*
X190407534Y-119661157D01*
X190577373Y-119609637D01*
X190643557Y-119603119D01*
X190709740Y-119596600D01*
X190798260Y-119596600D01*
X190864443Y-119603119D01*
X190864443Y-119603119D01*
G37*
G36*
X193404443Y-119603119D02*
G01*
X193470627Y-119609637D01*
X193640466Y-119661157D01*
X193796991Y-119744822D01*
X193832729Y-119774152D01*
X193934186Y-119857414D01*
X194017448Y-119958871D01*
X194046778Y-119994609D01*
X194130443Y-120151134D01*
X194181963Y-120320973D01*
X194199359Y-120497600D01*
X194181963Y-120674227D01*
X194130443Y-120844066D01*
X194046778Y-121000591D01*
X194017448Y-121036329D01*
X193934186Y-121137786D01*
X193832729Y-121221048D01*
X193796991Y-121250378D01*
X193640466Y-121334043D01*
X193470627Y-121385563D01*
X193407453Y-121391785D01*
X193338260Y-121398600D01*
X193249740Y-121398600D01*
X193180547Y-121391785D01*
X193117373Y-121385563D01*
X192947534Y-121334043D01*
X192791009Y-121250378D01*
X192755271Y-121221048D01*
X192653814Y-121137786D01*
X192570552Y-121036329D01*
X192541222Y-121000591D01*
X192457557Y-120844066D01*
X192406037Y-120674227D01*
X192388641Y-120497600D01*
X192406037Y-120320973D01*
X192457557Y-120151134D01*
X192541222Y-119994609D01*
X192570552Y-119958871D01*
X192653814Y-119857414D01*
X192755271Y-119774152D01*
X192791009Y-119744822D01*
X192947534Y-119661157D01*
X193117373Y-119609637D01*
X193183557Y-119603119D01*
X193249740Y-119596600D01*
X193338260Y-119596600D01*
X193404443Y-119603119D01*
X193404443Y-119603119D01*
G37*
G36*
X195944443Y-119603119D02*
G01*
X196010627Y-119609637D01*
X196180466Y-119661157D01*
X196336991Y-119744822D01*
X196372729Y-119774152D01*
X196474186Y-119857414D01*
X196557448Y-119958871D01*
X196586778Y-119994609D01*
X196670443Y-120151134D01*
X196721963Y-120320973D01*
X196739359Y-120497600D01*
X196721963Y-120674227D01*
X196670443Y-120844066D01*
X196586778Y-121000591D01*
X196557448Y-121036329D01*
X196474186Y-121137786D01*
X196372729Y-121221048D01*
X196336991Y-121250378D01*
X196180466Y-121334043D01*
X196010627Y-121385563D01*
X195947453Y-121391785D01*
X195878260Y-121398600D01*
X195789740Y-121398600D01*
X195720547Y-121391785D01*
X195657373Y-121385563D01*
X195487534Y-121334043D01*
X195331009Y-121250378D01*
X195295271Y-121221048D01*
X195193814Y-121137786D01*
X195110552Y-121036329D01*
X195081222Y-121000591D01*
X194997557Y-120844066D01*
X194946037Y-120674227D01*
X194928641Y-120497600D01*
X194946037Y-120320973D01*
X194997557Y-120151134D01*
X195081222Y-119994609D01*
X195110552Y-119958871D01*
X195193814Y-119857414D01*
X195295271Y-119774152D01*
X195331009Y-119744822D01*
X195487534Y-119661157D01*
X195657373Y-119609637D01*
X195723557Y-119603119D01*
X195789740Y-119596600D01*
X195878260Y-119596600D01*
X195944443Y-119603119D01*
X195944443Y-119603119D01*
G37*
G36*
X198484443Y-119603119D02*
G01*
X198550627Y-119609637D01*
X198720466Y-119661157D01*
X198876991Y-119744822D01*
X198912729Y-119774152D01*
X199014186Y-119857414D01*
X199097448Y-119958871D01*
X199126778Y-119994609D01*
X199210443Y-120151134D01*
X199261963Y-120320973D01*
X199279359Y-120497600D01*
X199261963Y-120674227D01*
X199210443Y-120844066D01*
X199126778Y-121000591D01*
X199097448Y-121036329D01*
X199014186Y-121137786D01*
X198912729Y-121221048D01*
X198876991Y-121250378D01*
X198720466Y-121334043D01*
X198550627Y-121385563D01*
X198487453Y-121391785D01*
X198418260Y-121398600D01*
X198329740Y-121398600D01*
X198260547Y-121391785D01*
X198197373Y-121385563D01*
X198027534Y-121334043D01*
X197871009Y-121250378D01*
X197835271Y-121221048D01*
X197733814Y-121137786D01*
X197650552Y-121036329D01*
X197621222Y-121000591D01*
X197537557Y-120844066D01*
X197486037Y-120674227D01*
X197468641Y-120497600D01*
X197486037Y-120320973D01*
X197537557Y-120151134D01*
X197621222Y-119994609D01*
X197650552Y-119958871D01*
X197733814Y-119857414D01*
X197835271Y-119774152D01*
X197871009Y-119744822D01*
X198027534Y-119661157D01*
X198197373Y-119609637D01*
X198263557Y-119603119D01*
X198329740Y-119596600D01*
X198418260Y-119596600D01*
X198484443Y-119603119D01*
X198484443Y-119603119D01*
G37*
G36*
X214232443Y-117317119D02*
G01*
X214298627Y-117323637D01*
X214468466Y-117375157D01*
X214624991Y-117458822D01*
X214660729Y-117488152D01*
X214762186Y-117571414D01*
X214845448Y-117672871D01*
X214874778Y-117708609D01*
X214958443Y-117865134D01*
X215009963Y-118034973D01*
X215027359Y-118211600D01*
X215009963Y-118388227D01*
X214958443Y-118558066D01*
X214874778Y-118714591D01*
X214845448Y-118750329D01*
X214762186Y-118851786D01*
X214660729Y-118935048D01*
X214624991Y-118964378D01*
X214468466Y-119048043D01*
X214298627Y-119099563D01*
X214232442Y-119106082D01*
X214166260Y-119112600D01*
X214077740Y-119112600D01*
X214011558Y-119106082D01*
X213945373Y-119099563D01*
X213775534Y-119048043D01*
X213619009Y-118964378D01*
X213583271Y-118935048D01*
X213481814Y-118851786D01*
X213398552Y-118750329D01*
X213369222Y-118714591D01*
X213285557Y-118558066D01*
X213234037Y-118388227D01*
X213216641Y-118211600D01*
X213234037Y-118034973D01*
X213285557Y-117865134D01*
X213369222Y-117708609D01*
X213398552Y-117672871D01*
X213481814Y-117571414D01*
X213583271Y-117488152D01*
X213619009Y-117458822D01*
X213775534Y-117375157D01*
X213945373Y-117323637D01*
X214011557Y-117317119D01*
X214077740Y-117310600D01*
X214166260Y-117310600D01*
X214232443Y-117317119D01*
X214232443Y-117317119D01*
G37*
G36*
X211692443Y-117317119D02*
G01*
X211758627Y-117323637D01*
X211928466Y-117375157D01*
X212084991Y-117458822D01*
X212120729Y-117488152D01*
X212222186Y-117571414D01*
X212305448Y-117672871D01*
X212334778Y-117708609D01*
X212418443Y-117865134D01*
X212469963Y-118034973D01*
X212487359Y-118211600D01*
X212469963Y-118388227D01*
X212418443Y-118558066D01*
X212334778Y-118714591D01*
X212305448Y-118750329D01*
X212222186Y-118851786D01*
X212120729Y-118935048D01*
X212084991Y-118964378D01*
X211928466Y-119048043D01*
X211758627Y-119099563D01*
X211692442Y-119106082D01*
X211626260Y-119112600D01*
X211537740Y-119112600D01*
X211471558Y-119106082D01*
X211405373Y-119099563D01*
X211235534Y-119048043D01*
X211079009Y-118964378D01*
X211043271Y-118935048D01*
X210941814Y-118851786D01*
X210858552Y-118750329D01*
X210829222Y-118714591D01*
X210745557Y-118558066D01*
X210694037Y-118388227D01*
X210676641Y-118211600D01*
X210694037Y-118034973D01*
X210745557Y-117865134D01*
X210829222Y-117708609D01*
X210858552Y-117672871D01*
X210941814Y-117571414D01*
X211043271Y-117488152D01*
X211079009Y-117458822D01*
X211235534Y-117375157D01*
X211405373Y-117323637D01*
X211471557Y-117317119D01*
X211537740Y-117310600D01*
X211626260Y-117310600D01*
X211692443Y-117317119D01*
X211692443Y-117317119D01*
G37*
G36*
X209152443Y-117317119D02*
G01*
X209218627Y-117323637D01*
X209388466Y-117375157D01*
X209544991Y-117458822D01*
X209580729Y-117488152D01*
X209682186Y-117571414D01*
X209765448Y-117672871D01*
X209794778Y-117708609D01*
X209878443Y-117865134D01*
X209929963Y-118034973D01*
X209947359Y-118211600D01*
X209929963Y-118388227D01*
X209878443Y-118558066D01*
X209794778Y-118714591D01*
X209765448Y-118750329D01*
X209682186Y-118851786D01*
X209580729Y-118935048D01*
X209544991Y-118964378D01*
X209388466Y-119048043D01*
X209218627Y-119099563D01*
X209152442Y-119106082D01*
X209086260Y-119112600D01*
X208997740Y-119112600D01*
X208931558Y-119106082D01*
X208865373Y-119099563D01*
X208695534Y-119048043D01*
X208539009Y-118964378D01*
X208503271Y-118935048D01*
X208401814Y-118851786D01*
X208318552Y-118750329D01*
X208289222Y-118714591D01*
X208205557Y-118558066D01*
X208154037Y-118388227D01*
X208136641Y-118211600D01*
X208154037Y-118034973D01*
X208205557Y-117865134D01*
X208289222Y-117708609D01*
X208318552Y-117672871D01*
X208401814Y-117571414D01*
X208503271Y-117488152D01*
X208539009Y-117458822D01*
X208695534Y-117375157D01*
X208865373Y-117323637D01*
X208931557Y-117317119D01*
X208997740Y-117310600D01*
X209086260Y-117310600D01*
X209152443Y-117317119D01*
X209152443Y-117317119D01*
G37*
G36*
X216772443Y-117317119D02*
G01*
X216838627Y-117323637D01*
X217008466Y-117375157D01*
X217164991Y-117458822D01*
X217200729Y-117488152D01*
X217302186Y-117571414D01*
X217385448Y-117672871D01*
X217414778Y-117708609D01*
X217498443Y-117865134D01*
X217549963Y-118034973D01*
X217567359Y-118211600D01*
X217549963Y-118388227D01*
X217498443Y-118558066D01*
X217414778Y-118714591D01*
X217385448Y-118750329D01*
X217302186Y-118851786D01*
X217200729Y-118935048D01*
X217164991Y-118964378D01*
X217008466Y-119048043D01*
X216838627Y-119099563D01*
X216772442Y-119106082D01*
X216706260Y-119112600D01*
X216617740Y-119112600D01*
X216551558Y-119106082D01*
X216485373Y-119099563D01*
X216315534Y-119048043D01*
X216159009Y-118964378D01*
X216123271Y-118935048D01*
X216021814Y-118851786D01*
X215938552Y-118750329D01*
X215909222Y-118714591D01*
X215825557Y-118558066D01*
X215774037Y-118388227D01*
X215756641Y-118211600D01*
X215774037Y-118034973D01*
X215825557Y-117865134D01*
X215909222Y-117708609D01*
X215938552Y-117672871D01*
X216021814Y-117571414D01*
X216123271Y-117488152D01*
X216159009Y-117458822D01*
X216315534Y-117375157D01*
X216485373Y-117323637D01*
X216551557Y-117317119D01*
X216617740Y-117310600D01*
X216706260Y-117310600D01*
X216772443Y-117317119D01*
X216772443Y-117317119D01*
G37*
G36*
X177402442Y-113913518D02*
G01*
X177468627Y-113920037D01*
X177638466Y-113971557D01*
X177794991Y-114055222D01*
X177830729Y-114084552D01*
X177932186Y-114167814D01*
X178015448Y-114269271D01*
X178044778Y-114305009D01*
X178128443Y-114461534D01*
X178179963Y-114631373D01*
X178197359Y-114808000D01*
X178179963Y-114984627D01*
X178128443Y-115154466D01*
X178044778Y-115310991D01*
X178015448Y-115346729D01*
X177932186Y-115448186D01*
X177830729Y-115531448D01*
X177794991Y-115560778D01*
X177638466Y-115644443D01*
X177468627Y-115695963D01*
X177402442Y-115702482D01*
X177336260Y-115709000D01*
X177247740Y-115709000D01*
X177181558Y-115702482D01*
X177115373Y-115695963D01*
X176945534Y-115644443D01*
X176789009Y-115560778D01*
X176753271Y-115531448D01*
X176651814Y-115448186D01*
X176568552Y-115346729D01*
X176539222Y-115310991D01*
X176455557Y-115154466D01*
X176404037Y-114984627D01*
X176386641Y-114808000D01*
X176404037Y-114631373D01*
X176455557Y-114461534D01*
X176539222Y-114305009D01*
X176568552Y-114269271D01*
X176651814Y-114167814D01*
X176753271Y-114084552D01*
X176789009Y-114055222D01*
X176945534Y-113971557D01*
X177115373Y-113920037D01*
X177181558Y-113913518D01*
X177247740Y-113907000D01*
X177336260Y-113907000D01*
X177402442Y-113913518D01*
X177402442Y-113913518D01*
G37*
G36*
X200262442Y-113913518D02*
G01*
X200328627Y-113920037D01*
X200498466Y-113971557D01*
X200654991Y-114055222D01*
X200690729Y-114084552D01*
X200792186Y-114167814D01*
X200875448Y-114269271D01*
X200904778Y-114305009D01*
X200988443Y-114461534D01*
X201039963Y-114631373D01*
X201057359Y-114808000D01*
X201039963Y-114984627D01*
X200988443Y-115154466D01*
X200904778Y-115310991D01*
X200875448Y-115346729D01*
X200792186Y-115448186D01*
X200690729Y-115531448D01*
X200654991Y-115560778D01*
X200498466Y-115644443D01*
X200328627Y-115695963D01*
X200262442Y-115702482D01*
X200196260Y-115709000D01*
X200107740Y-115709000D01*
X200041558Y-115702482D01*
X199975373Y-115695963D01*
X199805534Y-115644443D01*
X199649009Y-115560778D01*
X199613271Y-115531448D01*
X199511814Y-115448186D01*
X199428552Y-115346729D01*
X199399222Y-115310991D01*
X199315557Y-115154466D01*
X199264037Y-114984627D01*
X199246641Y-114808000D01*
X199264037Y-114631373D01*
X199315557Y-114461534D01*
X199399222Y-114305009D01*
X199428552Y-114269271D01*
X199511814Y-114167814D01*
X199613271Y-114084552D01*
X199649009Y-114055222D01*
X199805534Y-113971557D01*
X199975373Y-113920037D01*
X200041558Y-113913518D01*
X200107740Y-113907000D01*
X200196260Y-113907000D01*
X200262442Y-113913518D01*
X200262442Y-113913518D01*
G37*
G36*
X202802442Y-113913518D02*
G01*
X202868627Y-113920037D01*
X203038466Y-113971557D01*
X203194991Y-114055222D01*
X203230729Y-114084552D01*
X203332186Y-114167814D01*
X203415448Y-114269271D01*
X203444778Y-114305009D01*
X203528443Y-114461534D01*
X203579963Y-114631373D01*
X203597359Y-114808000D01*
X203579963Y-114984627D01*
X203528443Y-115154466D01*
X203444778Y-115310991D01*
X203415448Y-115346729D01*
X203332186Y-115448186D01*
X203230729Y-115531448D01*
X203194991Y-115560778D01*
X203038466Y-115644443D01*
X202868627Y-115695963D01*
X202802442Y-115702482D01*
X202736260Y-115709000D01*
X202647740Y-115709000D01*
X202581558Y-115702482D01*
X202515373Y-115695963D01*
X202345534Y-115644443D01*
X202189009Y-115560778D01*
X202153271Y-115531448D01*
X202051814Y-115448186D01*
X201968552Y-115346729D01*
X201939222Y-115310991D01*
X201855557Y-115154466D01*
X201804037Y-114984627D01*
X201786641Y-114808000D01*
X201804037Y-114631373D01*
X201855557Y-114461534D01*
X201939222Y-114305009D01*
X201968552Y-114269271D01*
X202051814Y-114167814D01*
X202153271Y-114084552D01*
X202189009Y-114055222D01*
X202345534Y-113971557D01*
X202515373Y-113920037D01*
X202581558Y-113913518D01*
X202647740Y-113907000D01*
X202736260Y-113907000D01*
X202802442Y-113913518D01*
X202802442Y-113913518D01*
G37*
G36*
X197722442Y-113913518D02*
G01*
X197788627Y-113920037D01*
X197958466Y-113971557D01*
X198114991Y-114055222D01*
X198150729Y-114084552D01*
X198252186Y-114167814D01*
X198335448Y-114269271D01*
X198364778Y-114305009D01*
X198448443Y-114461534D01*
X198499963Y-114631373D01*
X198517359Y-114808000D01*
X198499963Y-114984627D01*
X198448443Y-115154466D01*
X198364778Y-115310991D01*
X198335448Y-115346729D01*
X198252186Y-115448186D01*
X198150729Y-115531448D01*
X198114991Y-115560778D01*
X197958466Y-115644443D01*
X197788627Y-115695963D01*
X197722442Y-115702482D01*
X197656260Y-115709000D01*
X197567740Y-115709000D01*
X197501558Y-115702482D01*
X197435373Y-115695963D01*
X197265534Y-115644443D01*
X197109009Y-115560778D01*
X197073271Y-115531448D01*
X196971814Y-115448186D01*
X196888552Y-115346729D01*
X196859222Y-115310991D01*
X196775557Y-115154466D01*
X196724037Y-114984627D01*
X196706641Y-114808000D01*
X196724037Y-114631373D01*
X196775557Y-114461534D01*
X196859222Y-114305009D01*
X196888552Y-114269271D01*
X196971814Y-114167814D01*
X197073271Y-114084552D01*
X197109009Y-114055222D01*
X197265534Y-113971557D01*
X197435373Y-113920037D01*
X197501558Y-113913518D01*
X197567740Y-113907000D01*
X197656260Y-113907000D01*
X197722442Y-113913518D01*
X197722442Y-113913518D01*
G37*
G36*
X195182442Y-113913518D02*
G01*
X195248627Y-113920037D01*
X195418466Y-113971557D01*
X195574991Y-114055222D01*
X195610729Y-114084552D01*
X195712186Y-114167814D01*
X195795448Y-114269271D01*
X195824778Y-114305009D01*
X195908443Y-114461534D01*
X195959963Y-114631373D01*
X195977359Y-114808000D01*
X195959963Y-114984627D01*
X195908443Y-115154466D01*
X195824778Y-115310991D01*
X195795448Y-115346729D01*
X195712186Y-115448186D01*
X195610729Y-115531448D01*
X195574991Y-115560778D01*
X195418466Y-115644443D01*
X195248627Y-115695963D01*
X195182442Y-115702482D01*
X195116260Y-115709000D01*
X195027740Y-115709000D01*
X194961558Y-115702482D01*
X194895373Y-115695963D01*
X194725534Y-115644443D01*
X194569009Y-115560778D01*
X194533271Y-115531448D01*
X194431814Y-115448186D01*
X194348552Y-115346729D01*
X194319222Y-115310991D01*
X194235557Y-115154466D01*
X194184037Y-114984627D01*
X194166641Y-114808000D01*
X194184037Y-114631373D01*
X194235557Y-114461534D01*
X194319222Y-114305009D01*
X194348552Y-114269271D01*
X194431814Y-114167814D01*
X194533271Y-114084552D01*
X194569009Y-114055222D01*
X194725534Y-113971557D01*
X194895373Y-113920037D01*
X194961558Y-113913518D01*
X195027740Y-113907000D01*
X195116260Y-113907000D01*
X195182442Y-113913518D01*
X195182442Y-113913518D01*
G37*
G36*
X192642442Y-113913518D02*
G01*
X192708627Y-113920037D01*
X192878466Y-113971557D01*
X193034991Y-114055222D01*
X193070729Y-114084552D01*
X193172186Y-114167814D01*
X193255448Y-114269271D01*
X193284778Y-114305009D01*
X193368443Y-114461534D01*
X193419963Y-114631373D01*
X193437359Y-114808000D01*
X193419963Y-114984627D01*
X193368443Y-115154466D01*
X193284778Y-115310991D01*
X193255448Y-115346729D01*
X193172186Y-115448186D01*
X193070729Y-115531448D01*
X193034991Y-115560778D01*
X192878466Y-115644443D01*
X192708627Y-115695963D01*
X192642442Y-115702482D01*
X192576260Y-115709000D01*
X192487740Y-115709000D01*
X192421558Y-115702482D01*
X192355373Y-115695963D01*
X192185534Y-115644443D01*
X192029009Y-115560778D01*
X191993271Y-115531448D01*
X191891814Y-115448186D01*
X191808552Y-115346729D01*
X191779222Y-115310991D01*
X191695557Y-115154466D01*
X191644037Y-114984627D01*
X191626641Y-114808000D01*
X191644037Y-114631373D01*
X191695557Y-114461534D01*
X191779222Y-114305009D01*
X191808552Y-114269271D01*
X191891814Y-114167814D01*
X191993271Y-114084552D01*
X192029009Y-114055222D01*
X192185534Y-113971557D01*
X192355373Y-113920037D01*
X192421558Y-113913518D01*
X192487740Y-113907000D01*
X192576260Y-113907000D01*
X192642442Y-113913518D01*
X192642442Y-113913518D01*
G37*
G36*
X190102442Y-113913518D02*
G01*
X190168627Y-113920037D01*
X190338466Y-113971557D01*
X190494991Y-114055222D01*
X190530729Y-114084552D01*
X190632186Y-114167814D01*
X190715448Y-114269271D01*
X190744778Y-114305009D01*
X190828443Y-114461534D01*
X190879963Y-114631373D01*
X190897359Y-114808000D01*
X190879963Y-114984627D01*
X190828443Y-115154466D01*
X190744778Y-115310991D01*
X190715448Y-115346729D01*
X190632186Y-115448186D01*
X190530729Y-115531448D01*
X190494991Y-115560778D01*
X190338466Y-115644443D01*
X190168627Y-115695963D01*
X190102442Y-115702482D01*
X190036260Y-115709000D01*
X189947740Y-115709000D01*
X189881558Y-115702482D01*
X189815373Y-115695963D01*
X189645534Y-115644443D01*
X189489009Y-115560778D01*
X189453271Y-115531448D01*
X189351814Y-115448186D01*
X189268552Y-115346729D01*
X189239222Y-115310991D01*
X189155557Y-115154466D01*
X189104037Y-114984627D01*
X189086641Y-114808000D01*
X189104037Y-114631373D01*
X189155557Y-114461534D01*
X189239222Y-114305009D01*
X189268552Y-114269271D01*
X189351814Y-114167814D01*
X189453271Y-114084552D01*
X189489009Y-114055222D01*
X189645534Y-113971557D01*
X189815373Y-113920037D01*
X189881558Y-113913518D01*
X189947740Y-113907000D01*
X190036260Y-113907000D01*
X190102442Y-113913518D01*
X190102442Y-113913518D01*
G37*
G36*
X187562442Y-113913518D02*
G01*
X187628627Y-113920037D01*
X187798466Y-113971557D01*
X187954991Y-114055222D01*
X187990729Y-114084552D01*
X188092186Y-114167814D01*
X188175448Y-114269271D01*
X188204778Y-114305009D01*
X188288443Y-114461534D01*
X188339963Y-114631373D01*
X188357359Y-114808000D01*
X188339963Y-114984627D01*
X188288443Y-115154466D01*
X188204778Y-115310991D01*
X188175448Y-115346729D01*
X188092186Y-115448186D01*
X187990729Y-115531448D01*
X187954991Y-115560778D01*
X187798466Y-115644443D01*
X187628627Y-115695963D01*
X187562442Y-115702482D01*
X187496260Y-115709000D01*
X187407740Y-115709000D01*
X187341558Y-115702482D01*
X187275373Y-115695963D01*
X187105534Y-115644443D01*
X186949009Y-115560778D01*
X186913271Y-115531448D01*
X186811814Y-115448186D01*
X186728552Y-115346729D01*
X186699222Y-115310991D01*
X186615557Y-115154466D01*
X186564037Y-114984627D01*
X186546641Y-114808000D01*
X186564037Y-114631373D01*
X186615557Y-114461534D01*
X186699222Y-114305009D01*
X186728552Y-114269271D01*
X186811814Y-114167814D01*
X186913271Y-114084552D01*
X186949009Y-114055222D01*
X187105534Y-113971557D01*
X187275373Y-113920037D01*
X187341558Y-113913518D01*
X187407740Y-113907000D01*
X187496260Y-113907000D01*
X187562442Y-113913518D01*
X187562442Y-113913518D01*
G37*
G36*
X185022442Y-113913518D02*
G01*
X185088627Y-113920037D01*
X185258466Y-113971557D01*
X185414991Y-114055222D01*
X185450729Y-114084552D01*
X185552186Y-114167814D01*
X185635448Y-114269271D01*
X185664778Y-114305009D01*
X185748443Y-114461534D01*
X185799963Y-114631373D01*
X185817359Y-114808000D01*
X185799963Y-114984627D01*
X185748443Y-115154466D01*
X185664778Y-115310991D01*
X185635448Y-115346729D01*
X185552186Y-115448186D01*
X185450729Y-115531448D01*
X185414991Y-115560778D01*
X185258466Y-115644443D01*
X185088627Y-115695963D01*
X185022442Y-115702482D01*
X184956260Y-115709000D01*
X184867740Y-115709000D01*
X184801558Y-115702482D01*
X184735373Y-115695963D01*
X184565534Y-115644443D01*
X184409009Y-115560778D01*
X184373271Y-115531448D01*
X184271814Y-115448186D01*
X184188552Y-115346729D01*
X184159222Y-115310991D01*
X184075557Y-115154466D01*
X184024037Y-114984627D01*
X184006641Y-114808000D01*
X184024037Y-114631373D01*
X184075557Y-114461534D01*
X184159222Y-114305009D01*
X184188552Y-114269271D01*
X184271814Y-114167814D01*
X184373271Y-114084552D01*
X184409009Y-114055222D01*
X184565534Y-113971557D01*
X184735373Y-113920037D01*
X184801558Y-113913518D01*
X184867740Y-113907000D01*
X184956260Y-113907000D01*
X185022442Y-113913518D01*
X185022442Y-113913518D01*
G37*
G36*
X182482442Y-113913518D02*
G01*
X182548627Y-113920037D01*
X182718466Y-113971557D01*
X182874991Y-114055222D01*
X182910729Y-114084552D01*
X183012186Y-114167814D01*
X183095448Y-114269271D01*
X183124778Y-114305009D01*
X183208443Y-114461534D01*
X183259963Y-114631373D01*
X183277359Y-114808000D01*
X183259963Y-114984627D01*
X183208443Y-115154466D01*
X183124778Y-115310991D01*
X183095448Y-115346729D01*
X183012186Y-115448186D01*
X182910729Y-115531448D01*
X182874991Y-115560778D01*
X182718466Y-115644443D01*
X182548627Y-115695963D01*
X182482442Y-115702482D01*
X182416260Y-115709000D01*
X182327740Y-115709000D01*
X182261558Y-115702482D01*
X182195373Y-115695963D01*
X182025534Y-115644443D01*
X181869009Y-115560778D01*
X181833271Y-115531448D01*
X181731814Y-115448186D01*
X181648552Y-115346729D01*
X181619222Y-115310991D01*
X181535557Y-115154466D01*
X181484037Y-114984627D01*
X181466641Y-114808000D01*
X181484037Y-114631373D01*
X181535557Y-114461534D01*
X181619222Y-114305009D01*
X181648552Y-114269271D01*
X181731814Y-114167814D01*
X181833271Y-114084552D01*
X181869009Y-114055222D01*
X182025534Y-113971557D01*
X182195373Y-113920037D01*
X182261558Y-113913518D01*
X182327740Y-113907000D01*
X182416260Y-113907000D01*
X182482442Y-113913518D01*
X182482442Y-113913518D01*
G37*
G36*
X179942442Y-113913518D02*
G01*
X180008627Y-113920037D01*
X180178466Y-113971557D01*
X180334991Y-114055222D01*
X180370729Y-114084552D01*
X180472186Y-114167814D01*
X180555448Y-114269271D01*
X180584778Y-114305009D01*
X180668443Y-114461534D01*
X180719963Y-114631373D01*
X180737359Y-114808000D01*
X180719963Y-114984627D01*
X180668443Y-115154466D01*
X180584778Y-115310991D01*
X180555448Y-115346729D01*
X180472186Y-115448186D01*
X180370729Y-115531448D01*
X180334991Y-115560778D01*
X180178466Y-115644443D01*
X180008627Y-115695963D01*
X179942442Y-115702482D01*
X179876260Y-115709000D01*
X179787740Y-115709000D01*
X179721558Y-115702482D01*
X179655373Y-115695963D01*
X179485534Y-115644443D01*
X179329009Y-115560778D01*
X179293271Y-115531448D01*
X179191814Y-115448186D01*
X179108552Y-115346729D01*
X179079222Y-115310991D01*
X178995557Y-115154466D01*
X178944037Y-114984627D01*
X178926641Y-114808000D01*
X178944037Y-114631373D01*
X178995557Y-114461534D01*
X179079222Y-114305009D01*
X179108552Y-114269271D01*
X179191814Y-114167814D01*
X179293271Y-114084552D01*
X179329009Y-114055222D01*
X179485534Y-113971557D01*
X179655373Y-113920037D01*
X179721558Y-113913518D01*
X179787740Y-113907000D01*
X179876260Y-113907000D01*
X179942442Y-113913518D01*
X179942442Y-113913518D01*
G37*
G36*
X168033000Y-115709000D02*
G01*
X166231000Y-115709000D01*
X166231000Y-113907000D01*
X168033000Y-113907000D01*
X168033000Y-115709000D01*
X168033000Y-115709000D01*
G37*
G36*
X169782442Y-113913518D02*
G01*
X169848627Y-113920037D01*
X170018466Y-113971557D01*
X170174991Y-114055222D01*
X170210729Y-114084552D01*
X170312186Y-114167814D01*
X170395448Y-114269271D01*
X170424778Y-114305009D01*
X170508443Y-114461534D01*
X170559963Y-114631373D01*
X170577359Y-114808000D01*
X170559963Y-114984627D01*
X170508443Y-115154466D01*
X170424778Y-115310991D01*
X170395448Y-115346729D01*
X170312186Y-115448186D01*
X170210729Y-115531448D01*
X170174991Y-115560778D01*
X170018466Y-115644443D01*
X169848627Y-115695963D01*
X169782442Y-115702482D01*
X169716260Y-115709000D01*
X169627740Y-115709000D01*
X169561558Y-115702482D01*
X169495373Y-115695963D01*
X169325534Y-115644443D01*
X169169009Y-115560778D01*
X169133271Y-115531448D01*
X169031814Y-115448186D01*
X168948552Y-115346729D01*
X168919222Y-115310991D01*
X168835557Y-115154466D01*
X168784037Y-114984627D01*
X168766641Y-114808000D01*
X168784037Y-114631373D01*
X168835557Y-114461534D01*
X168919222Y-114305009D01*
X168948552Y-114269271D01*
X169031814Y-114167814D01*
X169133271Y-114084552D01*
X169169009Y-114055222D01*
X169325534Y-113971557D01*
X169495373Y-113920037D01*
X169561558Y-113913518D01*
X169627740Y-113907000D01*
X169716260Y-113907000D01*
X169782442Y-113913518D01*
X169782442Y-113913518D01*
G37*
G36*
X172322442Y-113913518D02*
G01*
X172388627Y-113920037D01*
X172558466Y-113971557D01*
X172714991Y-114055222D01*
X172750729Y-114084552D01*
X172852186Y-114167814D01*
X172935448Y-114269271D01*
X172964778Y-114305009D01*
X173048443Y-114461534D01*
X173099963Y-114631373D01*
X173117359Y-114808000D01*
X173099963Y-114984627D01*
X173048443Y-115154466D01*
X172964778Y-115310991D01*
X172935448Y-115346729D01*
X172852186Y-115448186D01*
X172750729Y-115531448D01*
X172714991Y-115560778D01*
X172558466Y-115644443D01*
X172388627Y-115695963D01*
X172322442Y-115702482D01*
X172256260Y-115709000D01*
X172167740Y-115709000D01*
X172101558Y-115702482D01*
X172035373Y-115695963D01*
X171865534Y-115644443D01*
X171709009Y-115560778D01*
X171673271Y-115531448D01*
X171571814Y-115448186D01*
X171488552Y-115346729D01*
X171459222Y-115310991D01*
X171375557Y-115154466D01*
X171324037Y-114984627D01*
X171306641Y-114808000D01*
X171324037Y-114631373D01*
X171375557Y-114461534D01*
X171459222Y-114305009D01*
X171488552Y-114269271D01*
X171571814Y-114167814D01*
X171673271Y-114084552D01*
X171709009Y-114055222D01*
X171865534Y-113971557D01*
X172035373Y-113920037D01*
X172101558Y-113913518D01*
X172167740Y-113907000D01*
X172256260Y-113907000D01*
X172322442Y-113913518D01*
X172322442Y-113913518D01*
G37*
G36*
X174862442Y-113913518D02*
G01*
X174928627Y-113920037D01*
X175098466Y-113971557D01*
X175254991Y-114055222D01*
X175290729Y-114084552D01*
X175392186Y-114167814D01*
X175475448Y-114269271D01*
X175504778Y-114305009D01*
X175588443Y-114461534D01*
X175639963Y-114631373D01*
X175657359Y-114808000D01*
X175639963Y-114984627D01*
X175588443Y-115154466D01*
X175504778Y-115310991D01*
X175475448Y-115346729D01*
X175392186Y-115448186D01*
X175290729Y-115531448D01*
X175254991Y-115560778D01*
X175098466Y-115644443D01*
X174928627Y-115695963D01*
X174862442Y-115702482D01*
X174796260Y-115709000D01*
X174707740Y-115709000D01*
X174641558Y-115702482D01*
X174575373Y-115695963D01*
X174405534Y-115644443D01*
X174249009Y-115560778D01*
X174213271Y-115531448D01*
X174111814Y-115448186D01*
X174028552Y-115346729D01*
X173999222Y-115310991D01*
X173915557Y-115154466D01*
X173864037Y-114984627D01*
X173846641Y-114808000D01*
X173864037Y-114631373D01*
X173915557Y-114461534D01*
X173999222Y-114305009D01*
X174028552Y-114269271D01*
X174111814Y-114167814D01*
X174213271Y-114084552D01*
X174249009Y-114055222D01*
X174405534Y-113971557D01*
X174575373Y-113920037D01*
X174641558Y-113913518D01*
X174707740Y-113907000D01*
X174796260Y-113907000D01*
X174862442Y-113913518D01*
X174862442Y-113913518D01*
G37*
G36*
X195466604Y-109669947D02*
G01*
X195503144Y-109681032D01*
X195536821Y-109699033D01*
X195566341Y-109723259D01*
X195590567Y-109752779D01*
X195608568Y-109786456D01*
X195619653Y-109822996D01*
X195624000Y-109867138D01*
X195624000Y-111316062D01*
X195619653Y-111360204D01*
X195608568Y-111396744D01*
X195590567Y-111430421D01*
X195566341Y-111459941D01*
X195536821Y-111484167D01*
X195503144Y-111502168D01*
X195466604Y-111513253D01*
X195422462Y-111517600D01*
X194473538Y-111517600D01*
X194429396Y-111513253D01*
X194392856Y-111502168D01*
X194359179Y-111484167D01*
X194329659Y-111459941D01*
X194305433Y-111430421D01*
X194287432Y-111396744D01*
X194276347Y-111360204D01*
X194272000Y-111316062D01*
X194272000Y-109867138D01*
X194276347Y-109822996D01*
X194287432Y-109786456D01*
X194305433Y-109752779D01*
X194329659Y-109723259D01*
X194359179Y-109699033D01*
X194392856Y-109681032D01*
X194429396Y-109669947D01*
X194473538Y-109665600D01*
X195422462Y-109665600D01*
X195466604Y-109669947D01*
X195466604Y-109669947D01*
G37*
G36*
X192666604Y-109669947D02*
G01*
X192703144Y-109681032D01*
X192736821Y-109699033D01*
X192766341Y-109723259D01*
X192790567Y-109752779D01*
X192808568Y-109786456D01*
X192819653Y-109822996D01*
X192824000Y-109867138D01*
X192824000Y-111316062D01*
X192819653Y-111360204D01*
X192808568Y-111396744D01*
X192790567Y-111430421D01*
X192766341Y-111459941D01*
X192736821Y-111484167D01*
X192703144Y-111502168D01*
X192666604Y-111513253D01*
X192622462Y-111517600D01*
X191673538Y-111517600D01*
X191629396Y-111513253D01*
X191592856Y-111502168D01*
X191559179Y-111484167D01*
X191529659Y-111459941D01*
X191505433Y-111430421D01*
X191487432Y-111396744D01*
X191476347Y-111360204D01*
X191472000Y-111316062D01*
X191472000Y-109867138D01*
X191476347Y-109822996D01*
X191487432Y-109786456D01*
X191505433Y-109752779D01*
X191529659Y-109723259D01*
X191559179Y-109699033D01*
X191592856Y-109681032D01*
X191629396Y-109669947D01*
X191673538Y-109665600D01*
X192622462Y-109665600D01*
X192666604Y-109669947D01*
X192666604Y-109669947D01*
G37*
G36*
X200593000Y-111406600D02*
G01*
X198491000Y-111406600D01*
X198491000Y-109804600D01*
X200593000Y-109804600D01*
X200593000Y-111406600D01*
X200593000Y-111406600D01*
G37*
G36*
X206893000Y-110256600D02*
G01*
X204791000Y-110256600D01*
X204791000Y-106354600D01*
X206893000Y-106354600D01*
X206893000Y-110256600D01*
X206893000Y-110256600D01*
G37*
G36*
X200593000Y-109106600D02*
G01*
X198491000Y-109106600D01*
X198491000Y-107504600D01*
X200593000Y-107504600D01*
X200593000Y-109106600D01*
X200593000Y-109106600D01*
G37*
G36*
X172550855Y-107117740D02*
G01*
X172614618Y-107124020D01*
X172705404Y-107151560D01*
X172737336Y-107161246D01*
X172850425Y-107221694D01*
X172949554Y-107303046D01*
X173030906Y-107402175D01*
X173091354Y-107515264D01*
X173091355Y-107515268D01*
X173128580Y-107637982D01*
X173141149Y-107765600D01*
X173128580Y-107893218D01*
X173101040Y-107984004D01*
X173091354Y-108015936D01*
X173030906Y-108129025D01*
X172949554Y-108228154D01*
X172850425Y-108309506D01*
X172737336Y-108369954D01*
X172705404Y-108379640D01*
X172614618Y-108407180D01*
X172550855Y-108413460D01*
X172518974Y-108416600D01*
X171905026Y-108416600D01*
X171873145Y-108413460D01*
X171809382Y-108407180D01*
X171718596Y-108379640D01*
X171686664Y-108369954D01*
X171573575Y-108309506D01*
X171474446Y-108228154D01*
X171393094Y-108129025D01*
X171332646Y-108015936D01*
X171322960Y-107984004D01*
X171295420Y-107893218D01*
X171282851Y-107765600D01*
X171295420Y-107637982D01*
X171332645Y-107515268D01*
X171332646Y-107515264D01*
X171393094Y-107402175D01*
X171474446Y-107303046D01*
X171573575Y-107221694D01*
X171686664Y-107161246D01*
X171718596Y-107151560D01*
X171809382Y-107124020D01*
X171873145Y-107117740D01*
X171905026Y-107114600D01*
X172518974Y-107114600D01*
X172550855Y-107117740D01*
X172550855Y-107117740D01*
G37*
G36*
X200593000Y-106806600D02*
G01*
X198491000Y-106806600D01*
X198491000Y-105204600D01*
X200593000Y-105204600D01*
X200593000Y-106806600D01*
X200593000Y-106806600D01*
G37*
G36*
X172978242Y-105119004D02*
G01*
X173015337Y-105130257D01*
X173049515Y-105148525D01*
X173079481Y-105173119D01*
X173104075Y-105203085D01*
X173122343Y-105237263D01*
X173133596Y-105274358D01*
X173138000Y-105319074D01*
X173138000Y-106212126D01*
X173133596Y-106256842D01*
X173122343Y-106293937D01*
X173104075Y-106328115D01*
X173079481Y-106358081D01*
X173049515Y-106382675D01*
X173015337Y-106400943D01*
X172978242Y-106412196D01*
X172933526Y-106416600D01*
X171490474Y-106416600D01*
X171445758Y-106412196D01*
X171408663Y-106400943D01*
X171374485Y-106382675D01*
X171344519Y-106358081D01*
X171319925Y-106328115D01*
X171301657Y-106293937D01*
X171290404Y-106256842D01*
X171286000Y-106212126D01*
X171286000Y-105319074D01*
X171290404Y-105274358D01*
X171301657Y-105237263D01*
X171319925Y-105203085D01*
X171344519Y-105173119D01*
X171374485Y-105148525D01*
X171408663Y-105130257D01*
X171445758Y-105119004D01*
X171490474Y-105114600D01*
X172933526Y-105114600D01*
X172978242Y-105119004D01*
X172978242Y-105119004D01*
G37*
G36*
X182252604Y-100779947D02*
G01*
X182289144Y-100791032D01*
X182322821Y-100809033D01*
X182352341Y-100833259D01*
X182376567Y-100862779D01*
X182394568Y-100896456D01*
X182405653Y-100932996D01*
X182410000Y-100977138D01*
X182410000Y-102426062D01*
X182405653Y-102470204D01*
X182394568Y-102506744D01*
X182376567Y-102540421D01*
X182352341Y-102569941D01*
X182322821Y-102594167D01*
X182289144Y-102612168D01*
X182252604Y-102623253D01*
X182208462Y-102627600D01*
X181259538Y-102627600D01*
X181215396Y-102623253D01*
X181178856Y-102612168D01*
X181145179Y-102594167D01*
X181115659Y-102569941D01*
X181091433Y-102540421D01*
X181073432Y-102506744D01*
X181062347Y-102470204D01*
X181058000Y-102426062D01*
X181058000Y-100977138D01*
X181062347Y-100932996D01*
X181073432Y-100896456D01*
X181091433Y-100862779D01*
X181115659Y-100833259D01*
X181145179Y-100809033D01*
X181178856Y-100791032D01*
X181215396Y-100779947D01*
X181259538Y-100775600D01*
X182208462Y-100775600D01*
X182252604Y-100779947D01*
X182252604Y-100779947D01*
G37*
G36*
X185052604Y-100779947D02*
G01*
X185089144Y-100791032D01*
X185122821Y-100809033D01*
X185152341Y-100833259D01*
X185176567Y-100862779D01*
X185194568Y-100896456D01*
X185205653Y-100932996D01*
X185210000Y-100977138D01*
X185210000Y-102426062D01*
X185205653Y-102470204D01*
X185194568Y-102506744D01*
X185176567Y-102540421D01*
X185152341Y-102569941D01*
X185122821Y-102594167D01*
X185089144Y-102612168D01*
X185052604Y-102623253D01*
X185008462Y-102627600D01*
X184059538Y-102627600D01*
X184015396Y-102623253D01*
X183978856Y-102612168D01*
X183945179Y-102594167D01*
X183915659Y-102569941D01*
X183891433Y-102540421D01*
X183873432Y-102506744D01*
X183862347Y-102470204D01*
X183858000Y-102426062D01*
X183858000Y-100977138D01*
X183862347Y-100932996D01*
X183873432Y-100896456D01*
X183891433Y-100862779D01*
X183915659Y-100833259D01*
X183945179Y-100809033D01*
X183978856Y-100791032D01*
X184015396Y-100779947D01*
X184059538Y-100775600D01*
X185008462Y-100775600D01*
X185052604Y-100779947D01*
X185052604Y-100779947D01*
G37*
G36*
X165718443Y-90901119D02*
G01*
X165784627Y-90907637D01*
X165954466Y-90959157D01*
X166110991Y-91042822D01*
X166146729Y-91072152D01*
X166248186Y-91155414D01*
X166331448Y-91256871D01*
X166360778Y-91292609D01*
X166444443Y-91449134D01*
X166495963Y-91618973D01*
X166513359Y-91795600D01*
X166495963Y-91972227D01*
X166444443Y-92142066D01*
X166360778Y-92298591D01*
X166331448Y-92334329D01*
X166248186Y-92435786D01*
X166146729Y-92519048D01*
X166110991Y-92548378D01*
X165954466Y-92632043D01*
X165784627Y-92683563D01*
X165718442Y-92690082D01*
X165652260Y-92696600D01*
X165563740Y-92696600D01*
X165497558Y-92690082D01*
X165431373Y-92683563D01*
X165261534Y-92632043D01*
X165105009Y-92548378D01*
X165069271Y-92519048D01*
X164967814Y-92435786D01*
X164884552Y-92334329D01*
X164855222Y-92298591D01*
X164771557Y-92142066D01*
X164720037Y-91972227D01*
X164702641Y-91795600D01*
X164720037Y-91618973D01*
X164771557Y-91449134D01*
X164855222Y-91292609D01*
X164884552Y-91256871D01*
X164967814Y-91155414D01*
X165069271Y-91072152D01*
X165105009Y-91042822D01*
X165261534Y-90959157D01*
X165431373Y-90907637D01*
X165497557Y-90901119D01*
X165563740Y-90894600D01*
X165652260Y-90894600D01*
X165718443Y-90901119D01*
X165718443Y-90901119D01*
G37*
G36*
X165718442Y-88361118D02*
G01*
X165784627Y-88367637D01*
X165954466Y-88419157D01*
X166110991Y-88502822D01*
X166146729Y-88532152D01*
X166248186Y-88615414D01*
X166331448Y-88716871D01*
X166360778Y-88752609D01*
X166444443Y-88909134D01*
X166495963Y-89078973D01*
X166513359Y-89255600D01*
X166495963Y-89432227D01*
X166444443Y-89602066D01*
X166360778Y-89758591D01*
X166331448Y-89794329D01*
X166248186Y-89895786D01*
X166146729Y-89979048D01*
X166110991Y-90008378D01*
X165954466Y-90092043D01*
X165784627Y-90143563D01*
X165718442Y-90150082D01*
X165652260Y-90156600D01*
X165563740Y-90156600D01*
X165497558Y-90150082D01*
X165431373Y-90143563D01*
X165261534Y-90092043D01*
X165105009Y-90008378D01*
X165069271Y-89979048D01*
X164967814Y-89895786D01*
X164884552Y-89794329D01*
X164855222Y-89758591D01*
X164771557Y-89602066D01*
X164720037Y-89432227D01*
X164702641Y-89255600D01*
X164720037Y-89078973D01*
X164771557Y-88909134D01*
X164855222Y-88752609D01*
X164884552Y-88716871D01*
X164967814Y-88615414D01*
X165069271Y-88532152D01*
X165105009Y-88502822D01*
X165261534Y-88419157D01*
X165431373Y-88367637D01*
X165497558Y-88361118D01*
X165563740Y-88354600D01*
X165652260Y-88354600D01*
X165718442Y-88361118D01*
X165718442Y-88361118D01*
G37*
G36*
X165718442Y-85821118D02*
G01*
X165784627Y-85827637D01*
X165954466Y-85879157D01*
X166110991Y-85962822D01*
X166146729Y-85992152D01*
X166248186Y-86075414D01*
X166331448Y-86176871D01*
X166360778Y-86212609D01*
X166444443Y-86369134D01*
X166495963Y-86538973D01*
X166513359Y-86715600D01*
X166495963Y-86892227D01*
X166444443Y-87062066D01*
X166360778Y-87218591D01*
X166331448Y-87254329D01*
X166248186Y-87355786D01*
X166146729Y-87439048D01*
X166110991Y-87468378D01*
X165954466Y-87552043D01*
X165784627Y-87603563D01*
X165718443Y-87610081D01*
X165652260Y-87616600D01*
X165563740Y-87616600D01*
X165497557Y-87610081D01*
X165431373Y-87603563D01*
X165261534Y-87552043D01*
X165105009Y-87468378D01*
X165069271Y-87439048D01*
X164967814Y-87355786D01*
X164884552Y-87254329D01*
X164855222Y-87218591D01*
X164771557Y-87062066D01*
X164720037Y-86892227D01*
X164702641Y-86715600D01*
X164720037Y-86538973D01*
X164771557Y-86369134D01*
X164855222Y-86212609D01*
X164884552Y-86176871D01*
X164967814Y-86075414D01*
X165069271Y-85992152D01*
X165105009Y-85962822D01*
X165261534Y-85879157D01*
X165431373Y-85827637D01*
X165497558Y-85821118D01*
X165563740Y-85814600D01*
X165652260Y-85814600D01*
X165718442Y-85821118D01*
X165718442Y-85821118D01*
G37*
G36*
X165718443Y-83281119D02*
G01*
X165784627Y-83287637D01*
X165954466Y-83339157D01*
X166110991Y-83422822D01*
X166146729Y-83452152D01*
X166248186Y-83535414D01*
X166331448Y-83636871D01*
X166360778Y-83672609D01*
X166444443Y-83829134D01*
X166495963Y-83998973D01*
X166513359Y-84175600D01*
X166495963Y-84352227D01*
X166444443Y-84522066D01*
X166360778Y-84678591D01*
X166331448Y-84714329D01*
X166248186Y-84815786D01*
X166146729Y-84899048D01*
X166110991Y-84928378D01*
X165954466Y-85012043D01*
X165784627Y-85063563D01*
X165718442Y-85070082D01*
X165652260Y-85076600D01*
X165563740Y-85076600D01*
X165497558Y-85070082D01*
X165431373Y-85063563D01*
X165261534Y-85012043D01*
X165105009Y-84928378D01*
X165069271Y-84899048D01*
X164967814Y-84815786D01*
X164884552Y-84714329D01*
X164855222Y-84678591D01*
X164771557Y-84522066D01*
X164720037Y-84352227D01*
X164702641Y-84175600D01*
X164720037Y-83998973D01*
X164771557Y-83829134D01*
X164855222Y-83672609D01*
X164884552Y-83636871D01*
X164967814Y-83535414D01*
X165069271Y-83452152D01*
X165105009Y-83422822D01*
X165261534Y-83339157D01*
X165431373Y-83287637D01*
X165497557Y-83281119D01*
X165563740Y-83274600D01*
X165652260Y-83274600D01*
X165718443Y-83281119D01*
X165718443Y-83281119D01*
G37*
G36*
X165718442Y-80741118D02*
G01*
X165784627Y-80747637D01*
X165954466Y-80799157D01*
X166110991Y-80882822D01*
X166146729Y-80912152D01*
X166248186Y-80995414D01*
X166331448Y-81096871D01*
X166360778Y-81132609D01*
X166444443Y-81289134D01*
X166495963Y-81458973D01*
X166513359Y-81635600D01*
X166495963Y-81812227D01*
X166444443Y-81982066D01*
X166360778Y-82138591D01*
X166331448Y-82174329D01*
X166248186Y-82275786D01*
X166146729Y-82359048D01*
X166110991Y-82388378D01*
X165954466Y-82472043D01*
X165784627Y-82523563D01*
X165718443Y-82530081D01*
X165652260Y-82536600D01*
X165563740Y-82536600D01*
X165497557Y-82530081D01*
X165431373Y-82523563D01*
X165261534Y-82472043D01*
X165105009Y-82388378D01*
X165069271Y-82359048D01*
X164967814Y-82275786D01*
X164884552Y-82174329D01*
X164855222Y-82138591D01*
X164771557Y-81982066D01*
X164720037Y-81812227D01*
X164702641Y-81635600D01*
X164720037Y-81458973D01*
X164771557Y-81289134D01*
X164855222Y-81132609D01*
X164884552Y-81096871D01*
X164967814Y-80995414D01*
X165069271Y-80912152D01*
X165105009Y-80882822D01*
X165261534Y-80799157D01*
X165431373Y-80747637D01*
X165497558Y-80741118D01*
X165563740Y-80734600D01*
X165652260Y-80734600D01*
X165718442Y-80741118D01*
X165718442Y-80741118D01*
G37*
G36*
X165718442Y-78201118D02*
G01*
X165784627Y-78207637D01*
X165954466Y-78259157D01*
X166110991Y-78342822D01*
X166146729Y-78372152D01*
X166248186Y-78455414D01*
X166331448Y-78556871D01*
X166360778Y-78592609D01*
X166444443Y-78749134D01*
X166495963Y-78918973D01*
X166513359Y-79095600D01*
X166495963Y-79272227D01*
X166444443Y-79442066D01*
X166360778Y-79598591D01*
X166331448Y-79634329D01*
X166248186Y-79735786D01*
X166146729Y-79819048D01*
X166110991Y-79848378D01*
X165954466Y-79932043D01*
X165784627Y-79983563D01*
X165718442Y-79990082D01*
X165652260Y-79996600D01*
X165563740Y-79996600D01*
X165497558Y-79990082D01*
X165431373Y-79983563D01*
X165261534Y-79932043D01*
X165105009Y-79848378D01*
X165069271Y-79819048D01*
X164967814Y-79735786D01*
X164884552Y-79634329D01*
X164855222Y-79598591D01*
X164771557Y-79442066D01*
X164720037Y-79272227D01*
X164702641Y-79095600D01*
X164720037Y-78918973D01*
X164771557Y-78749134D01*
X164855222Y-78592609D01*
X164884552Y-78556871D01*
X164967814Y-78455414D01*
X165069271Y-78372152D01*
X165105009Y-78342822D01*
X165261534Y-78259157D01*
X165431373Y-78207637D01*
X165497558Y-78201118D01*
X165563740Y-78194600D01*
X165652260Y-78194600D01*
X165718442Y-78201118D01*
X165718442Y-78201118D01*
G37*
G36*
X165718443Y-75661119D02*
G01*
X165784627Y-75667637D01*
X165954466Y-75719157D01*
X166110991Y-75802822D01*
X166146729Y-75832152D01*
X166248186Y-75915414D01*
X166331448Y-76016871D01*
X166360778Y-76052609D01*
X166444443Y-76209134D01*
X166495963Y-76378973D01*
X166513359Y-76555600D01*
X166495963Y-76732227D01*
X166444443Y-76902066D01*
X166360778Y-77058591D01*
X166331448Y-77094329D01*
X166248186Y-77195786D01*
X166146729Y-77279048D01*
X166110991Y-77308378D01*
X165954466Y-77392043D01*
X165784627Y-77443563D01*
X165718443Y-77450081D01*
X165652260Y-77456600D01*
X165563740Y-77456600D01*
X165497557Y-77450081D01*
X165431373Y-77443563D01*
X165261534Y-77392043D01*
X165105009Y-77308378D01*
X165069271Y-77279048D01*
X164967814Y-77195786D01*
X164884552Y-77094329D01*
X164855222Y-77058591D01*
X164771557Y-76902066D01*
X164720037Y-76732227D01*
X164702641Y-76555600D01*
X164720037Y-76378973D01*
X164771557Y-76209134D01*
X164855222Y-76052609D01*
X164884552Y-76016871D01*
X164967814Y-75915414D01*
X165069271Y-75832152D01*
X165105009Y-75802822D01*
X165261534Y-75719157D01*
X165431373Y-75667637D01*
X165497557Y-75661119D01*
X165563740Y-75654600D01*
X165652260Y-75654600D01*
X165718443Y-75661119D01*
X165718443Y-75661119D01*
G37*
G36*
X166509000Y-74916600D02*
G01*
X164707000Y-74916600D01*
X164707000Y-73114600D01*
X166509000Y-73114600D01*
X166509000Y-74916600D01*
X166509000Y-74916600D01*
G37*
G36*
X189623000Y-67804600D02*
G01*
X187821000Y-67804600D01*
X187821000Y-66002600D01*
X189623000Y-66002600D01*
X189623000Y-67804600D01*
X189623000Y-67804600D01*
G37*
G36*
X209152443Y-66009119D02*
G01*
X209218627Y-66015637D01*
X209388466Y-66067157D01*
X209544991Y-66150822D01*
X209580729Y-66180152D01*
X209682186Y-66263414D01*
X209765448Y-66364871D01*
X209794778Y-66400609D01*
X209878443Y-66557134D01*
X209929963Y-66726973D01*
X209947359Y-66903600D01*
X209929963Y-67080227D01*
X209878443Y-67250066D01*
X209794778Y-67406591D01*
X209765448Y-67442329D01*
X209682186Y-67543786D01*
X209580729Y-67627048D01*
X209544991Y-67656378D01*
X209388466Y-67740043D01*
X209218627Y-67791563D01*
X209152443Y-67798081D01*
X209086260Y-67804600D01*
X208997740Y-67804600D01*
X208931557Y-67798081D01*
X208865373Y-67791563D01*
X208695534Y-67740043D01*
X208539009Y-67656378D01*
X208503271Y-67627048D01*
X208401814Y-67543786D01*
X208318552Y-67442329D01*
X208289222Y-67406591D01*
X208205557Y-67250066D01*
X208154037Y-67080227D01*
X208136641Y-66903600D01*
X208154037Y-66726973D01*
X208205557Y-66557134D01*
X208289222Y-66400609D01*
X208318552Y-66364871D01*
X208401814Y-66263414D01*
X208503271Y-66180152D01*
X208539009Y-66150822D01*
X208695534Y-66067157D01*
X208865373Y-66015637D01*
X208931557Y-66009119D01*
X208997740Y-66002600D01*
X209086260Y-66002600D01*
X209152443Y-66009119D01*
X209152443Y-66009119D01*
G37*
G36*
X168033000Y-67804600D02*
G01*
X166231000Y-67804600D01*
X166231000Y-66002600D01*
X168033000Y-66002600D01*
X168033000Y-67804600D01*
X168033000Y-67804600D01*
G37*
G36*
X169782443Y-66009119D02*
G01*
X169848627Y-66015637D01*
X170018466Y-66067157D01*
X170174991Y-66150822D01*
X170210729Y-66180152D01*
X170312186Y-66263414D01*
X170395448Y-66364871D01*
X170424778Y-66400609D01*
X170508443Y-66557134D01*
X170559963Y-66726973D01*
X170577359Y-66903600D01*
X170559963Y-67080227D01*
X170508443Y-67250066D01*
X170424778Y-67406591D01*
X170395448Y-67442329D01*
X170312186Y-67543786D01*
X170210729Y-67627048D01*
X170174991Y-67656378D01*
X170018466Y-67740043D01*
X169848627Y-67791563D01*
X169782443Y-67798081D01*
X169716260Y-67804600D01*
X169627740Y-67804600D01*
X169561557Y-67798081D01*
X169495373Y-67791563D01*
X169325534Y-67740043D01*
X169169009Y-67656378D01*
X169133271Y-67627048D01*
X169031814Y-67543786D01*
X168948552Y-67442329D01*
X168919222Y-67406591D01*
X168835557Y-67250066D01*
X168784037Y-67080227D01*
X168766641Y-66903600D01*
X168784037Y-66726973D01*
X168835557Y-66557134D01*
X168919222Y-66400609D01*
X168948552Y-66364871D01*
X169031814Y-66263414D01*
X169133271Y-66180152D01*
X169169009Y-66150822D01*
X169325534Y-66067157D01*
X169495373Y-66015637D01*
X169561557Y-66009119D01*
X169627740Y-66002600D01*
X169716260Y-66002600D01*
X169782443Y-66009119D01*
X169782443Y-66009119D01*
G37*
G36*
X172322443Y-66009119D02*
G01*
X172388627Y-66015637D01*
X172558466Y-66067157D01*
X172714991Y-66150822D01*
X172750729Y-66180152D01*
X172852186Y-66263414D01*
X172935448Y-66364871D01*
X172964778Y-66400609D01*
X173048443Y-66557134D01*
X173099963Y-66726973D01*
X173117359Y-66903600D01*
X173099963Y-67080227D01*
X173048443Y-67250066D01*
X172964778Y-67406591D01*
X172935448Y-67442329D01*
X172852186Y-67543786D01*
X172750729Y-67627048D01*
X172714991Y-67656378D01*
X172558466Y-67740043D01*
X172388627Y-67791563D01*
X172322443Y-67798081D01*
X172256260Y-67804600D01*
X172167740Y-67804600D01*
X172101557Y-67798081D01*
X172035373Y-67791563D01*
X171865534Y-67740043D01*
X171709009Y-67656378D01*
X171673271Y-67627048D01*
X171571814Y-67543786D01*
X171488552Y-67442329D01*
X171459222Y-67406591D01*
X171375557Y-67250066D01*
X171324037Y-67080227D01*
X171306641Y-66903600D01*
X171324037Y-66726973D01*
X171375557Y-66557134D01*
X171459222Y-66400609D01*
X171488552Y-66364871D01*
X171571814Y-66263414D01*
X171673271Y-66180152D01*
X171709009Y-66150822D01*
X171865534Y-66067157D01*
X172035373Y-66015637D01*
X172101557Y-66009119D01*
X172167740Y-66002600D01*
X172256260Y-66002600D01*
X172322443Y-66009119D01*
X172322443Y-66009119D01*
G37*
G36*
X174862443Y-66009119D02*
G01*
X174928627Y-66015637D01*
X175098466Y-66067157D01*
X175254991Y-66150822D01*
X175290729Y-66180152D01*
X175392186Y-66263414D01*
X175475448Y-66364871D01*
X175504778Y-66400609D01*
X175588443Y-66557134D01*
X175639963Y-66726973D01*
X175657359Y-66903600D01*
X175639963Y-67080227D01*
X175588443Y-67250066D01*
X175504778Y-67406591D01*
X175475448Y-67442329D01*
X175392186Y-67543786D01*
X175290729Y-67627048D01*
X175254991Y-67656378D01*
X175098466Y-67740043D01*
X174928627Y-67791563D01*
X174862443Y-67798081D01*
X174796260Y-67804600D01*
X174707740Y-67804600D01*
X174641557Y-67798081D01*
X174575373Y-67791563D01*
X174405534Y-67740043D01*
X174249009Y-67656378D01*
X174213271Y-67627048D01*
X174111814Y-67543786D01*
X174028552Y-67442329D01*
X173999222Y-67406591D01*
X173915557Y-67250066D01*
X173864037Y-67080227D01*
X173846641Y-66903600D01*
X173864037Y-66726973D01*
X173915557Y-66557134D01*
X173999222Y-66400609D01*
X174028552Y-66364871D01*
X174111814Y-66263414D01*
X174213271Y-66180152D01*
X174249009Y-66150822D01*
X174405534Y-66067157D01*
X174575373Y-66015637D01*
X174641557Y-66009119D01*
X174707740Y-66002600D01*
X174796260Y-66002600D01*
X174862443Y-66009119D01*
X174862443Y-66009119D01*
G37*
G36*
X177402443Y-66009119D02*
G01*
X177468627Y-66015637D01*
X177638466Y-66067157D01*
X177794991Y-66150822D01*
X177830729Y-66180152D01*
X177932186Y-66263414D01*
X178015448Y-66364871D01*
X178044778Y-66400609D01*
X178128443Y-66557134D01*
X178179963Y-66726973D01*
X178197359Y-66903600D01*
X178179963Y-67080227D01*
X178128443Y-67250066D01*
X178044778Y-67406591D01*
X178015448Y-67442329D01*
X177932186Y-67543786D01*
X177830729Y-67627048D01*
X177794991Y-67656378D01*
X177638466Y-67740043D01*
X177468627Y-67791563D01*
X177402443Y-67798081D01*
X177336260Y-67804600D01*
X177247740Y-67804600D01*
X177181557Y-67798081D01*
X177115373Y-67791563D01*
X176945534Y-67740043D01*
X176789009Y-67656378D01*
X176753271Y-67627048D01*
X176651814Y-67543786D01*
X176568552Y-67442329D01*
X176539222Y-67406591D01*
X176455557Y-67250066D01*
X176404037Y-67080227D01*
X176386641Y-66903600D01*
X176404037Y-66726973D01*
X176455557Y-66557134D01*
X176539222Y-66400609D01*
X176568552Y-66364871D01*
X176651814Y-66263414D01*
X176753271Y-66180152D01*
X176789009Y-66150822D01*
X176945534Y-66067157D01*
X177115373Y-66015637D01*
X177181557Y-66009119D01*
X177247740Y-66002600D01*
X177336260Y-66002600D01*
X177402443Y-66009119D01*
X177402443Y-66009119D01*
G37*
G36*
X179942443Y-66009119D02*
G01*
X180008627Y-66015637D01*
X180178466Y-66067157D01*
X180334991Y-66150822D01*
X180370729Y-66180152D01*
X180472186Y-66263414D01*
X180555448Y-66364871D01*
X180584778Y-66400609D01*
X180668443Y-66557134D01*
X180719963Y-66726973D01*
X180737359Y-66903600D01*
X180719963Y-67080227D01*
X180668443Y-67250066D01*
X180584778Y-67406591D01*
X180555448Y-67442329D01*
X180472186Y-67543786D01*
X180370729Y-67627048D01*
X180334991Y-67656378D01*
X180178466Y-67740043D01*
X180008627Y-67791563D01*
X179942443Y-67798081D01*
X179876260Y-67804600D01*
X179787740Y-67804600D01*
X179721557Y-67798081D01*
X179655373Y-67791563D01*
X179485534Y-67740043D01*
X179329009Y-67656378D01*
X179293271Y-67627048D01*
X179191814Y-67543786D01*
X179108552Y-67442329D01*
X179079222Y-67406591D01*
X178995557Y-67250066D01*
X178944037Y-67080227D01*
X178926641Y-66903600D01*
X178944037Y-66726973D01*
X178995557Y-66557134D01*
X179079222Y-66400609D01*
X179108552Y-66364871D01*
X179191814Y-66263414D01*
X179293271Y-66180152D01*
X179329009Y-66150822D01*
X179485534Y-66067157D01*
X179655373Y-66015637D01*
X179721557Y-66009119D01*
X179787740Y-66002600D01*
X179876260Y-66002600D01*
X179942443Y-66009119D01*
X179942443Y-66009119D01*
G37*
G36*
X182482443Y-66009119D02*
G01*
X182548627Y-66015637D01*
X182718466Y-66067157D01*
X182874991Y-66150822D01*
X182910729Y-66180152D01*
X183012186Y-66263414D01*
X183095448Y-66364871D01*
X183124778Y-66400609D01*
X183208443Y-66557134D01*
X183259963Y-66726973D01*
X183277359Y-66903600D01*
X183259963Y-67080227D01*
X183208443Y-67250066D01*
X183124778Y-67406591D01*
X183095448Y-67442329D01*
X183012186Y-67543786D01*
X182910729Y-67627048D01*
X182874991Y-67656378D01*
X182718466Y-67740043D01*
X182548627Y-67791563D01*
X182482443Y-67798081D01*
X182416260Y-67804600D01*
X182327740Y-67804600D01*
X182261557Y-67798081D01*
X182195373Y-67791563D01*
X182025534Y-67740043D01*
X181869009Y-67656378D01*
X181833271Y-67627048D01*
X181731814Y-67543786D01*
X181648552Y-67442329D01*
X181619222Y-67406591D01*
X181535557Y-67250066D01*
X181484037Y-67080227D01*
X181466641Y-66903600D01*
X181484037Y-66726973D01*
X181535557Y-66557134D01*
X181619222Y-66400609D01*
X181648552Y-66364871D01*
X181731814Y-66263414D01*
X181833271Y-66180152D01*
X181869009Y-66150822D01*
X182025534Y-66067157D01*
X182195373Y-66015637D01*
X182261557Y-66009119D01*
X182327740Y-66002600D01*
X182416260Y-66002600D01*
X182482443Y-66009119D01*
X182482443Y-66009119D01*
G37*
G36*
X185022443Y-66009119D02*
G01*
X185088627Y-66015637D01*
X185258466Y-66067157D01*
X185414991Y-66150822D01*
X185450729Y-66180152D01*
X185552186Y-66263414D01*
X185635448Y-66364871D01*
X185664778Y-66400609D01*
X185748443Y-66557134D01*
X185799963Y-66726973D01*
X185817359Y-66903600D01*
X185799963Y-67080227D01*
X185748443Y-67250066D01*
X185664778Y-67406591D01*
X185635448Y-67442329D01*
X185552186Y-67543786D01*
X185450729Y-67627048D01*
X185414991Y-67656378D01*
X185258466Y-67740043D01*
X185088627Y-67791563D01*
X185022443Y-67798081D01*
X184956260Y-67804600D01*
X184867740Y-67804600D01*
X184801557Y-67798081D01*
X184735373Y-67791563D01*
X184565534Y-67740043D01*
X184409009Y-67656378D01*
X184373271Y-67627048D01*
X184271814Y-67543786D01*
X184188552Y-67442329D01*
X184159222Y-67406591D01*
X184075557Y-67250066D01*
X184024037Y-67080227D01*
X184006641Y-66903600D01*
X184024037Y-66726973D01*
X184075557Y-66557134D01*
X184159222Y-66400609D01*
X184188552Y-66364871D01*
X184271814Y-66263414D01*
X184373271Y-66180152D01*
X184409009Y-66150822D01*
X184565534Y-66067157D01*
X184735373Y-66015637D01*
X184801557Y-66009119D01*
X184867740Y-66002600D01*
X184956260Y-66002600D01*
X185022443Y-66009119D01*
X185022443Y-66009119D01*
G37*
G36*
X211692443Y-66009119D02*
G01*
X211758627Y-66015637D01*
X211928466Y-66067157D01*
X212084991Y-66150822D01*
X212120729Y-66180152D01*
X212222186Y-66263414D01*
X212305448Y-66364871D01*
X212334778Y-66400609D01*
X212418443Y-66557134D01*
X212469963Y-66726973D01*
X212487359Y-66903600D01*
X212469963Y-67080227D01*
X212418443Y-67250066D01*
X212334778Y-67406591D01*
X212305448Y-67442329D01*
X212222186Y-67543786D01*
X212120729Y-67627048D01*
X212084991Y-67656378D01*
X211928466Y-67740043D01*
X211758627Y-67791563D01*
X211692443Y-67798081D01*
X211626260Y-67804600D01*
X211537740Y-67804600D01*
X211471557Y-67798081D01*
X211405373Y-67791563D01*
X211235534Y-67740043D01*
X211079009Y-67656378D01*
X211043271Y-67627048D01*
X210941814Y-67543786D01*
X210858552Y-67442329D01*
X210829222Y-67406591D01*
X210745557Y-67250066D01*
X210694037Y-67080227D01*
X210676641Y-66903600D01*
X210694037Y-66726973D01*
X210745557Y-66557134D01*
X210829222Y-66400609D01*
X210858552Y-66364871D01*
X210941814Y-66263414D01*
X211043271Y-66180152D01*
X211079009Y-66150822D01*
X211235534Y-66067157D01*
X211405373Y-66015637D01*
X211471557Y-66009119D01*
X211537740Y-66002600D01*
X211626260Y-66002600D01*
X211692443Y-66009119D01*
X211692443Y-66009119D01*
G37*
G36*
X191372443Y-66009119D02*
G01*
X191438627Y-66015637D01*
X191608466Y-66067157D01*
X191764991Y-66150822D01*
X191800729Y-66180152D01*
X191902186Y-66263414D01*
X191985448Y-66364871D01*
X192014778Y-66400609D01*
X192098443Y-66557134D01*
X192149963Y-66726973D01*
X192167359Y-66903600D01*
X192149963Y-67080227D01*
X192098443Y-67250066D01*
X192014778Y-67406591D01*
X191985448Y-67442329D01*
X191902186Y-67543786D01*
X191800729Y-67627048D01*
X191764991Y-67656378D01*
X191608466Y-67740043D01*
X191438627Y-67791563D01*
X191372443Y-67798081D01*
X191306260Y-67804600D01*
X191217740Y-67804600D01*
X191151557Y-67798081D01*
X191085373Y-67791563D01*
X190915534Y-67740043D01*
X190759009Y-67656378D01*
X190723271Y-67627048D01*
X190621814Y-67543786D01*
X190538552Y-67442329D01*
X190509222Y-67406591D01*
X190425557Y-67250066D01*
X190374037Y-67080227D01*
X190356641Y-66903600D01*
X190374037Y-66726973D01*
X190425557Y-66557134D01*
X190509222Y-66400609D01*
X190538552Y-66364871D01*
X190621814Y-66263414D01*
X190723271Y-66180152D01*
X190759009Y-66150822D01*
X190915534Y-66067157D01*
X191085373Y-66015637D01*
X191151557Y-66009119D01*
X191217740Y-66002600D01*
X191306260Y-66002600D01*
X191372443Y-66009119D01*
X191372443Y-66009119D01*
G37*
G36*
X193912443Y-66009119D02*
G01*
X193978627Y-66015637D01*
X194148466Y-66067157D01*
X194304991Y-66150822D01*
X194340729Y-66180152D01*
X194442186Y-66263414D01*
X194525448Y-66364871D01*
X194554778Y-66400609D01*
X194638443Y-66557134D01*
X194689963Y-66726973D01*
X194707359Y-66903600D01*
X194689963Y-67080227D01*
X194638443Y-67250066D01*
X194554778Y-67406591D01*
X194525448Y-67442329D01*
X194442186Y-67543786D01*
X194340729Y-67627048D01*
X194304991Y-67656378D01*
X194148466Y-67740043D01*
X193978627Y-67791563D01*
X193912443Y-67798081D01*
X193846260Y-67804600D01*
X193757740Y-67804600D01*
X193691557Y-67798081D01*
X193625373Y-67791563D01*
X193455534Y-67740043D01*
X193299009Y-67656378D01*
X193263271Y-67627048D01*
X193161814Y-67543786D01*
X193078552Y-67442329D01*
X193049222Y-67406591D01*
X192965557Y-67250066D01*
X192914037Y-67080227D01*
X192896641Y-66903600D01*
X192914037Y-66726973D01*
X192965557Y-66557134D01*
X193049222Y-66400609D01*
X193078552Y-66364871D01*
X193161814Y-66263414D01*
X193263271Y-66180152D01*
X193299009Y-66150822D01*
X193455534Y-66067157D01*
X193625373Y-66015637D01*
X193691557Y-66009119D01*
X193757740Y-66002600D01*
X193846260Y-66002600D01*
X193912443Y-66009119D01*
X193912443Y-66009119D01*
G37*
G36*
X196452443Y-66009119D02*
G01*
X196518627Y-66015637D01*
X196688466Y-66067157D01*
X196844991Y-66150822D01*
X196880729Y-66180152D01*
X196982186Y-66263414D01*
X197065448Y-66364871D01*
X197094778Y-66400609D01*
X197178443Y-66557134D01*
X197229963Y-66726973D01*
X197247359Y-66903600D01*
X197229963Y-67080227D01*
X197178443Y-67250066D01*
X197094778Y-67406591D01*
X197065448Y-67442329D01*
X196982186Y-67543786D01*
X196880729Y-67627048D01*
X196844991Y-67656378D01*
X196688466Y-67740043D01*
X196518627Y-67791563D01*
X196452443Y-67798081D01*
X196386260Y-67804600D01*
X196297740Y-67804600D01*
X196231557Y-67798081D01*
X196165373Y-67791563D01*
X195995534Y-67740043D01*
X195839009Y-67656378D01*
X195803271Y-67627048D01*
X195701814Y-67543786D01*
X195618552Y-67442329D01*
X195589222Y-67406591D01*
X195505557Y-67250066D01*
X195454037Y-67080227D01*
X195436641Y-66903600D01*
X195454037Y-66726973D01*
X195505557Y-66557134D01*
X195589222Y-66400609D01*
X195618552Y-66364871D01*
X195701814Y-66263414D01*
X195803271Y-66180152D01*
X195839009Y-66150822D01*
X195995534Y-66067157D01*
X196165373Y-66015637D01*
X196231557Y-66009119D01*
X196297740Y-66002600D01*
X196386260Y-66002600D01*
X196452443Y-66009119D01*
X196452443Y-66009119D01*
G37*
G36*
X198992443Y-66009119D02*
G01*
X199058627Y-66015637D01*
X199228466Y-66067157D01*
X199384991Y-66150822D01*
X199420729Y-66180152D01*
X199522186Y-66263414D01*
X199605448Y-66364871D01*
X199634778Y-66400609D01*
X199718443Y-66557134D01*
X199769963Y-66726973D01*
X199787359Y-66903600D01*
X199769963Y-67080227D01*
X199718443Y-67250066D01*
X199634778Y-67406591D01*
X199605448Y-67442329D01*
X199522186Y-67543786D01*
X199420729Y-67627048D01*
X199384991Y-67656378D01*
X199228466Y-67740043D01*
X199058627Y-67791563D01*
X198992443Y-67798081D01*
X198926260Y-67804600D01*
X198837740Y-67804600D01*
X198771557Y-67798081D01*
X198705373Y-67791563D01*
X198535534Y-67740043D01*
X198379009Y-67656378D01*
X198343271Y-67627048D01*
X198241814Y-67543786D01*
X198158552Y-67442329D01*
X198129222Y-67406591D01*
X198045557Y-67250066D01*
X197994037Y-67080227D01*
X197976641Y-66903600D01*
X197994037Y-66726973D01*
X198045557Y-66557134D01*
X198129222Y-66400609D01*
X198158552Y-66364871D01*
X198241814Y-66263414D01*
X198343271Y-66180152D01*
X198379009Y-66150822D01*
X198535534Y-66067157D01*
X198705373Y-66015637D01*
X198771557Y-66009119D01*
X198837740Y-66002600D01*
X198926260Y-66002600D01*
X198992443Y-66009119D01*
X198992443Y-66009119D01*
G37*
G36*
X201532443Y-66009119D02*
G01*
X201598627Y-66015637D01*
X201768466Y-66067157D01*
X201924991Y-66150822D01*
X201960729Y-66180152D01*
X202062186Y-66263414D01*
X202145448Y-66364871D01*
X202174778Y-66400609D01*
X202258443Y-66557134D01*
X202309963Y-66726973D01*
X202327359Y-66903600D01*
X202309963Y-67080227D01*
X202258443Y-67250066D01*
X202174778Y-67406591D01*
X202145448Y-67442329D01*
X202062186Y-67543786D01*
X201960729Y-67627048D01*
X201924991Y-67656378D01*
X201768466Y-67740043D01*
X201598627Y-67791563D01*
X201532443Y-67798081D01*
X201466260Y-67804600D01*
X201377740Y-67804600D01*
X201311557Y-67798081D01*
X201245373Y-67791563D01*
X201075534Y-67740043D01*
X200919009Y-67656378D01*
X200883271Y-67627048D01*
X200781814Y-67543786D01*
X200698552Y-67442329D01*
X200669222Y-67406591D01*
X200585557Y-67250066D01*
X200534037Y-67080227D01*
X200516641Y-66903600D01*
X200534037Y-66726973D01*
X200585557Y-66557134D01*
X200669222Y-66400609D01*
X200698552Y-66364871D01*
X200781814Y-66263414D01*
X200883271Y-66180152D01*
X200919009Y-66150822D01*
X201075534Y-66067157D01*
X201245373Y-66015637D01*
X201311557Y-66009119D01*
X201377740Y-66002600D01*
X201466260Y-66002600D01*
X201532443Y-66009119D01*
X201532443Y-66009119D01*
G37*
G36*
X204072443Y-66009119D02*
G01*
X204138627Y-66015637D01*
X204308466Y-66067157D01*
X204464991Y-66150822D01*
X204500729Y-66180152D01*
X204602186Y-66263414D01*
X204685448Y-66364871D01*
X204714778Y-66400609D01*
X204798443Y-66557134D01*
X204849963Y-66726973D01*
X204867359Y-66903600D01*
X204849963Y-67080227D01*
X204798443Y-67250066D01*
X204714778Y-67406591D01*
X204685448Y-67442329D01*
X204602186Y-67543786D01*
X204500729Y-67627048D01*
X204464991Y-67656378D01*
X204308466Y-67740043D01*
X204138627Y-67791563D01*
X204072443Y-67798081D01*
X204006260Y-67804600D01*
X203917740Y-67804600D01*
X203851557Y-67798081D01*
X203785373Y-67791563D01*
X203615534Y-67740043D01*
X203459009Y-67656378D01*
X203423271Y-67627048D01*
X203321814Y-67543786D01*
X203238552Y-67442329D01*
X203209222Y-67406591D01*
X203125557Y-67250066D01*
X203074037Y-67080227D01*
X203056641Y-66903600D01*
X203074037Y-66726973D01*
X203125557Y-66557134D01*
X203209222Y-66400609D01*
X203238552Y-66364871D01*
X203321814Y-66263414D01*
X203423271Y-66180152D01*
X203459009Y-66150822D01*
X203615534Y-66067157D01*
X203785373Y-66015637D01*
X203851557Y-66009119D01*
X203917740Y-66002600D01*
X204006260Y-66002600D01*
X204072443Y-66009119D01*
X204072443Y-66009119D01*
G37*
G36*
X206612443Y-66009119D02*
G01*
X206678627Y-66015637D01*
X206848466Y-66067157D01*
X207004991Y-66150822D01*
X207040729Y-66180152D01*
X207142186Y-66263414D01*
X207225448Y-66364871D01*
X207254778Y-66400609D01*
X207338443Y-66557134D01*
X207389963Y-66726973D01*
X207407359Y-66903600D01*
X207389963Y-67080227D01*
X207338443Y-67250066D01*
X207254778Y-67406591D01*
X207225448Y-67442329D01*
X207142186Y-67543786D01*
X207040729Y-67627048D01*
X207004991Y-67656378D01*
X206848466Y-67740043D01*
X206678627Y-67791563D01*
X206612443Y-67798081D01*
X206546260Y-67804600D01*
X206457740Y-67804600D01*
X206391557Y-67798081D01*
X206325373Y-67791563D01*
X206155534Y-67740043D01*
X205999009Y-67656378D01*
X205963271Y-67627048D01*
X205861814Y-67543786D01*
X205778552Y-67442329D01*
X205749222Y-67406591D01*
X205665557Y-67250066D01*
X205614037Y-67080227D01*
X205596641Y-66903600D01*
X205614037Y-66726973D01*
X205665557Y-66557134D01*
X205749222Y-66400609D01*
X205778552Y-66364871D01*
X205861814Y-66263414D01*
X205963271Y-66180152D01*
X205999009Y-66150822D01*
X206155534Y-66067157D01*
X206325373Y-66015637D01*
X206391557Y-66009119D01*
X206457740Y-66002600D01*
X206546260Y-66002600D01*
X206612443Y-66009119D01*
X206612443Y-66009119D01*
G37*
G36*
X173685000Y-62095000D02*
G01*
X172083000Y-62095000D01*
X172083000Y-60993000D01*
X173685000Y-60993000D01*
X173685000Y-62095000D01*
X173685000Y-62095000D01*
G37*
G36*
X211277000Y-62095000D02*
G01*
X209675000Y-62095000D01*
X209675000Y-60993000D01*
X211277000Y-60993000D01*
X211277000Y-62095000D01*
X211277000Y-62095000D01*
G37*
G36*
X206377000Y-62095000D02*
G01*
X204775000Y-62095000D01*
X204775000Y-60993000D01*
X206377000Y-60993000D01*
X206377000Y-62095000D01*
X206377000Y-62095000D01*
G37*
G36*
X201879000Y-62095000D02*
G01*
X200277000Y-62095000D01*
X200277000Y-60993000D01*
X201879000Y-60993000D01*
X201879000Y-62095000D01*
X201879000Y-62095000D01*
G37*
G36*
X168785000Y-62095000D02*
G01*
X167183000Y-62095000D01*
X167183000Y-60993000D01*
X168785000Y-60993000D01*
X168785000Y-62095000D01*
X168785000Y-62095000D01*
G37*
G36*
X196979000Y-62095000D02*
G01*
X195377000Y-62095000D01*
X195377000Y-60993000D01*
X196979000Y-60993000D01*
X196979000Y-62095000D01*
X196979000Y-62095000D01*
G37*
G36*
X192481000Y-62095000D02*
G01*
X190879000Y-62095000D01*
X190879000Y-60993000D01*
X192481000Y-60993000D01*
X192481000Y-62095000D01*
X192481000Y-62095000D01*
G37*
G36*
X187581000Y-62095000D02*
G01*
X185979000Y-62095000D01*
X185979000Y-60993000D01*
X187581000Y-60993000D01*
X187581000Y-62095000D01*
X187581000Y-62095000D01*
G37*
G36*
X183337000Y-62095000D02*
G01*
X181735000Y-62095000D01*
X181735000Y-60993000D01*
X183337000Y-60993000D01*
X183337000Y-62095000D01*
X183337000Y-62095000D01*
G37*
G36*
X178437000Y-62095000D02*
G01*
X176835000Y-62095000D01*
X176835000Y-60993000D01*
X178437000Y-60993000D01*
X178437000Y-62095000D01*
X178437000Y-62095000D01*
G37*
G36*
X183337000Y-58895000D02*
G01*
X181735000Y-58895000D01*
X181735000Y-57793000D01*
X183337000Y-57793000D01*
X183337000Y-58895000D01*
X183337000Y-58895000D01*
G37*
G36*
X178437000Y-58895000D02*
G01*
X176835000Y-58895000D01*
X176835000Y-57793000D01*
X178437000Y-57793000D01*
X178437000Y-58895000D01*
X178437000Y-58895000D01*
G37*
G36*
X187581000Y-58895000D02*
G01*
X185979000Y-58895000D01*
X185979000Y-57793000D01*
X187581000Y-57793000D01*
X187581000Y-58895000D01*
X187581000Y-58895000D01*
G37*
G36*
X192481000Y-58895000D02*
G01*
X190879000Y-58895000D01*
X190879000Y-57793000D01*
X192481000Y-57793000D01*
X192481000Y-58895000D01*
X192481000Y-58895000D01*
G37*
G36*
X196979000Y-58895000D02*
G01*
X195377000Y-58895000D01*
X195377000Y-57793000D01*
X196979000Y-57793000D01*
X196979000Y-58895000D01*
X196979000Y-58895000D01*
G37*
G36*
X201879000Y-58895000D02*
G01*
X200277000Y-58895000D01*
X200277000Y-57793000D01*
X201879000Y-57793000D01*
X201879000Y-58895000D01*
X201879000Y-58895000D01*
G37*
G36*
X206377000Y-58895000D02*
G01*
X204775000Y-58895000D01*
X204775000Y-57793000D01*
X206377000Y-57793000D01*
X206377000Y-58895000D01*
X206377000Y-58895000D01*
G37*
G36*
X211277000Y-58895000D02*
G01*
X209675000Y-58895000D01*
X209675000Y-57793000D01*
X211277000Y-57793000D01*
X211277000Y-58895000D01*
X211277000Y-58895000D01*
G37*
G36*
X168785000Y-58895000D02*
G01*
X167183000Y-58895000D01*
X167183000Y-57793000D01*
X168785000Y-57793000D01*
X168785000Y-58895000D01*
X168785000Y-58895000D01*
G37*
G36*
X173685000Y-58895000D02*
G01*
X172083000Y-58895000D01*
X172083000Y-57793000D01*
X173685000Y-57793000D01*
X173685000Y-58895000D01*
X173685000Y-58895000D01*
G37*
M02*
