G04 #@! TF.GenerationSoftware,KiCad,Pcbnew,(5.1.2-1)-1*
G04 #@! TF.CreationDate,2019-10-09T15:23:33+01:00*
G04 #@! TF.ProjectId,PixlVBoard,5069786c-5642-46f6-9172-642e6b696361,rev?*
G04 #@! TF.SameCoordinates,Original*
G04 #@! TF.FileFunction,Legend,Bot*
G04 #@! TF.FilePolarity,Positive*
%FSLAX46Y46*%
G04 Gerber Fmt 4.6, Leading zero omitted, Abs format (unit mm)*
G04 Created by KiCad (PCBNEW (5.1.2-1)-1) date 2019-10-09 15:23:33*
%MOMM*%
%LPD*%
G04 APERTURE LIST*
%ADD10C,0.300000*%
%ADD11C,0.010000*%
G04 APERTURE END LIST*
D10*
X208924571Y-138194171D02*
X208924571Y-136694171D01*
X208281714Y-138194171D02*
X208281714Y-137408457D01*
X208353142Y-137265600D01*
X208496000Y-137194171D01*
X208710285Y-137194171D01*
X208853142Y-137265600D01*
X208924571Y-137337028D01*
X207781714Y-137194171D02*
X207210285Y-137194171D01*
X207567428Y-136694171D02*
X207567428Y-137979885D01*
X207496000Y-138122742D01*
X207353142Y-138194171D01*
X207210285Y-138194171D01*
X206924571Y-137194171D02*
X206353142Y-137194171D01*
X206710285Y-136694171D02*
X206710285Y-137979885D01*
X206638857Y-138122742D01*
X206496000Y-138194171D01*
X206353142Y-138194171D01*
X205853142Y-137194171D02*
X205853142Y-138694171D01*
X205853142Y-137265600D02*
X205710285Y-137194171D01*
X205424571Y-137194171D01*
X205281714Y-137265600D01*
X205210285Y-137337028D01*
X205138857Y-137479885D01*
X205138857Y-137908457D01*
X205210285Y-138051314D01*
X205281714Y-138122742D01*
X205424571Y-138194171D01*
X205710285Y-138194171D01*
X205853142Y-138122742D01*
X204567428Y-138122742D02*
X204424571Y-138194171D01*
X204138857Y-138194171D01*
X203996000Y-138122742D01*
X203924571Y-137979885D01*
X203924571Y-137908457D01*
X203996000Y-137765600D01*
X204138857Y-137694171D01*
X204353142Y-137694171D01*
X204496000Y-137622742D01*
X204567428Y-137479885D01*
X204567428Y-137408457D01*
X204496000Y-137265600D01*
X204353142Y-137194171D01*
X204138857Y-137194171D01*
X203996000Y-137265600D01*
X203281714Y-138051314D02*
X203210285Y-138122742D01*
X203281714Y-138194171D01*
X203353142Y-138122742D01*
X203281714Y-138051314D01*
X203281714Y-138194171D01*
X203281714Y-137265600D02*
X203210285Y-137337028D01*
X203281714Y-137408457D01*
X203353142Y-137337028D01*
X203281714Y-137265600D01*
X203281714Y-137408457D01*
X201496000Y-136622742D02*
X202781714Y-138551314D01*
X199924571Y-136622742D02*
X201210285Y-138551314D01*
X199424571Y-137194171D02*
X199424571Y-138194171D01*
X199424571Y-137337028D02*
X199353142Y-137265600D01*
X199210285Y-137194171D01*
X198996000Y-137194171D01*
X198853142Y-137265600D01*
X198781714Y-137408457D01*
X198781714Y-138194171D01*
X197496000Y-138122742D02*
X197638857Y-138194171D01*
X197924571Y-138194171D01*
X198067428Y-138122742D01*
X198138857Y-137979885D01*
X198138857Y-137408457D01*
X198067428Y-137265600D01*
X197924571Y-137194171D01*
X197638857Y-137194171D01*
X197496000Y-137265600D01*
X197424571Y-137408457D01*
X197424571Y-137551314D01*
X198138857Y-137694171D01*
X196924571Y-138194171D02*
X196138857Y-137194171D01*
X196924571Y-137194171D02*
X196138857Y-138194171D01*
X195567428Y-138194171D02*
X195567428Y-137194171D01*
X195567428Y-137337028D02*
X195496000Y-137265600D01*
X195353142Y-137194171D01*
X195138857Y-137194171D01*
X194996000Y-137265600D01*
X194924571Y-137408457D01*
X194924571Y-138194171D01*
X194924571Y-137408457D02*
X194853142Y-137265600D01*
X194710285Y-137194171D01*
X194496000Y-137194171D01*
X194353142Y-137265600D01*
X194281714Y-137408457D01*
X194281714Y-138194171D01*
X193353142Y-138194171D02*
X193496000Y-138122742D01*
X193567428Y-138051314D01*
X193638857Y-137908457D01*
X193638857Y-137479885D01*
X193567428Y-137337028D01*
X193496000Y-137265600D01*
X193353142Y-137194171D01*
X193138857Y-137194171D01*
X192996000Y-137265600D01*
X192924571Y-137337028D01*
X192853142Y-137479885D01*
X192853142Y-137908457D01*
X192924571Y-138051314D01*
X192996000Y-138122742D01*
X193138857Y-138194171D01*
X193353142Y-138194171D01*
X192210285Y-138051314D02*
X192138857Y-138122742D01*
X192210285Y-138194171D01*
X192281714Y-138122742D01*
X192210285Y-138051314D01*
X192210285Y-138194171D01*
X190853142Y-138194171D02*
X190853142Y-136694171D01*
X190853142Y-138122742D02*
X190996000Y-138194171D01*
X191281714Y-138194171D01*
X191424571Y-138122742D01*
X191496000Y-138051314D01*
X191567428Y-137908457D01*
X191567428Y-137479885D01*
X191496000Y-137337028D01*
X191424571Y-137265600D01*
X191281714Y-137194171D01*
X190996000Y-137194171D01*
X190853142Y-137265600D01*
X189567428Y-138122742D02*
X189710285Y-138194171D01*
X189996000Y-138194171D01*
X190138857Y-138122742D01*
X190210285Y-137979885D01*
X190210285Y-137408457D01*
X190138857Y-137265600D01*
X189996000Y-137194171D01*
X189710285Y-137194171D01*
X189567428Y-137265600D01*
X189496000Y-137408457D01*
X189496000Y-137551314D01*
X190210285Y-137694171D01*
X188996000Y-137194171D02*
X188638857Y-138194171D01*
X188281714Y-137194171D01*
X186638857Y-136622742D02*
X187924571Y-138551314D01*
X185496000Y-138122742D02*
X185638857Y-138194171D01*
X185924571Y-138194171D01*
X186067428Y-138122742D01*
X186138857Y-138051314D01*
X186210285Y-137908457D01*
X186210285Y-137479885D01*
X186138857Y-137337028D01*
X186067428Y-137265600D01*
X185924571Y-137194171D01*
X185638857Y-137194171D01*
X185496000Y-137265600D01*
X184210285Y-138194171D02*
X184210285Y-137408457D01*
X184281714Y-137265600D01*
X184424571Y-137194171D01*
X184710285Y-137194171D01*
X184853142Y-137265600D01*
X184210285Y-138122742D02*
X184353142Y-138194171D01*
X184710285Y-138194171D01*
X184853142Y-138122742D01*
X184924571Y-137979885D01*
X184924571Y-137837028D01*
X184853142Y-137694171D01*
X184710285Y-137622742D01*
X184353142Y-137622742D01*
X184210285Y-137551314D01*
X183496000Y-138194171D02*
X183496000Y-137194171D01*
X183496000Y-137337028D02*
X183424571Y-137265600D01*
X183281714Y-137194171D01*
X183067428Y-137194171D01*
X182924571Y-137265600D01*
X182853142Y-137408457D01*
X182853142Y-138194171D01*
X182853142Y-137408457D02*
X182781714Y-137265600D01*
X182638857Y-137194171D01*
X182424571Y-137194171D01*
X182281714Y-137265600D01*
X182210285Y-137408457D01*
X182210285Y-138194171D01*
X181496000Y-137194171D02*
X181496000Y-138694171D01*
X181496000Y-137265600D02*
X181353142Y-137194171D01*
X181067428Y-137194171D01*
X180924571Y-137265600D01*
X180853142Y-137337028D01*
X180781714Y-137479885D01*
X180781714Y-137908457D01*
X180853142Y-138051314D01*
X180924571Y-138122742D01*
X181067428Y-138194171D01*
X181353142Y-138194171D01*
X181496000Y-138122742D01*
X179496000Y-137194171D02*
X179496000Y-138194171D01*
X180138857Y-137194171D02*
X180138857Y-137979885D01*
X180067428Y-138122742D01*
X179924571Y-138194171D01*
X179710285Y-138194171D01*
X179567428Y-138122742D01*
X179496000Y-138051314D01*
X178853142Y-138122742D02*
X178710285Y-138194171D01*
X178424571Y-138194171D01*
X178281714Y-138122742D01*
X178210285Y-137979885D01*
X178210285Y-137908457D01*
X178281714Y-137765600D01*
X178424571Y-137694171D01*
X178638857Y-137694171D01*
X178781714Y-137622742D01*
X178853142Y-137479885D01*
X178853142Y-137408457D01*
X178781714Y-137265600D01*
X178638857Y-137194171D01*
X178424571Y-137194171D01*
X178281714Y-137265600D01*
X177567428Y-138194171D02*
X177567428Y-136694171D01*
X177567428Y-137265600D02*
X177424571Y-137194171D01*
X177138857Y-137194171D01*
X176996000Y-137265600D01*
X176924571Y-137337028D01*
X176853142Y-137479885D01*
X176853142Y-137908457D01*
X176924571Y-138051314D01*
X176996000Y-138122742D01*
X177138857Y-138194171D01*
X177424571Y-138194171D01*
X177567428Y-138122742D01*
X175567428Y-138194171D02*
X175567428Y-137408457D01*
X175638857Y-137265600D01*
X175781714Y-137194171D01*
X176067428Y-137194171D01*
X176210285Y-137265600D01*
X175567428Y-138122742D02*
X175710285Y-138194171D01*
X176067428Y-138194171D01*
X176210285Y-138122742D01*
X176281714Y-137979885D01*
X176281714Y-137837028D01*
X176210285Y-137694171D01*
X176067428Y-137622742D01*
X175710285Y-137622742D01*
X175567428Y-137551314D01*
X174210285Y-138194171D02*
X174210285Y-136694171D01*
X174210285Y-138122742D02*
X174353142Y-138194171D01*
X174638857Y-138194171D01*
X174781714Y-138122742D01*
X174853142Y-138051314D01*
X174924571Y-137908457D01*
X174924571Y-137479885D01*
X174853142Y-137337028D01*
X174781714Y-137265600D01*
X174638857Y-137194171D01*
X174353142Y-137194171D01*
X174210285Y-137265600D01*
X172853142Y-137194171D02*
X172853142Y-138408457D01*
X172924571Y-138551314D01*
X172996000Y-138622742D01*
X173138857Y-138694171D01*
X173353142Y-138694171D01*
X173496000Y-138622742D01*
X172853142Y-138122742D02*
X172996000Y-138194171D01*
X173281714Y-138194171D01*
X173424571Y-138122742D01*
X173496000Y-138051314D01*
X173567428Y-137908457D01*
X173567428Y-137479885D01*
X173496000Y-137337028D01*
X173424571Y-137265600D01*
X173281714Y-137194171D01*
X172996000Y-137194171D01*
X172853142Y-137265600D01*
X171567428Y-138122742D02*
X171710285Y-138194171D01*
X171996000Y-138194171D01*
X172138857Y-138122742D01*
X172210285Y-137979885D01*
X172210285Y-137408457D01*
X172138857Y-137265600D01*
X171996000Y-137194171D01*
X171710285Y-137194171D01*
X171567428Y-137265600D01*
X171496000Y-137408457D01*
X171496000Y-137551314D01*
X172210285Y-137694171D01*
D11*
G36*
X175841809Y-71683555D02*
G01*
X175821365Y-71750766D01*
X175774881Y-71992569D01*
X175811818Y-72114959D01*
X175945092Y-72152485D01*
X175971742Y-72152933D01*
X176102060Y-72140596D01*
X176137829Y-72071693D01*
X176097257Y-71898388D01*
X176084537Y-71856600D01*
X175994380Y-71630486D01*
X175913822Y-71572946D01*
X175841809Y-71683555D01*
X175841809Y-71683555D01*
G37*
X175841809Y-71683555D02*
X175821365Y-71750766D01*
X175774881Y-71992569D01*
X175811818Y-72114959D01*
X175945092Y-72152485D01*
X175971742Y-72152933D01*
X176102060Y-72140596D01*
X176137829Y-72071693D01*
X176097257Y-71898388D01*
X176084537Y-71856600D01*
X175994380Y-71630486D01*
X175913822Y-71572946D01*
X175841809Y-71683555D01*
G36*
X182908219Y-71227834D02*
G01*
X182896934Y-71238533D01*
X182837613Y-71384544D01*
X182804752Y-71636810D01*
X182798351Y-71934331D01*
X182818410Y-72216108D01*
X182864930Y-72421142D01*
X182896934Y-72474666D01*
X183087553Y-72567538D01*
X183302580Y-72548173D01*
X183462384Y-72425216D01*
X183469688Y-72412499D01*
X183523469Y-72228956D01*
X183554399Y-71962554D01*
X183557334Y-71856600D01*
X183538771Y-71581294D01*
X183492145Y-71355789D01*
X183469688Y-71300700D01*
X183316987Y-71170564D01*
X183103287Y-71143394D01*
X182908219Y-71227834D01*
X182908219Y-71227834D01*
G37*
X182908219Y-71227834D02*
X182896934Y-71238533D01*
X182837613Y-71384544D01*
X182804752Y-71636810D01*
X182798351Y-71934331D01*
X182818410Y-72216108D01*
X182864930Y-72421142D01*
X182896934Y-72474666D01*
X183087553Y-72567538D01*
X183302580Y-72548173D01*
X183462384Y-72425216D01*
X183469688Y-72412499D01*
X183523469Y-72228956D01*
X183554399Y-71962554D01*
X183557334Y-71856600D01*
X183538771Y-71581294D01*
X183492145Y-71355789D01*
X183469688Y-71300700D01*
X183316987Y-71170564D01*
X183103287Y-71143394D01*
X182908219Y-71227834D01*
G36*
X175767960Y-75000262D02*
G01*
X175647216Y-75079813D01*
X175563117Y-75251000D01*
X175619160Y-75410891D01*
X175788872Y-75517958D01*
X175940313Y-75539600D01*
X176109011Y-75522776D01*
X176178202Y-75438117D01*
X176191334Y-75243266D01*
X176175198Y-75042547D01*
X176103923Y-74960440D01*
X175985715Y-74946933D01*
X175767960Y-75000262D01*
X175767960Y-75000262D01*
G37*
X175767960Y-75000262D02*
X175647216Y-75079813D01*
X175563117Y-75251000D01*
X175619160Y-75410891D01*
X175788872Y-75517958D01*
X175940313Y-75539600D01*
X176109011Y-75522776D01*
X176178202Y-75438117D01*
X176191334Y-75243266D01*
X176175198Y-75042547D01*
X176103923Y-74960440D01*
X175985715Y-74946933D01*
X175767960Y-75000262D01*
G36*
X183042916Y-75592670D02*
G01*
X183003813Y-75730100D01*
X182980697Y-75896594D01*
X183051622Y-75956502D01*
X183159230Y-75962933D01*
X183295552Y-75951505D01*
X183334761Y-75885291D01*
X183296332Y-75716393D01*
X183280563Y-75664512D01*
X183198420Y-75472369D01*
X183119935Y-75448249D01*
X183042916Y-75592670D01*
X183042916Y-75592670D01*
G37*
X183042916Y-75592670D02*
X183003813Y-75730100D01*
X182980697Y-75896594D01*
X183051622Y-75956502D01*
X183159230Y-75962933D01*
X183295552Y-75951505D01*
X183334761Y-75885291D01*
X183296332Y-75716393D01*
X183280563Y-75664512D01*
X183198420Y-75472369D01*
X183119935Y-75448249D01*
X183042916Y-75592670D01*
G36*
X168574532Y-78839888D02*
G01*
X168423466Y-78986519D01*
X168435566Y-79168006D01*
X168535048Y-79301219D01*
X168735354Y-79424398D01*
X168923264Y-79379141D01*
X168977734Y-79332666D01*
X169086078Y-79138823D01*
X169060336Y-78956734D01*
X168933358Y-78826545D01*
X168737994Y-78788405D01*
X168574532Y-78839888D01*
X168574532Y-78839888D01*
G37*
X168574532Y-78839888D02*
X168423466Y-78986519D01*
X168435566Y-79168006D01*
X168535048Y-79301219D01*
X168735354Y-79424398D01*
X168923264Y-79379141D01*
X168977734Y-79332666D01*
X169086078Y-79138823D01*
X169060336Y-78956734D01*
X168933358Y-78826545D01*
X168737994Y-78788405D01*
X168574532Y-78839888D01*
G36*
X180620887Y-78774946D02*
G01*
X180594000Y-78797390D01*
X180631598Y-78917224D01*
X180726363Y-79119481D01*
X180851249Y-79354999D01*
X180979213Y-79574615D01*
X181083209Y-79729167D01*
X181130649Y-79772933D01*
X181168535Y-79698049D01*
X181175122Y-79508370D01*
X181165750Y-79391979D01*
X181086302Y-79029287D01*
X180944844Y-78819685D01*
X180752967Y-78756933D01*
X180620887Y-78774946D01*
X180620887Y-78774946D01*
G37*
X180620887Y-78774946D02*
X180594000Y-78797390D01*
X180631598Y-78917224D01*
X180726363Y-79119481D01*
X180851249Y-79354999D01*
X180979213Y-79574615D01*
X181083209Y-79729167D01*
X181130649Y-79772933D01*
X181168535Y-79698049D01*
X181175122Y-79508370D01*
X181165750Y-79391979D01*
X181086302Y-79029287D01*
X180944844Y-78819685D01*
X180752967Y-78756933D01*
X180620887Y-78774946D01*
G36*
X180370344Y-79215860D02*
G01*
X180349219Y-79375812D01*
X180366790Y-79605617D01*
X180412265Y-79917120D01*
X180470603Y-80095439D01*
X180563270Y-80176504D01*
X180711731Y-80196244D01*
X180719659Y-80196266D01*
X180919991Y-80196266D01*
X180700801Y-79688266D01*
X180549638Y-79372954D01*
X180438318Y-79215196D01*
X180370344Y-79215860D01*
X180370344Y-79215860D01*
G37*
X180370344Y-79215860D02*
X180349219Y-79375812D01*
X180366790Y-79605617D01*
X180412265Y-79917120D01*
X180470603Y-80095439D01*
X180563270Y-80176504D01*
X180711731Y-80196244D01*
X180719659Y-80196266D01*
X180919991Y-80196266D01*
X180700801Y-79688266D01*
X180549638Y-79372954D01*
X180438318Y-79215196D01*
X180370344Y-79215860D01*
G36*
X167809334Y-81127600D02*
G01*
X211074000Y-81127600D01*
X211074000Y-76877333D01*
X211072556Y-75983147D01*
X211068372Y-75170282D01*
X211061678Y-74451369D01*
X211052700Y-73839039D01*
X211041664Y-73345921D01*
X211028799Y-72984647D01*
X211014331Y-72767848D01*
X210999017Y-72707499D01*
X210941275Y-72792574D01*
X210802410Y-73008066D01*
X210590816Y-73340657D01*
X210314888Y-73777027D01*
X209983022Y-74303860D01*
X209603612Y-74907835D01*
X209185055Y-75575634D01*
X208735745Y-76293939D01*
X208453345Y-76746100D01*
X205982657Y-80704266D01*
X205501496Y-80701910D01*
X205020334Y-80699555D01*
X202671644Y-76731613D01*
X202228425Y-75982069D01*
X201810838Y-75274410D01*
X201792502Y-75243266D01*
X199730625Y-75243266D01*
X199708480Y-75695586D01*
X199686334Y-76147905D01*
X195622334Y-78546761D01*
X194864919Y-78993026D01*
X194150393Y-79412447D01*
X193492174Y-79797255D01*
X192903679Y-80139680D01*
X192398328Y-80431953D01*
X191989538Y-80666304D01*
X191690727Y-80834964D01*
X191515314Y-80930164D01*
X191473667Y-80948979D01*
X191397211Y-80882624D01*
X191255829Y-80700389D01*
X191071213Y-80431900D01*
X190928999Y-80209388D01*
X187452000Y-80209388D01*
X187452000Y-80619600D01*
X186690000Y-80619600D01*
X186329283Y-80617914D01*
X186105314Y-80606824D01*
X185985507Y-80577276D01*
X185937276Y-80520221D01*
X185928038Y-80426606D01*
X185928000Y-80407933D01*
X185937651Y-80294150D01*
X185992105Y-80230774D01*
X186129620Y-80203092D01*
X186388451Y-80196388D01*
X186478334Y-80196266D01*
X186823427Y-80174503D01*
X187007513Y-80112452D01*
X187028781Y-80014967D01*
X186885422Y-79886904D01*
X186640563Y-79761067D01*
X186375474Y-79625650D01*
X186246687Y-79541925D01*
X181596910Y-79541925D01*
X181540635Y-79952196D01*
X181411255Y-80285346D01*
X181310734Y-80418563D01*
X181037367Y-80583385D01*
X180711217Y-80625925D01*
X180395495Y-80546015D01*
X180218889Y-80421519D01*
X180213608Y-80413044D01*
X175514000Y-80413044D01*
X175508282Y-80506783D01*
X175470518Y-80566753D01*
X175369793Y-80600495D01*
X175175196Y-80615552D01*
X174855811Y-80619465D01*
X174667334Y-80619600D01*
X173820667Y-80619600D01*
X173820667Y-80407933D01*
X173842807Y-80264791D01*
X173942439Y-80206192D01*
X174117000Y-80196266D01*
X174413334Y-80196266D01*
X174413334Y-79196865D01*
X169555384Y-79196865D01*
X169509801Y-79373169D01*
X169339491Y-79607760D01*
X169069144Y-79770149D01*
X168763498Y-79827158D01*
X168649821Y-79813909D01*
X168462780Y-79798521D01*
X168405458Y-79880148D01*
X168453392Y-80062341D01*
X168568301Y-80161943D01*
X168758877Y-80195231D01*
X168946378Y-80161289D01*
X169048716Y-80069266D01*
X169149319Y-79976296D01*
X169307571Y-79944460D01*
X169449645Y-79975615D01*
X169502667Y-80057848D01*
X169453522Y-80200343D01*
X169334513Y-80387103D01*
X169327189Y-80396515D01*
X169154515Y-80555451D01*
X168929615Y-80615544D01*
X168813623Y-80619600D01*
X168555204Y-80599641D01*
X168350078Y-80550404D01*
X168323380Y-80538169D01*
X168131423Y-80347334D01*
X168005064Y-80045152D01*
X167945451Y-79676866D01*
X167953729Y-79287716D01*
X168031045Y-78922945D01*
X168178546Y-78627793D01*
X168272382Y-78526042D01*
X168566725Y-78364017D01*
X168872230Y-78341212D01*
X169156372Y-78435360D01*
X169386629Y-78624196D01*
X169530474Y-78885453D01*
X169555384Y-79196865D01*
X174413334Y-79196865D01*
X174413334Y-78418266D01*
X174670313Y-78418266D01*
X174992099Y-78477489D01*
X175226479Y-78637567D01*
X175339402Y-78872115D01*
X175344667Y-78940805D01*
X175335388Y-79109703D01*
X175279739Y-79135331D01*
X175156495Y-79058067D01*
X174992866Y-78959794D01*
X174898786Y-78926266D01*
X174868210Y-79003757D01*
X174851789Y-79208255D01*
X174852575Y-79497797D01*
X174854125Y-79540100D01*
X174879000Y-80153933D01*
X175196500Y-80180210D01*
X175407591Y-80213603D01*
X175497356Y-80289549D01*
X175514000Y-80413044D01*
X180213608Y-80413044D01*
X180046994Y-80145679D01*
X179949030Y-79761562D01*
X179934998Y-79317695D01*
X179954474Y-79138603D01*
X180075028Y-78765269D01*
X180285606Y-78506350D01*
X180553180Y-78362486D01*
X180844719Y-78334315D01*
X181127196Y-78422477D01*
X181367581Y-78627611D01*
X181532844Y-78950356D01*
X181569652Y-79107346D01*
X181596910Y-79541925D01*
X186246687Y-79541925D01*
X186154611Y-79482067D01*
X186090229Y-79427162D01*
X185948797Y-79185530D01*
X185944239Y-78919126D01*
X186055987Y-78665507D01*
X186263469Y-78462227D01*
X186546117Y-78346845D01*
X186689183Y-78333600D01*
X186941089Y-78379861D01*
X187165709Y-78498714D01*
X187340307Y-78660264D01*
X187442148Y-78834615D01*
X187448499Y-78991873D01*
X187336623Y-79102140D01*
X187286546Y-79119117D01*
X187107296Y-79088570D01*
X186988261Y-78959659D01*
X186808968Y-78794773D01*
X186607310Y-78768854D01*
X186444907Y-78873201D01*
X186383645Y-79047280D01*
X186487558Y-79215492D01*
X186752487Y-79371796D01*
X186802368Y-79392456D01*
X187134699Y-79546358D01*
X187332560Y-79708064D01*
X187427732Y-79917539D01*
X187452000Y-80209388D01*
X190928999Y-80209388D01*
X190906995Y-80174961D01*
X190424990Y-79397581D01*
X192007662Y-78460936D01*
X192617220Y-78100713D01*
X193311716Y-77691148D01*
X194030099Y-77268190D01*
X194711315Y-76867794D01*
X194810518Y-76809600D01*
X184125663Y-76809600D01*
X183885445Y-76809600D01*
X183693143Y-76770909D01*
X183600057Y-76627048D01*
X183592102Y-76597933D01*
X183536991Y-76464581D01*
X183425787Y-76402785D01*
X183205782Y-76386419D01*
X183165060Y-76386266D01*
X182921466Y-76400491D01*
X182789450Y-76460745D01*
X182712402Y-76593400D01*
X182710667Y-76597933D01*
X182581969Y-76770463D01*
X182416429Y-76809600D01*
X182256228Y-76787021D01*
X182202667Y-76743135D01*
X182229404Y-76642591D01*
X182302574Y-76414444D01*
X182411617Y-76090547D01*
X182545973Y-75702750D01*
X182574609Y-75621301D01*
X182729904Y-75188854D01*
X182846117Y-74892440D01*
X182936665Y-74707102D01*
X183014967Y-74607886D01*
X183094441Y-74569834D01*
X183142044Y-74565933D01*
X183225342Y-74580943D01*
X183301044Y-74642138D01*
X183381891Y-74773758D01*
X183480624Y-75000048D01*
X183609983Y-75345252D01*
X183731600Y-75687766D01*
X184125663Y-76809600D01*
X194810518Y-76809600D01*
X195175589Y-76595445D01*
X195638603Y-76320333D01*
X196046251Y-76070793D01*
X196377769Y-75860146D01*
X196612392Y-75701712D01*
X196729354Y-75608813D01*
X196738499Y-75592832D01*
X196663549Y-75534787D01*
X196587192Y-75484228D01*
X187519664Y-75484228D01*
X187518648Y-75876255D01*
X187450939Y-76244376D01*
X187316186Y-76543556D01*
X187142434Y-76713712D01*
X186841100Y-76806329D01*
X186506575Y-76787705D01*
X186213700Y-76666159D01*
X186135819Y-76601781D01*
X185974658Y-76378705D01*
X185936699Y-76177135D01*
X186025818Y-76034151D01*
X186073934Y-76009717D01*
X186227360Y-76027656D01*
X186370460Y-76147801D01*
X186435939Y-76312894D01*
X186436000Y-76317782D01*
X186509684Y-76365732D01*
X186687399Y-76386255D01*
X186692096Y-76386266D01*
X186901199Y-76346527D01*
X187018271Y-76199951D01*
X187030763Y-76169088D01*
X187105319Y-75799519D01*
X187088877Y-75393666D01*
X187028626Y-75158491D01*
X186927560Y-74995007D01*
X186761476Y-74958073D01*
X186711126Y-74962480D01*
X186485885Y-75058143D01*
X186394757Y-75179766D01*
X186247716Y-75339310D01*
X186119590Y-75370266D01*
X185969370Y-75312068D01*
X185927028Y-75162527D01*
X185990660Y-74959222D01*
X186151213Y-74746812D01*
X186439342Y-74569300D01*
X186765714Y-74523600D01*
X180340000Y-74523600D01*
X180340000Y-76809600D01*
X180128334Y-76809600D01*
X180021950Y-76801788D01*
X179958460Y-76754959D01*
X179926175Y-76634024D01*
X179913406Y-76403893D01*
X179909761Y-76153433D01*
X179904902Y-75828312D01*
X179894411Y-75652430D01*
X179871576Y-75605694D01*
X179829687Y-75668013D01*
X179782518Y-75772433D01*
X179648869Y-75976416D01*
X179505339Y-76047600D01*
X179356391Y-75966075D01*
X179260225Y-75772433D01*
X179216289Y-75653132D01*
X179188895Y-75642327D01*
X179173446Y-75758093D01*
X179165344Y-76018503D01*
X179163311Y-76153433D01*
X179156429Y-76482972D01*
X179138688Y-76678268D01*
X179098307Y-76774408D01*
X179023505Y-76806480D01*
X178943000Y-76809600D01*
X178731334Y-76809600D01*
X176614667Y-76809600D01*
X176403000Y-76809600D01*
X176277378Y-76795874D01*
X176214709Y-76725829D01*
X176193339Y-76556160D01*
X176191334Y-76386266D01*
X176191334Y-75962933D01*
X175873834Y-75960240D01*
X175527091Y-75889869D01*
X175271366Y-75704617D01*
X175132287Y-75433517D01*
X175132163Y-75120080D01*
X175235014Y-74861749D01*
X175426965Y-74689688D01*
X175735493Y-74586866D01*
X176060244Y-74544920D01*
X176325844Y-74523600D01*
X173143334Y-74523600D01*
X173143334Y-75442570D01*
X173140707Y-75853075D01*
X173128267Y-76131913D01*
X173099179Y-76316720D01*
X173046604Y-76445137D01*
X172963706Y-76554801D01*
X172935710Y-76585570D01*
X172665033Y-76763859D01*
X172332969Y-76823873D01*
X172000107Y-76764788D01*
X171742485Y-76601781D01*
X171651397Y-76500067D01*
X171591673Y-76388610D01*
X171556738Y-76231050D01*
X171546262Y-76080705D01*
X169572566Y-76080705D01*
X169550991Y-76195766D01*
X169403643Y-76490252D01*
X169147410Y-76698090D01*
X168826072Y-76805897D01*
X168483409Y-76800288D01*
X168163199Y-76667880D01*
X168117085Y-76634121D01*
X167932732Y-76393559D01*
X167881013Y-76102843D01*
X167961522Y-75816578D01*
X168124587Y-75624511D01*
X168357697Y-75481847D01*
X168588354Y-75396495D01*
X168795370Y-75322933D01*
X168915391Y-75236771D01*
X168973640Y-75093266D01*
X168907955Y-74994368D01*
X168760560Y-74952067D01*
X168573683Y-74978351D01*
X168389549Y-75085210D01*
X168387637Y-75086932D01*
X168216063Y-75180253D01*
X168043722Y-75142500D01*
X167854505Y-75058069D01*
X168121740Y-74790834D01*
X168412623Y-74587079D01*
X168720428Y-74510349D01*
X169009522Y-74550819D01*
X169244268Y-74698664D01*
X169389032Y-74944058D01*
X169418000Y-75148233D01*
X169392946Y-75362212D01*
X169296744Y-75518961D01*
X169097837Y-75649222D01*
X168766213Y-75783183D01*
X168517485Y-75886823D01*
X168395060Y-75987875D01*
X168359889Y-76120256D01*
X168359667Y-76136284D01*
X168383952Y-76276378D01*
X168488769Y-76343730D01*
X168676667Y-76370181D01*
X168899053Y-76369671D01*
X169022999Y-76299284D01*
X169092424Y-76179681D01*
X169243916Y-75999956D01*
X169398436Y-75962933D01*
X169542046Y-75983746D01*
X169572566Y-76080705D01*
X171546262Y-76080705D01*
X171540012Y-75991024D01*
X171534920Y-75632171D01*
X171534667Y-75452893D01*
X171535910Y-75043961D01*
X171543592Y-74775908D01*
X171563643Y-74620281D01*
X171601995Y-74548627D01*
X171664576Y-74532491D01*
X171725167Y-74538878D01*
X171814181Y-74561936D01*
X171871633Y-74622406D01*
X171906056Y-74753092D01*
X171925981Y-74986799D01*
X171939943Y-75356330D01*
X171940230Y-75365684D01*
X171963089Y-75805464D01*
X172006273Y-76101808D01*
X172079609Y-76280285D01*
X172192924Y-76366467D01*
X172332434Y-76386266D01*
X172497404Y-76363586D01*
X172608846Y-76278138D01*
X172676557Y-76103810D01*
X172710334Y-75814490D01*
X172719976Y-75384068D01*
X172720000Y-75353333D01*
X172721358Y-74973717D01*
X172730741Y-74732204D01*
X172756116Y-74597565D01*
X172805451Y-74538571D01*
X172886711Y-74523991D01*
X172931667Y-74523600D01*
X173143334Y-74523600D01*
X176325844Y-74523600D01*
X176614667Y-74500416D01*
X176614667Y-76809600D01*
X178731334Y-76809600D01*
X178731334Y-74523600D01*
X178936098Y-74523600D01*
X179053385Y-74544783D01*
X179144470Y-74631493D01*
X179233839Y-74818470D01*
X179324000Y-75073933D01*
X179419106Y-75348240D01*
X179494760Y-75545417D01*
X179535077Y-75624163D01*
X179535667Y-75624266D01*
X179574421Y-75550541D01*
X179649081Y-75356901D01*
X179743763Y-75084648D01*
X179747334Y-75073933D01*
X179853812Y-74777651D01*
X179941732Y-74610399D01*
X180035581Y-74537438D01*
X180135237Y-74523600D01*
X180340000Y-74523600D01*
X186765714Y-74523600D01*
X186782833Y-74521203D01*
X187118458Y-74611065D01*
X187126068Y-74615081D01*
X187323023Y-74808605D01*
X187454339Y-75113332D01*
X187519664Y-75484228D01*
X196587192Y-75484228D01*
X196458416Y-75398961D01*
X196138107Y-75194717D01*
X195717630Y-74931415D01*
X195211992Y-74618416D01*
X194636201Y-74265083D01*
X194005262Y-73880775D01*
X193612493Y-73642858D01*
X192955770Y-73245472D01*
X192344679Y-72874950D01*
X191794293Y-72540487D01*
X191319683Y-72251275D01*
X190935923Y-72016508D01*
X190658083Y-71845381D01*
X190501238Y-71747087D01*
X190471537Y-71726959D01*
X190495799Y-71641472D01*
X190595700Y-71453997D01*
X190748059Y-71200053D01*
X190929696Y-70915162D01*
X191015207Y-70787480D01*
X187621334Y-70787480D01*
X187596801Y-70891631D01*
X187529659Y-71124462D01*
X187429587Y-71453596D01*
X187306268Y-71846658D01*
X187279543Y-71930480D01*
X187136893Y-72367894D01*
X187029543Y-72667984D01*
X186944995Y-72855873D01*
X186870748Y-72956682D01*
X186794305Y-72995536D01*
X186747624Y-72999600D01*
X186660368Y-72982524D01*
X186583515Y-72913628D01*
X186503209Y-72766410D01*
X186405594Y-72514369D01*
X186276813Y-72131001D01*
X186249608Y-72047100D01*
X186188301Y-71857961D01*
X183980667Y-71857961D01*
X183950900Y-72268979D01*
X183847991Y-72582379D01*
X183660332Y-72851433D01*
X183480846Y-72951887D01*
X183214532Y-72995602D01*
X182935163Y-72979522D01*
X182716508Y-72900591D01*
X182703330Y-72891073D01*
X182527733Y-72697771D01*
X182422225Y-72423973D01*
X182392292Y-72171467D01*
X180327641Y-72171467D01*
X180326037Y-72518653D01*
X180317472Y-72770829D01*
X180303152Y-72888837D01*
X180193812Y-72979906D01*
X180088658Y-72999600D01*
X180003862Y-72986373D01*
X179952647Y-72924200D01*
X179926654Y-72779345D01*
X179917527Y-72518069D01*
X179916667Y-72305333D01*
X179908134Y-71962908D01*
X179884052Y-71750422D01*
X179846698Y-71685733D01*
X179838410Y-71691500D01*
X179761840Y-71799677D01*
X179629015Y-72014359D01*
X179465541Y-72293824D01*
X179425325Y-72364600D01*
X179239582Y-72674945D01*
X179098454Y-72858441D01*
X178977039Y-72942645D01*
X178889749Y-72957266D01*
X178689000Y-72957266D01*
X178689000Y-72893766D01*
X176863992Y-72893766D01*
X176795571Y-72973338D01*
X176658614Y-72999600D01*
X176478087Y-72946750D01*
X176395435Y-72787933D01*
X176340324Y-72654581D01*
X176229120Y-72592785D01*
X176009115Y-72576419D01*
X175968393Y-72576266D01*
X175724800Y-72590491D01*
X175592784Y-72650745D01*
X175515735Y-72783400D01*
X175514000Y-72787933D01*
X175385302Y-72960463D01*
X175219763Y-72999600D01*
X175061545Y-72963916D01*
X175010454Y-72893766D01*
X175039323Y-72777324D01*
X175114927Y-72535838D01*
X175226131Y-72203402D01*
X175361803Y-71814111D01*
X175376798Y-71771933D01*
X175405031Y-71694259D01*
X173140186Y-71694259D01*
X173129542Y-72097297D01*
X173040662Y-72480201D01*
X172871349Y-72799327D01*
X172827985Y-72851278D01*
X172635321Y-72957854D01*
X172356019Y-72997991D01*
X172059741Y-72970399D01*
X171816145Y-72873789D01*
X171810796Y-72870103D01*
X171661739Y-72690838D01*
X171535870Y-72411311D01*
X171477772Y-72171467D01*
X169405641Y-72171467D01*
X169404037Y-72518653D01*
X169395472Y-72770829D01*
X169381152Y-72888837D01*
X169293324Y-72950635D01*
X169075777Y-72986584D01*
X168710327Y-72999470D01*
X168658658Y-72999600D01*
X168321929Y-72997365D01*
X168120048Y-72983507D01*
X168018535Y-72947292D01*
X167982906Y-72877985D01*
X167978667Y-72787933D01*
X167990755Y-72666707D01*
X168054644Y-72603586D01*
X168211771Y-72579734D01*
X168444334Y-72576266D01*
X168910000Y-72576266D01*
X168910000Y-71983600D01*
X168486667Y-71983600D01*
X168235423Y-71976737D01*
X168110083Y-71941714D01*
X168067344Y-71856880D01*
X168063334Y-71771933D01*
X168077059Y-71646311D01*
X168147104Y-71583641D01*
X168316774Y-71562271D01*
X168486667Y-71560266D01*
X168737911Y-71553404D01*
X168863251Y-71518381D01*
X168905990Y-71433546D01*
X168910000Y-71348600D01*
X168897913Y-71227374D01*
X168834024Y-71164252D01*
X168676897Y-71140401D01*
X168444334Y-71136933D01*
X168177716Y-71131553D01*
X168038897Y-71102643D01*
X167986400Y-71031042D01*
X167978667Y-70921842D01*
X167984390Y-70816690D01*
X168024230Y-70754377D01*
X168132192Y-70725631D01*
X168342282Y-70721177D01*
X168677167Y-70731342D01*
X169375667Y-70755933D01*
X169399661Y-71767004D01*
X169405641Y-72171467D01*
X171477772Y-72171467D01*
X171460590Y-72100540D01*
X171450473Y-71962433D01*
X171477959Y-71875714D01*
X171586431Y-71830599D01*
X171813835Y-71814999D01*
X171915667Y-71814266D01*
X172182364Y-71819761D01*
X172321231Y-71848801D01*
X172373705Y-71920222D01*
X172381334Y-72025933D01*
X172347668Y-72185503D01*
X172213353Y-72236225D01*
X172163459Y-72237600D01*
X172002523Y-72268597D01*
X171972164Y-72377121D01*
X171973683Y-72385766D01*
X172070522Y-72511105D01*
X172254969Y-72565512D01*
X172458283Y-72543091D01*
X172609992Y-72440347D01*
X172682547Y-72243222D01*
X172714838Y-71952923D01*
X172706898Y-71640745D01*
X172658763Y-71377983D01*
X172609423Y-71272074D01*
X172438263Y-71158991D01*
X172229727Y-71168027D01*
X172051296Y-71288340D01*
X172001424Y-71369766D01*
X171854383Y-71529310D01*
X171726257Y-71560266D01*
X171572723Y-71506180D01*
X171537880Y-71363586D01*
X171618976Y-71161982D01*
X171782154Y-70961087D01*
X172085606Y-70762003D01*
X172424813Y-70712230D01*
X172724690Y-70800776D01*
X172935562Y-71002355D01*
X173074793Y-71314730D01*
X173140186Y-71694259D01*
X175405031Y-71694259D01*
X175530581Y-71348858D01*
X175645521Y-71061318D01*
X175735539Y-70883946D01*
X175814555Y-70791373D01*
X175896490Y-70758232D01*
X175934350Y-70755933D01*
X176021601Y-70772058D01*
X176100399Y-70837317D01*
X176184714Y-70977037D01*
X176288510Y-71216544D01*
X176425757Y-71581164D01*
X176494664Y-71771933D01*
X176633240Y-72164999D01*
X176748373Y-72504800D01*
X176828854Y-72757287D01*
X176863473Y-72888411D01*
X176863992Y-72893766D01*
X178689000Y-72893766D01*
X178689000Y-70755933D01*
X178900667Y-70755933D01*
X179008992Y-70765530D01*
X179075650Y-70818008D01*
X179114853Y-70948893D01*
X179140811Y-71193713D01*
X179154667Y-71390933D01*
X179197000Y-72025933D01*
X179561891Y-71364540D01*
X179748108Y-71040396D01*
X179884350Y-70843463D01*
X179993032Y-70747875D01*
X180096574Y-70727764D01*
X180112224Y-70729540D01*
X180190843Y-70749427D01*
X180244411Y-70801910D01*
X180278779Y-70915973D01*
X180299798Y-71120599D01*
X180313319Y-71444772D01*
X180321661Y-71767004D01*
X180327641Y-72171467D01*
X182392292Y-72171467D01*
X182376173Y-72035502D01*
X182372000Y-71826328D01*
X182380616Y-71492779D01*
X182416312Y-71270683D01*
X182493858Y-71102610D01*
X182591193Y-70974096D01*
X182798847Y-70784430D01*
X183029849Y-70716252D01*
X183104760Y-70713600D01*
X183476773Y-70775941D01*
X183744318Y-70965701D01*
X183910535Y-71286979D01*
X183978562Y-71743879D01*
X183980667Y-71857961D01*
X186188301Y-71857961D01*
X186088440Y-71549882D01*
X185974210Y-71192207D01*
X185903815Y-70951847D01*
X185874156Y-70806572D01*
X185882130Y-70734154D01*
X185924637Y-70712365D01*
X185998575Y-70718975D01*
X186065634Y-70728397D01*
X186187271Y-70755380D01*
X186275889Y-70825599D01*
X186352667Y-70973414D01*
X186438782Y-71233182D01*
X186494238Y-71423754D01*
X186586755Y-71736786D01*
X186664763Y-71981285D01*
X186714952Y-72116147D01*
X186722653Y-72129141D01*
X186761866Y-72071232D01*
X186835501Y-71884647D01*
X186930788Y-71603334D01*
X186981831Y-71440153D01*
X187092277Y-71092192D01*
X187176894Y-70876677D01*
X187254061Y-70762591D01*
X187342159Y-70718920D01*
X187412389Y-70713600D01*
X187570252Y-70739212D01*
X187621334Y-70787480D01*
X191015207Y-70787480D01*
X191117431Y-70634843D01*
X191288084Y-70394618D01*
X191418475Y-70230006D01*
X191483692Y-70175966D01*
X191567552Y-70221664D01*
X191782211Y-70348630D01*
X192114577Y-70548872D01*
X192551554Y-70814395D01*
X193080047Y-71137205D01*
X193686961Y-71509309D01*
X194359203Y-71922713D01*
X195083676Y-72369422D01*
X195644480Y-72715966D01*
X199730625Y-75243266D01*
X201792502Y-75243266D01*
X201426936Y-74622380D01*
X201084769Y-74039724D01*
X200792389Y-73540186D01*
X200557846Y-73137510D01*
X200389194Y-72845440D01*
X200294482Y-72677721D01*
X200276840Y-72643501D01*
X200320893Y-72545894D01*
X200479287Y-72397273D01*
X200716772Y-72219510D01*
X200998094Y-72034479D01*
X201288003Y-71864051D01*
X201551246Y-71730101D01*
X201752570Y-71654501D01*
X201856725Y-71659124D01*
X201858803Y-71661936D01*
X201916134Y-71756184D01*
X202050744Y-71980200D01*
X202253242Y-72318277D01*
X202514239Y-72754710D01*
X202824346Y-73273793D01*
X203174174Y-73859821D01*
X203554331Y-74497088D01*
X203761618Y-74844735D01*
X205593490Y-77917537D01*
X205738546Y-77681068D01*
X205813809Y-77557892D01*
X205966761Y-77307170D01*
X206186999Y-76945969D01*
X206464120Y-76491358D01*
X206787718Y-75960405D01*
X207147391Y-75370177D01*
X207532734Y-74737743D01*
X207637410Y-74565933D01*
X208023211Y-73933578D01*
X208382557Y-73346300D01*
X208705708Y-72819888D01*
X208982927Y-72370128D01*
X209204476Y-72012807D01*
X209360615Y-71763713D01*
X209441607Y-71638635D01*
X209449953Y-71627489D01*
X209541445Y-71644571D01*
X209742144Y-71737897D01*
X210019505Y-71891089D01*
X210249038Y-72029655D01*
X210560709Y-72221720D01*
X210816342Y-72374732D01*
X210983830Y-72469743D01*
X211031694Y-72491599D01*
X211046417Y-72411813D01*
X211058911Y-72191964D01*
X211068203Y-71861319D01*
X211073316Y-71449144D01*
X211074000Y-71221600D01*
X211074000Y-69951600D01*
X167809334Y-69951600D01*
X167809334Y-81127600D01*
X167809334Y-81127600D01*
G37*
X167809334Y-81127600D02*
X211074000Y-81127600D01*
X211074000Y-76877333D01*
X211072556Y-75983147D01*
X211068372Y-75170282D01*
X211061678Y-74451369D01*
X211052700Y-73839039D01*
X211041664Y-73345921D01*
X211028799Y-72984647D01*
X211014331Y-72767848D01*
X210999017Y-72707499D01*
X210941275Y-72792574D01*
X210802410Y-73008066D01*
X210590816Y-73340657D01*
X210314888Y-73777027D01*
X209983022Y-74303860D01*
X209603612Y-74907835D01*
X209185055Y-75575634D01*
X208735745Y-76293939D01*
X208453345Y-76746100D01*
X205982657Y-80704266D01*
X205501496Y-80701910D01*
X205020334Y-80699555D01*
X202671644Y-76731613D01*
X202228425Y-75982069D01*
X201810838Y-75274410D01*
X201792502Y-75243266D01*
X199730625Y-75243266D01*
X199708480Y-75695586D01*
X199686334Y-76147905D01*
X195622334Y-78546761D01*
X194864919Y-78993026D01*
X194150393Y-79412447D01*
X193492174Y-79797255D01*
X192903679Y-80139680D01*
X192398328Y-80431953D01*
X191989538Y-80666304D01*
X191690727Y-80834964D01*
X191515314Y-80930164D01*
X191473667Y-80948979D01*
X191397211Y-80882624D01*
X191255829Y-80700389D01*
X191071213Y-80431900D01*
X190928999Y-80209388D01*
X187452000Y-80209388D01*
X187452000Y-80619600D01*
X186690000Y-80619600D01*
X186329283Y-80617914D01*
X186105314Y-80606824D01*
X185985507Y-80577276D01*
X185937276Y-80520221D01*
X185928038Y-80426606D01*
X185928000Y-80407933D01*
X185937651Y-80294150D01*
X185992105Y-80230774D01*
X186129620Y-80203092D01*
X186388451Y-80196388D01*
X186478334Y-80196266D01*
X186823427Y-80174503D01*
X187007513Y-80112452D01*
X187028781Y-80014967D01*
X186885422Y-79886904D01*
X186640563Y-79761067D01*
X186375474Y-79625650D01*
X186246687Y-79541925D01*
X181596910Y-79541925D01*
X181540635Y-79952196D01*
X181411255Y-80285346D01*
X181310734Y-80418563D01*
X181037367Y-80583385D01*
X180711217Y-80625925D01*
X180395495Y-80546015D01*
X180218889Y-80421519D01*
X180213608Y-80413044D01*
X175514000Y-80413044D01*
X175508282Y-80506783D01*
X175470518Y-80566753D01*
X175369793Y-80600495D01*
X175175196Y-80615552D01*
X174855811Y-80619465D01*
X174667334Y-80619600D01*
X173820667Y-80619600D01*
X173820667Y-80407933D01*
X173842807Y-80264791D01*
X173942439Y-80206192D01*
X174117000Y-80196266D01*
X174413334Y-80196266D01*
X174413334Y-79196865D01*
X169555384Y-79196865D01*
X169509801Y-79373169D01*
X169339491Y-79607760D01*
X169069144Y-79770149D01*
X168763498Y-79827158D01*
X168649821Y-79813909D01*
X168462780Y-79798521D01*
X168405458Y-79880148D01*
X168453392Y-80062341D01*
X168568301Y-80161943D01*
X168758877Y-80195231D01*
X168946378Y-80161289D01*
X169048716Y-80069266D01*
X169149319Y-79976296D01*
X169307571Y-79944460D01*
X169449645Y-79975615D01*
X169502667Y-80057848D01*
X169453522Y-80200343D01*
X169334513Y-80387103D01*
X169327189Y-80396515D01*
X169154515Y-80555451D01*
X168929615Y-80615544D01*
X168813623Y-80619600D01*
X168555204Y-80599641D01*
X168350078Y-80550404D01*
X168323380Y-80538169D01*
X168131423Y-80347334D01*
X168005064Y-80045152D01*
X167945451Y-79676866D01*
X167953729Y-79287716D01*
X168031045Y-78922945D01*
X168178546Y-78627793D01*
X168272382Y-78526042D01*
X168566725Y-78364017D01*
X168872230Y-78341212D01*
X169156372Y-78435360D01*
X169386629Y-78624196D01*
X169530474Y-78885453D01*
X169555384Y-79196865D01*
X174413334Y-79196865D01*
X174413334Y-78418266D01*
X174670313Y-78418266D01*
X174992099Y-78477489D01*
X175226479Y-78637567D01*
X175339402Y-78872115D01*
X175344667Y-78940805D01*
X175335388Y-79109703D01*
X175279739Y-79135331D01*
X175156495Y-79058067D01*
X174992866Y-78959794D01*
X174898786Y-78926266D01*
X174868210Y-79003757D01*
X174851789Y-79208255D01*
X174852575Y-79497797D01*
X174854125Y-79540100D01*
X174879000Y-80153933D01*
X175196500Y-80180210D01*
X175407591Y-80213603D01*
X175497356Y-80289549D01*
X175514000Y-80413044D01*
X180213608Y-80413044D01*
X180046994Y-80145679D01*
X179949030Y-79761562D01*
X179934998Y-79317695D01*
X179954474Y-79138603D01*
X180075028Y-78765269D01*
X180285606Y-78506350D01*
X180553180Y-78362486D01*
X180844719Y-78334315D01*
X181127196Y-78422477D01*
X181367581Y-78627611D01*
X181532844Y-78950356D01*
X181569652Y-79107346D01*
X181596910Y-79541925D01*
X186246687Y-79541925D01*
X186154611Y-79482067D01*
X186090229Y-79427162D01*
X185948797Y-79185530D01*
X185944239Y-78919126D01*
X186055987Y-78665507D01*
X186263469Y-78462227D01*
X186546117Y-78346845D01*
X186689183Y-78333600D01*
X186941089Y-78379861D01*
X187165709Y-78498714D01*
X187340307Y-78660264D01*
X187442148Y-78834615D01*
X187448499Y-78991873D01*
X187336623Y-79102140D01*
X187286546Y-79119117D01*
X187107296Y-79088570D01*
X186988261Y-78959659D01*
X186808968Y-78794773D01*
X186607310Y-78768854D01*
X186444907Y-78873201D01*
X186383645Y-79047280D01*
X186487558Y-79215492D01*
X186752487Y-79371796D01*
X186802368Y-79392456D01*
X187134699Y-79546358D01*
X187332560Y-79708064D01*
X187427732Y-79917539D01*
X187452000Y-80209388D01*
X190928999Y-80209388D01*
X190906995Y-80174961D01*
X190424990Y-79397581D01*
X192007662Y-78460936D01*
X192617220Y-78100713D01*
X193311716Y-77691148D01*
X194030099Y-77268190D01*
X194711315Y-76867794D01*
X194810518Y-76809600D01*
X184125663Y-76809600D01*
X183885445Y-76809600D01*
X183693143Y-76770909D01*
X183600057Y-76627048D01*
X183592102Y-76597933D01*
X183536991Y-76464581D01*
X183425787Y-76402785D01*
X183205782Y-76386419D01*
X183165060Y-76386266D01*
X182921466Y-76400491D01*
X182789450Y-76460745D01*
X182712402Y-76593400D01*
X182710667Y-76597933D01*
X182581969Y-76770463D01*
X182416429Y-76809600D01*
X182256228Y-76787021D01*
X182202667Y-76743135D01*
X182229404Y-76642591D01*
X182302574Y-76414444D01*
X182411617Y-76090547D01*
X182545973Y-75702750D01*
X182574609Y-75621301D01*
X182729904Y-75188854D01*
X182846117Y-74892440D01*
X182936665Y-74707102D01*
X183014967Y-74607886D01*
X183094441Y-74569834D01*
X183142044Y-74565933D01*
X183225342Y-74580943D01*
X183301044Y-74642138D01*
X183381891Y-74773758D01*
X183480624Y-75000048D01*
X183609983Y-75345252D01*
X183731600Y-75687766D01*
X184125663Y-76809600D01*
X194810518Y-76809600D01*
X195175589Y-76595445D01*
X195638603Y-76320333D01*
X196046251Y-76070793D01*
X196377769Y-75860146D01*
X196612392Y-75701712D01*
X196729354Y-75608813D01*
X196738499Y-75592832D01*
X196663549Y-75534787D01*
X196587192Y-75484228D01*
X187519664Y-75484228D01*
X187518648Y-75876255D01*
X187450939Y-76244376D01*
X187316186Y-76543556D01*
X187142434Y-76713712D01*
X186841100Y-76806329D01*
X186506575Y-76787705D01*
X186213700Y-76666159D01*
X186135819Y-76601781D01*
X185974658Y-76378705D01*
X185936699Y-76177135D01*
X186025818Y-76034151D01*
X186073934Y-76009717D01*
X186227360Y-76027656D01*
X186370460Y-76147801D01*
X186435939Y-76312894D01*
X186436000Y-76317782D01*
X186509684Y-76365732D01*
X186687399Y-76386255D01*
X186692096Y-76386266D01*
X186901199Y-76346527D01*
X187018271Y-76199951D01*
X187030763Y-76169088D01*
X187105319Y-75799519D01*
X187088877Y-75393666D01*
X187028626Y-75158491D01*
X186927560Y-74995007D01*
X186761476Y-74958073D01*
X186711126Y-74962480D01*
X186485885Y-75058143D01*
X186394757Y-75179766D01*
X186247716Y-75339310D01*
X186119590Y-75370266D01*
X185969370Y-75312068D01*
X185927028Y-75162527D01*
X185990660Y-74959222D01*
X186151213Y-74746812D01*
X186439342Y-74569300D01*
X186765714Y-74523600D01*
X180340000Y-74523600D01*
X180340000Y-76809600D01*
X180128334Y-76809600D01*
X180021950Y-76801788D01*
X179958460Y-76754959D01*
X179926175Y-76634024D01*
X179913406Y-76403893D01*
X179909761Y-76153433D01*
X179904902Y-75828312D01*
X179894411Y-75652430D01*
X179871576Y-75605694D01*
X179829687Y-75668013D01*
X179782518Y-75772433D01*
X179648869Y-75976416D01*
X179505339Y-76047600D01*
X179356391Y-75966075D01*
X179260225Y-75772433D01*
X179216289Y-75653132D01*
X179188895Y-75642327D01*
X179173446Y-75758093D01*
X179165344Y-76018503D01*
X179163311Y-76153433D01*
X179156429Y-76482972D01*
X179138688Y-76678268D01*
X179098307Y-76774408D01*
X179023505Y-76806480D01*
X178943000Y-76809600D01*
X178731334Y-76809600D01*
X176614667Y-76809600D01*
X176403000Y-76809600D01*
X176277378Y-76795874D01*
X176214709Y-76725829D01*
X176193339Y-76556160D01*
X176191334Y-76386266D01*
X176191334Y-75962933D01*
X175873834Y-75960240D01*
X175527091Y-75889869D01*
X175271366Y-75704617D01*
X175132287Y-75433517D01*
X175132163Y-75120080D01*
X175235014Y-74861749D01*
X175426965Y-74689688D01*
X175735493Y-74586866D01*
X176060244Y-74544920D01*
X176325844Y-74523600D01*
X173143334Y-74523600D01*
X173143334Y-75442570D01*
X173140707Y-75853075D01*
X173128267Y-76131913D01*
X173099179Y-76316720D01*
X173046604Y-76445137D01*
X172963706Y-76554801D01*
X172935710Y-76585570D01*
X172665033Y-76763859D01*
X172332969Y-76823873D01*
X172000107Y-76764788D01*
X171742485Y-76601781D01*
X171651397Y-76500067D01*
X171591673Y-76388610D01*
X171556738Y-76231050D01*
X171546262Y-76080705D01*
X169572566Y-76080705D01*
X169550991Y-76195766D01*
X169403643Y-76490252D01*
X169147410Y-76698090D01*
X168826072Y-76805897D01*
X168483409Y-76800288D01*
X168163199Y-76667880D01*
X168117085Y-76634121D01*
X167932732Y-76393559D01*
X167881013Y-76102843D01*
X167961522Y-75816578D01*
X168124587Y-75624511D01*
X168357697Y-75481847D01*
X168588354Y-75396495D01*
X168795370Y-75322933D01*
X168915391Y-75236771D01*
X168973640Y-75093266D01*
X168907955Y-74994368D01*
X168760560Y-74952067D01*
X168573683Y-74978351D01*
X168389549Y-75085210D01*
X168387637Y-75086932D01*
X168216063Y-75180253D01*
X168043722Y-75142500D01*
X167854505Y-75058069D01*
X168121740Y-74790834D01*
X168412623Y-74587079D01*
X168720428Y-74510349D01*
X169009522Y-74550819D01*
X169244268Y-74698664D01*
X169389032Y-74944058D01*
X169418000Y-75148233D01*
X169392946Y-75362212D01*
X169296744Y-75518961D01*
X169097837Y-75649222D01*
X168766213Y-75783183D01*
X168517485Y-75886823D01*
X168395060Y-75987875D01*
X168359889Y-76120256D01*
X168359667Y-76136284D01*
X168383952Y-76276378D01*
X168488769Y-76343730D01*
X168676667Y-76370181D01*
X168899053Y-76369671D01*
X169022999Y-76299284D01*
X169092424Y-76179681D01*
X169243916Y-75999956D01*
X169398436Y-75962933D01*
X169542046Y-75983746D01*
X169572566Y-76080705D01*
X171546262Y-76080705D01*
X171540012Y-75991024D01*
X171534920Y-75632171D01*
X171534667Y-75452893D01*
X171535910Y-75043961D01*
X171543592Y-74775908D01*
X171563643Y-74620281D01*
X171601995Y-74548627D01*
X171664576Y-74532491D01*
X171725167Y-74538878D01*
X171814181Y-74561936D01*
X171871633Y-74622406D01*
X171906056Y-74753092D01*
X171925981Y-74986799D01*
X171939943Y-75356330D01*
X171940230Y-75365684D01*
X171963089Y-75805464D01*
X172006273Y-76101808D01*
X172079609Y-76280285D01*
X172192924Y-76366467D01*
X172332434Y-76386266D01*
X172497404Y-76363586D01*
X172608846Y-76278138D01*
X172676557Y-76103810D01*
X172710334Y-75814490D01*
X172719976Y-75384068D01*
X172720000Y-75353333D01*
X172721358Y-74973717D01*
X172730741Y-74732204D01*
X172756116Y-74597565D01*
X172805451Y-74538571D01*
X172886711Y-74523991D01*
X172931667Y-74523600D01*
X173143334Y-74523600D01*
X176325844Y-74523600D01*
X176614667Y-74500416D01*
X176614667Y-76809600D01*
X178731334Y-76809600D01*
X178731334Y-74523600D01*
X178936098Y-74523600D01*
X179053385Y-74544783D01*
X179144470Y-74631493D01*
X179233839Y-74818470D01*
X179324000Y-75073933D01*
X179419106Y-75348240D01*
X179494760Y-75545417D01*
X179535077Y-75624163D01*
X179535667Y-75624266D01*
X179574421Y-75550541D01*
X179649081Y-75356901D01*
X179743763Y-75084648D01*
X179747334Y-75073933D01*
X179853812Y-74777651D01*
X179941732Y-74610399D01*
X180035581Y-74537438D01*
X180135237Y-74523600D01*
X180340000Y-74523600D01*
X186765714Y-74523600D01*
X186782833Y-74521203D01*
X187118458Y-74611065D01*
X187126068Y-74615081D01*
X187323023Y-74808605D01*
X187454339Y-75113332D01*
X187519664Y-75484228D01*
X196587192Y-75484228D01*
X196458416Y-75398961D01*
X196138107Y-75194717D01*
X195717630Y-74931415D01*
X195211992Y-74618416D01*
X194636201Y-74265083D01*
X194005262Y-73880775D01*
X193612493Y-73642858D01*
X192955770Y-73245472D01*
X192344679Y-72874950D01*
X191794293Y-72540487D01*
X191319683Y-72251275D01*
X190935923Y-72016508D01*
X190658083Y-71845381D01*
X190501238Y-71747087D01*
X190471537Y-71726959D01*
X190495799Y-71641472D01*
X190595700Y-71453997D01*
X190748059Y-71200053D01*
X190929696Y-70915162D01*
X191015207Y-70787480D01*
X187621334Y-70787480D01*
X187596801Y-70891631D01*
X187529659Y-71124462D01*
X187429587Y-71453596D01*
X187306268Y-71846658D01*
X187279543Y-71930480D01*
X187136893Y-72367894D01*
X187029543Y-72667984D01*
X186944995Y-72855873D01*
X186870748Y-72956682D01*
X186794305Y-72995536D01*
X186747624Y-72999600D01*
X186660368Y-72982524D01*
X186583515Y-72913628D01*
X186503209Y-72766410D01*
X186405594Y-72514369D01*
X186276813Y-72131001D01*
X186249608Y-72047100D01*
X186188301Y-71857961D01*
X183980667Y-71857961D01*
X183950900Y-72268979D01*
X183847991Y-72582379D01*
X183660332Y-72851433D01*
X183480846Y-72951887D01*
X183214532Y-72995602D01*
X182935163Y-72979522D01*
X182716508Y-72900591D01*
X182703330Y-72891073D01*
X182527733Y-72697771D01*
X182422225Y-72423973D01*
X182392292Y-72171467D01*
X180327641Y-72171467D01*
X180326037Y-72518653D01*
X180317472Y-72770829D01*
X180303152Y-72888837D01*
X180193812Y-72979906D01*
X180088658Y-72999600D01*
X180003862Y-72986373D01*
X179952647Y-72924200D01*
X179926654Y-72779345D01*
X179917527Y-72518069D01*
X179916667Y-72305333D01*
X179908134Y-71962908D01*
X179884052Y-71750422D01*
X179846698Y-71685733D01*
X179838410Y-71691500D01*
X179761840Y-71799677D01*
X179629015Y-72014359D01*
X179465541Y-72293824D01*
X179425325Y-72364600D01*
X179239582Y-72674945D01*
X179098454Y-72858441D01*
X178977039Y-72942645D01*
X178889749Y-72957266D01*
X178689000Y-72957266D01*
X178689000Y-72893766D01*
X176863992Y-72893766D01*
X176795571Y-72973338D01*
X176658614Y-72999600D01*
X176478087Y-72946750D01*
X176395435Y-72787933D01*
X176340324Y-72654581D01*
X176229120Y-72592785D01*
X176009115Y-72576419D01*
X175968393Y-72576266D01*
X175724800Y-72590491D01*
X175592784Y-72650745D01*
X175515735Y-72783400D01*
X175514000Y-72787933D01*
X175385302Y-72960463D01*
X175219763Y-72999600D01*
X175061545Y-72963916D01*
X175010454Y-72893766D01*
X175039323Y-72777324D01*
X175114927Y-72535838D01*
X175226131Y-72203402D01*
X175361803Y-71814111D01*
X175376798Y-71771933D01*
X175405031Y-71694259D01*
X173140186Y-71694259D01*
X173129542Y-72097297D01*
X173040662Y-72480201D01*
X172871349Y-72799327D01*
X172827985Y-72851278D01*
X172635321Y-72957854D01*
X172356019Y-72997991D01*
X172059741Y-72970399D01*
X171816145Y-72873789D01*
X171810796Y-72870103D01*
X171661739Y-72690838D01*
X171535870Y-72411311D01*
X171477772Y-72171467D01*
X169405641Y-72171467D01*
X169404037Y-72518653D01*
X169395472Y-72770829D01*
X169381152Y-72888837D01*
X169293324Y-72950635D01*
X169075777Y-72986584D01*
X168710327Y-72999470D01*
X168658658Y-72999600D01*
X168321929Y-72997365D01*
X168120048Y-72983507D01*
X168018535Y-72947292D01*
X167982906Y-72877985D01*
X167978667Y-72787933D01*
X167990755Y-72666707D01*
X168054644Y-72603586D01*
X168211771Y-72579734D01*
X168444334Y-72576266D01*
X168910000Y-72576266D01*
X168910000Y-71983600D01*
X168486667Y-71983600D01*
X168235423Y-71976737D01*
X168110083Y-71941714D01*
X168067344Y-71856880D01*
X168063334Y-71771933D01*
X168077059Y-71646311D01*
X168147104Y-71583641D01*
X168316774Y-71562271D01*
X168486667Y-71560266D01*
X168737911Y-71553404D01*
X168863251Y-71518381D01*
X168905990Y-71433546D01*
X168910000Y-71348600D01*
X168897913Y-71227374D01*
X168834024Y-71164252D01*
X168676897Y-71140401D01*
X168444334Y-71136933D01*
X168177716Y-71131553D01*
X168038897Y-71102643D01*
X167986400Y-71031042D01*
X167978667Y-70921842D01*
X167984390Y-70816690D01*
X168024230Y-70754377D01*
X168132192Y-70725631D01*
X168342282Y-70721177D01*
X168677167Y-70731342D01*
X169375667Y-70755933D01*
X169399661Y-71767004D01*
X169405641Y-72171467D01*
X171477772Y-72171467D01*
X171460590Y-72100540D01*
X171450473Y-71962433D01*
X171477959Y-71875714D01*
X171586431Y-71830599D01*
X171813835Y-71814999D01*
X171915667Y-71814266D01*
X172182364Y-71819761D01*
X172321231Y-71848801D01*
X172373705Y-71920222D01*
X172381334Y-72025933D01*
X172347668Y-72185503D01*
X172213353Y-72236225D01*
X172163459Y-72237600D01*
X172002523Y-72268597D01*
X171972164Y-72377121D01*
X171973683Y-72385766D01*
X172070522Y-72511105D01*
X172254969Y-72565512D01*
X172458283Y-72543091D01*
X172609992Y-72440347D01*
X172682547Y-72243222D01*
X172714838Y-71952923D01*
X172706898Y-71640745D01*
X172658763Y-71377983D01*
X172609423Y-71272074D01*
X172438263Y-71158991D01*
X172229727Y-71168027D01*
X172051296Y-71288340D01*
X172001424Y-71369766D01*
X171854383Y-71529310D01*
X171726257Y-71560266D01*
X171572723Y-71506180D01*
X171537880Y-71363586D01*
X171618976Y-71161982D01*
X171782154Y-70961087D01*
X172085606Y-70762003D01*
X172424813Y-70712230D01*
X172724690Y-70800776D01*
X172935562Y-71002355D01*
X173074793Y-71314730D01*
X173140186Y-71694259D01*
X175405031Y-71694259D01*
X175530581Y-71348858D01*
X175645521Y-71061318D01*
X175735539Y-70883946D01*
X175814555Y-70791373D01*
X175896490Y-70758232D01*
X175934350Y-70755933D01*
X176021601Y-70772058D01*
X176100399Y-70837317D01*
X176184714Y-70977037D01*
X176288510Y-71216544D01*
X176425757Y-71581164D01*
X176494664Y-71771933D01*
X176633240Y-72164999D01*
X176748373Y-72504800D01*
X176828854Y-72757287D01*
X176863473Y-72888411D01*
X176863992Y-72893766D01*
X178689000Y-72893766D01*
X178689000Y-70755933D01*
X178900667Y-70755933D01*
X179008992Y-70765530D01*
X179075650Y-70818008D01*
X179114853Y-70948893D01*
X179140811Y-71193713D01*
X179154667Y-71390933D01*
X179197000Y-72025933D01*
X179561891Y-71364540D01*
X179748108Y-71040396D01*
X179884350Y-70843463D01*
X179993032Y-70747875D01*
X180096574Y-70727764D01*
X180112224Y-70729540D01*
X180190843Y-70749427D01*
X180244411Y-70801910D01*
X180278779Y-70915973D01*
X180299798Y-71120599D01*
X180313319Y-71444772D01*
X180321661Y-71767004D01*
X180327641Y-72171467D01*
X182392292Y-72171467D01*
X182376173Y-72035502D01*
X182372000Y-71826328D01*
X182380616Y-71492779D01*
X182416312Y-71270683D01*
X182493858Y-71102610D01*
X182591193Y-70974096D01*
X182798847Y-70784430D01*
X183029849Y-70716252D01*
X183104760Y-70713600D01*
X183476773Y-70775941D01*
X183744318Y-70965701D01*
X183910535Y-71286979D01*
X183978562Y-71743879D01*
X183980667Y-71857961D01*
X186188301Y-71857961D01*
X186088440Y-71549882D01*
X185974210Y-71192207D01*
X185903815Y-70951847D01*
X185874156Y-70806572D01*
X185882130Y-70734154D01*
X185924637Y-70712365D01*
X185998575Y-70718975D01*
X186065634Y-70728397D01*
X186187271Y-70755380D01*
X186275889Y-70825599D01*
X186352667Y-70973414D01*
X186438782Y-71233182D01*
X186494238Y-71423754D01*
X186586755Y-71736786D01*
X186664763Y-71981285D01*
X186714952Y-72116147D01*
X186722653Y-72129141D01*
X186761866Y-72071232D01*
X186835501Y-71884647D01*
X186930788Y-71603334D01*
X186981831Y-71440153D01*
X187092277Y-71092192D01*
X187176894Y-70876677D01*
X187254061Y-70762591D01*
X187342159Y-70718920D01*
X187412389Y-70713600D01*
X187570252Y-70739212D01*
X187621334Y-70787480D01*
X191015207Y-70787480D01*
X191117431Y-70634843D01*
X191288084Y-70394618D01*
X191418475Y-70230006D01*
X191483692Y-70175966D01*
X191567552Y-70221664D01*
X191782211Y-70348630D01*
X192114577Y-70548872D01*
X192551554Y-70814395D01*
X193080047Y-71137205D01*
X193686961Y-71509309D01*
X194359203Y-71922713D01*
X195083676Y-72369422D01*
X195644480Y-72715966D01*
X199730625Y-75243266D01*
X201792502Y-75243266D01*
X201426936Y-74622380D01*
X201084769Y-74039724D01*
X200792389Y-73540186D01*
X200557846Y-73137510D01*
X200389194Y-72845440D01*
X200294482Y-72677721D01*
X200276840Y-72643501D01*
X200320893Y-72545894D01*
X200479287Y-72397273D01*
X200716772Y-72219510D01*
X200998094Y-72034479D01*
X201288003Y-71864051D01*
X201551246Y-71730101D01*
X201752570Y-71654501D01*
X201856725Y-71659124D01*
X201858803Y-71661936D01*
X201916134Y-71756184D01*
X202050744Y-71980200D01*
X202253242Y-72318277D01*
X202514239Y-72754710D01*
X202824346Y-73273793D01*
X203174174Y-73859821D01*
X203554331Y-74497088D01*
X203761618Y-74844735D01*
X205593490Y-77917537D01*
X205738546Y-77681068D01*
X205813809Y-77557892D01*
X205966761Y-77307170D01*
X206186999Y-76945969D01*
X206464120Y-76491358D01*
X206787718Y-75960405D01*
X207147391Y-75370177D01*
X207532734Y-74737743D01*
X207637410Y-74565933D01*
X208023211Y-73933578D01*
X208382557Y-73346300D01*
X208705708Y-72819888D01*
X208982927Y-72370128D01*
X209204476Y-72012807D01*
X209360615Y-71763713D01*
X209441607Y-71638635D01*
X209449953Y-71627489D01*
X209541445Y-71644571D01*
X209742144Y-71737897D01*
X210019505Y-71891089D01*
X210249038Y-72029655D01*
X210560709Y-72221720D01*
X210816342Y-72374732D01*
X210983830Y-72469743D01*
X211031694Y-72491599D01*
X211046417Y-72411813D01*
X211058911Y-72191964D01*
X211068203Y-71861319D01*
X211073316Y-71449144D01*
X211074000Y-71221600D01*
X211074000Y-69951600D01*
X167809334Y-69951600D01*
X167809334Y-81127600D01*
M02*
