G04 #@! TF.GenerationSoftware,KiCad,Pcbnew,(5.1.2-1)-1*
G04 #@! TF.CreationDate,2019-10-09T15:23:33+01:00*
G04 #@! TF.ProjectId,PixlVBoard,5069786c-5642-46f6-9172-642e6b696361,rev?*
G04 #@! TF.SameCoordinates,Original*
G04 #@! TF.FileFunction,Copper,L2,Bot*
G04 #@! TF.FilePolarity,Positive*
%FSLAX46Y46*%
G04 Gerber Fmt 4.6, Leading zero omitted, Abs format (unit mm)*
G04 Created by KiCad (PCBNEW (5.1.2-1)-1) date 2019-10-09 15:23:33*
%MOMM*%
%LPD*%
G04 APERTURE LIST*
%ADD10C,1.508000*%
%ADD11O,1.700000X1.700000*%
%ADD12R,1.700000X1.700000*%
%ADD13O,1.750000X1.200000*%
%ADD14C,0.150000*%
%ADD15C,1.200000*%
G04 APERTURE END LIST*
D10*
X183124000Y-127609600D03*
X175524000Y-127609600D03*
D11*
X165608000Y-91795600D03*
X165608000Y-89255600D03*
X165608000Y-86715600D03*
X165608000Y-84175600D03*
X165608000Y-81635600D03*
X165608000Y-79095600D03*
X165608000Y-76555600D03*
D12*
X165608000Y-74015600D03*
D11*
X190754000Y-120497600D03*
X193294000Y-120497600D03*
X195834000Y-120497600D03*
X198374000Y-120497600D03*
D12*
X200914000Y-120497600D03*
X209042000Y-120751600D03*
D11*
X209042000Y-118211600D03*
X211582000Y-120751600D03*
X211582000Y-118211600D03*
X214122000Y-120751600D03*
X214122000Y-118211600D03*
X216662000Y-120751600D03*
X216662000Y-118211600D03*
X202692000Y-114808000D03*
X200152000Y-114808000D03*
X197612000Y-114808000D03*
X195072000Y-114808000D03*
X192532000Y-114808000D03*
X189992000Y-114808000D03*
X187452000Y-114808000D03*
X184912000Y-114808000D03*
X182372000Y-114808000D03*
X179832000Y-114808000D03*
X177292000Y-114808000D03*
X174752000Y-114808000D03*
X172212000Y-114808000D03*
X169672000Y-114808000D03*
D12*
X167132000Y-114808000D03*
D13*
X172212000Y-107765600D03*
D14*
G36*
X172861505Y-105166804D02*
G01*
X172885773Y-105170404D01*
X172909572Y-105176365D01*
X172932671Y-105184630D01*
X172954850Y-105195120D01*
X172975893Y-105207732D01*
X172995599Y-105222347D01*
X173013777Y-105238823D01*
X173030253Y-105257001D01*
X173044868Y-105276707D01*
X173057480Y-105297750D01*
X173067970Y-105319929D01*
X173076235Y-105343028D01*
X173082196Y-105366827D01*
X173085796Y-105391095D01*
X173087000Y-105415599D01*
X173087000Y-106115601D01*
X173085796Y-106140105D01*
X173082196Y-106164373D01*
X173076235Y-106188172D01*
X173067970Y-106211271D01*
X173057480Y-106233450D01*
X173044868Y-106254493D01*
X173030253Y-106274199D01*
X173013777Y-106292377D01*
X172995599Y-106308853D01*
X172975893Y-106323468D01*
X172954850Y-106336080D01*
X172932671Y-106346570D01*
X172909572Y-106354835D01*
X172885773Y-106360796D01*
X172861505Y-106364396D01*
X172837001Y-106365600D01*
X171586999Y-106365600D01*
X171562495Y-106364396D01*
X171538227Y-106360796D01*
X171514428Y-106354835D01*
X171491329Y-106346570D01*
X171469150Y-106336080D01*
X171448107Y-106323468D01*
X171428401Y-106308853D01*
X171410223Y-106292377D01*
X171393747Y-106274199D01*
X171379132Y-106254493D01*
X171366520Y-106233450D01*
X171356030Y-106211271D01*
X171347765Y-106188172D01*
X171341804Y-106164373D01*
X171338204Y-106140105D01*
X171337000Y-106115601D01*
X171337000Y-105415599D01*
X171338204Y-105391095D01*
X171341804Y-105366827D01*
X171347765Y-105343028D01*
X171356030Y-105319929D01*
X171366520Y-105297750D01*
X171379132Y-105276707D01*
X171393747Y-105257001D01*
X171410223Y-105238823D01*
X171428401Y-105222347D01*
X171448107Y-105207732D01*
X171469150Y-105195120D01*
X171491329Y-105184630D01*
X171514428Y-105176365D01*
X171538227Y-105170404D01*
X171562495Y-105166804D01*
X171586999Y-105165600D01*
X172837001Y-105165600D01*
X172861505Y-105166804D01*
X172861505Y-105166804D01*
G37*
D15*
X172212000Y-105765600D03*
D12*
X167132000Y-66903600D03*
D11*
X169672000Y-66903600D03*
X172212000Y-66903600D03*
X174752000Y-66903600D03*
X177292000Y-66903600D03*
X179832000Y-66903600D03*
X182372000Y-66903600D03*
X184912000Y-66903600D03*
X211582000Y-66903600D03*
X209042000Y-66903600D03*
X206502000Y-66903600D03*
X203962000Y-66903600D03*
X201422000Y-66903600D03*
X198882000Y-66903600D03*
X196342000Y-66903600D03*
X193802000Y-66903600D03*
X191262000Y-66903600D03*
D12*
X188722000Y-66903600D03*
M02*
