G04 #@! TF.GenerationSoftware,KiCad,Pcbnew,(5.1.2-1)-1*
G04 #@! TF.CreationDate,2019-10-09T15:23:33+01:00*
G04 #@! TF.ProjectId,PixlVBoard,5069786c-5642-46f6-9172-642e6b696361,rev?*
G04 #@! TF.SameCoordinates,Original*
G04 #@! TF.FileFunction,Legend,Top*
G04 #@! TF.FilePolarity,Positive*
%FSLAX46Y46*%
G04 Gerber Fmt 4.6, Leading zero omitted, Abs format (unit mm)*
G04 Created by KiCad (PCBNEW (5.1.2-1)-1) date 2019-10-09 15:23:33*
%MOMM*%
%LPD*%
G04 APERTURE LIST*
%ADD10C,0.150000*%
%ADD11C,0.300000*%
%ADD12C,0.127000*%
%ADD13C,0.120000*%
%ADD14C,0.050000*%
G04 APERTURE END LIST*
D10*
X160551904Y-89707980D02*
X160551904Y-88707980D01*
X160790000Y-88707980D01*
X160932857Y-88755600D01*
X161028095Y-88850838D01*
X161075714Y-88946076D01*
X161123333Y-89136552D01*
X161123333Y-89279409D01*
X161075714Y-89469885D01*
X161028095Y-89565123D01*
X160932857Y-89660361D01*
X160790000Y-89707980D01*
X160551904Y-89707980D01*
X161456666Y-88707980D02*
X162123333Y-88707980D01*
X161694761Y-89707980D01*
X160551904Y-87167980D02*
X160551904Y-86167980D01*
X160790000Y-86167980D01*
X160932857Y-86215600D01*
X161028095Y-86310838D01*
X161075714Y-86406076D01*
X161123333Y-86596552D01*
X161123333Y-86739409D01*
X161075714Y-86929885D01*
X161028095Y-87025123D01*
X160932857Y-87120361D01*
X160790000Y-87167980D01*
X160551904Y-87167980D01*
X161980476Y-86167980D02*
X161790000Y-86167980D01*
X161694761Y-86215600D01*
X161647142Y-86263219D01*
X161551904Y-86406076D01*
X161504285Y-86596552D01*
X161504285Y-86977504D01*
X161551904Y-87072742D01*
X161599523Y-87120361D01*
X161694761Y-87167980D01*
X161885238Y-87167980D01*
X161980476Y-87120361D01*
X162028095Y-87072742D01*
X162075714Y-86977504D01*
X162075714Y-86739409D01*
X162028095Y-86644171D01*
X161980476Y-86596552D01*
X161885238Y-86548933D01*
X161694761Y-86548933D01*
X161599523Y-86596552D01*
X161551904Y-86644171D01*
X161504285Y-86739409D01*
X160551904Y-84627980D02*
X160551904Y-83627980D01*
X160790000Y-83627980D01*
X160932857Y-83675600D01*
X161028095Y-83770838D01*
X161075714Y-83866076D01*
X161123333Y-84056552D01*
X161123333Y-84199409D01*
X161075714Y-84389885D01*
X161028095Y-84485123D01*
X160932857Y-84580361D01*
X160790000Y-84627980D01*
X160551904Y-84627980D01*
X162028095Y-83627980D02*
X161551904Y-83627980D01*
X161504285Y-84104171D01*
X161551904Y-84056552D01*
X161647142Y-84008933D01*
X161885238Y-84008933D01*
X161980476Y-84056552D01*
X162028095Y-84104171D01*
X162075714Y-84199409D01*
X162075714Y-84437504D01*
X162028095Y-84532742D01*
X161980476Y-84580361D01*
X161885238Y-84627980D01*
X161647142Y-84627980D01*
X161551904Y-84580361D01*
X161504285Y-84532742D01*
X160551904Y-82087980D02*
X160551904Y-81087980D01*
X160790000Y-81087980D01*
X160932857Y-81135600D01*
X161028095Y-81230838D01*
X161075714Y-81326076D01*
X161123333Y-81516552D01*
X161123333Y-81659409D01*
X161075714Y-81849885D01*
X161028095Y-81945123D01*
X160932857Y-82040361D01*
X160790000Y-82087980D01*
X160551904Y-82087980D01*
X161980476Y-81421314D02*
X161980476Y-82087980D01*
X161742380Y-81040361D02*
X161504285Y-81754647D01*
X162123333Y-81754647D01*
X160551904Y-79547980D02*
X160551904Y-78547980D01*
X160790000Y-78547980D01*
X160932857Y-78595600D01*
X161028095Y-78690838D01*
X161075714Y-78786076D01*
X161123333Y-78976552D01*
X161123333Y-79119409D01*
X161075714Y-79309885D01*
X161028095Y-79405123D01*
X160932857Y-79500361D01*
X160790000Y-79547980D01*
X160551904Y-79547980D01*
X161456666Y-78547980D02*
X162075714Y-78547980D01*
X161742380Y-78928933D01*
X161885238Y-78928933D01*
X161980476Y-78976552D01*
X162028095Y-79024171D01*
X162075714Y-79119409D01*
X162075714Y-79357504D01*
X162028095Y-79452742D01*
X161980476Y-79500361D01*
X161885238Y-79547980D01*
X161599523Y-79547980D01*
X161504285Y-79500361D01*
X161456666Y-79452742D01*
X160551904Y-76753980D02*
X160551904Y-75753980D01*
X160790000Y-75753980D01*
X160932857Y-75801600D01*
X161028095Y-75896838D01*
X161075714Y-75992076D01*
X161123333Y-76182552D01*
X161123333Y-76325409D01*
X161075714Y-76515885D01*
X161028095Y-76611123D01*
X160932857Y-76706361D01*
X160790000Y-76753980D01*
X160551904Y-76753980D01*
X161504285Y-75849219D02*
X161551904Y-75801600D01*
X161647142Y-75753980D01*
X161885238Y-75753980D01*
X161980476Y-75801600D01*
X162028095Y-75849219D01*
X162075714Y-75944457D01*
X162075714Y-76039695D01*
X162028095Y-76182552D01*
X161456666Y-76753980D01*
X162075714Y-76753980D01*
X160782095Y-91549600D02*
X160686857Y-91501980D01*
X160544000Y-91501980D01*
X160401142Y-91549600D01*
X160305904Y-91644838D01*
X160258285Y-91740076D01*
X160210666Y-91930552D01*
X160210666Y-92073409D01*
X160258285Y-92263885D01*
X160305904Y-92359123D01*
X160401142Y-92454361D01*
X160544000Y-92501980D01*
X160639238Y-92501980D01*
X160782095Y-92454361D01*
X160829714Y-92406742D01*
X160829714Y-92073409D01*
X160639238Y-92073409D01*
X161258285Y-92501980D02*
X161258285Y-91501980D01*
X161829714Y-92501980D01*
X161829714Y-91501980D01*
X162305904Y-92501980D02*
X162305904Y-91501980D01*
X162544000Y-91501980D01*
X162686857Y-91549600D01*
X162782095Y-91644838D01*
X162829714Y-91740076D01*
X162877333Y-91930552D01*
X162877333Y-92073409D01*
X162829714Y-92263885D01*
X162782095Y-92359123D01*
X162686857Y-92454361D01*
X162544000Y-92501980D01*
X162305904Y-92501980D01*
X160353523Y-73467980D02*
X160686857Y-74467980D01*
X161020190Y-73467980D01*
X161782095Y-74420361D02*
X161686857Y-74467980D01*
X161496380Y-74467980D01*
X161401142Y-74420361D01*
X161353523Y-74372742D01*
X161305904Y-74277504D01*
X161305904Y-73991790D01*
X161353523Y-73896552D01*
X161401142Y-73848933D01*
X161496380Y-73801314D01*
X161686857Y-73801314D01*
X161782095Y-73848933D01*
X162639238Y-74420361D02*
X162544000Y-74467980D01*
X162353523Y-74467980D01*
X162258285Y-74420361D01*
X162210666Y-74372742D01*
X162163047Y-74277504D01*
X162163047Y-73991790D01*
X162210666Y-73896552D01*
X162258285Y-73848933D01*
X162353523Y-73801314D01*
X162544000Y-73801314D01*
X162639238Y-73848933D01*
D11*
X181872000Y-116374171D02*
X182872000Y-117874171D01*
X182872000Y-116374171D02*
X181872000Y-117874171D01*
D12*
X186824000Y-127609600D02*
G75*
G03X186824000Y-127609600I-7500000J0D01*
G01*
D13*
X164278000Y-72685600D02*
X165608000Y-72685600D01*
X164278000Y-74015600D02*
X164278000Y-72685600D01*
X164278000Y-75285600D02*
X166938000Y-75285600D01*
X166938000Y-75285600D02*
X166938000Y-93125600D01*
X164278000Y-75285600D02*
X164278000Y-93125600D01*
X164278000Y-93125600D02*
X166938000Y-93125600D01*
X202244000Y-119167600D02*
X202244000Y-120497600D01*
X200914000Y-119167600D02*
X202244000Y-119167600D01*
X199644000Y-119167600D02*
X199644000Y-121827600D01*
X199644000Y-121827600D02*
X189424000Y-121827600D01*
X199644000Y-119167600D02*
X189424000Y-119167600D01*
X189424000Y-119167600D02*
X189424000Y-121827600D01*
X217992000Y-122081600D02*
X217992000Y-116881600D01*
X210312000Y-122081600D02*
X217992000Y-122081600D01*
X207712000Y-116881600D02*
X217992000Y-116881600D01*
X210312000Y-122081600D02*
X210312000Y-119481600D01*
X210312000Y-119481600D02*
X207712000Y-119481600D01*
X207712000Y-119481600D02*
X207712000Y-116881600D01*
X209042000Y-122081600D02*
X207712000Y-122081600D01*
X207712000Y-122081600D02*
X207712000Y-120751600D01*
X180849000Y-102836600D02*
X184734000Y-102836600D01*
X180849000Y-100566600D02*
X180849000Y-102836600D01*
X184734000Y-100566600D02*
X180849000Y-100566600D01*
X192945936Y-109681600D02*
X194150064Y-109681600D01*
X192945936Y-111501600D02*
X194150064Y-111501600D01*
X198592000Y-104895600D02*
X204602000Y-104895600D01*
X200842000Y-111715600D02*
X204602000Y-111715600D01*
X204602000Y-104895600D02*
X204602000Y-106155600D01*
X204602000Y-111715600D02*
X204602000Y-110455600D01*
X165802000Y-116138000D02*
X165802000Y-114808000D01*
X167132000Y-116138000D02*
X165802000Y-116138000D01*
X168402000Y-116138000D02*
X168402000Y-113478000D01*
X168402000Y-113478000D02*
X204022000Y-113478000D01*
X168402000Y-116138000D02*
X204022000Y-116138000D01*
X204022000Y-116138000D02*
X204022000Y-113478000D01*
X172072000Y-104905600D02*
X173287000Y-104905600D01*
X168112000Y-104965600D02*
X165852000Y-104965600D01*
X168112000Y-105465600D02*
X165852000Y-105465600D01*
X169712000Y-108065600D02*
X169712000Y-109065600D01*
X168112000Y-108065600D02*
X169712000Y-108065600D01*
X168112000Y-109065600D02*
X168112000Y-108065600D01*
X169712000Y-109065600D02*
X168112000Y-109065600D01*
X169712000Y-105465600D02*
X169712000Y-104465600D01*
X168112000Y-105465600D02*
X169712000Y-105465600D01*
X168112000Y-104465600D02*
X168112000Y-105465600D01*
X169712000Y-104465600D02*
X168112000Y-104465600D01*
X172072000Y-109825600D02*
X172072000Y-108905600D01*
X172072000Y-103705600D02*
X172072000Y-104625600D01*
X170212000Y-107265600D02*
X165852000Y-107265600D01*
X170212000Y-106265600D02*
X170212000Y-107265600D01*
X165852000Y-106265600D02*
X170212000Y-106265600D01*
X172072000Y-108905600D02*
X172072000Y-108625600D01*
X173672000Y-108905600D02*
X172072000Y-108905600D01*
X173672000Y-109825600D02*
X173672000Y-108905600D01*
X165852000Y-109825600D02*
X173672000Y-109825600D01*
X165852000Y-103705600D02*
X165852000Y-109825600D01*
X173672000Y-103705600D02*
X165852000Y-103705600D01*
X173672000Y-104625600D02*
X173672000Y-103705600D01*
X172072000Y-104625600D02*
X173672000Y-104625600D01*
X172072000Y-104905600D02*
X172072000Y-104625600D01*
X166784000Y-57194000D02*
X174084000Y-57194000D01*
X166784000Y-62694000D02*
X174084000Y-62694000D01*
X174084000Y-62694000D02*
X174084000Y-61544000D01*
X204376000Y-57194000D02*
X211676000Y-57194000D01*
X204376000Y-62694000D02*
X211676000Y-62694000D01*
X211676000Y-62694000D02*
X211676000Y-61544000D01*
X194978000Y-57194000D02*
X202278000Y-57194000D01*
X194978000Y-62694000D02*
X202278000Y-62694000D01*
X202278000Y-62694000D02*
X202278000Y-61544000D01*
X185580000Y-57194000D02*
X192880000Y-57194000D01*
X185580000Y-62694000D02*
X192880000Y-62694000D01*
X192880000Y-62694000D02*
X192880000Y-61544000D01*
X183736000Y-62694000D02*
X183736000Y-61544000D01*
X176436000Y-62694000D02*
X183736000Y-62694000D01*
X176436000Y-57194000D02*
X183736000Y-57194000D01*
X186242000Y-68233600D02*
X186242000Y-65573600D01*
X168402000Y-68233600D02*
X186242000Y-68233600D01*
X168402000Y-65573600D02*
X186242000Y-65573600D01*
X168402000Y-68233600D02*
X168402000Y-65573600D01*
X167132000Y-68233600D02*
X165802000Y-68233600D01*
X165802000Y-68233600D02*
X165802000Y-66903600D01*
X187392000Y-68233600D02*
X187392000Y-66903600D01*
X188722000Y-68233600D02*
X187392000Y-68233600D01*
X189992000Y-68233600D02*
X189992000Y-65573600D01*
X189992000Y-65573600D02*
X212912000Y-65573600D01*
X189992000Y-68233600D02*
X212912000Y-68233600D01*
X212912000Y-68233600D02*
X212912000Y-65573600D01*
D14*
X176259427Y-119099765D02*
X176402698Y-119147522D01*
X176641484Y-119147522D01*
X176736998Y-119099765D01*
X176784755Y-119052008D01*
X176832512Y-118956494D01*
X176832512Y-118860980D01*
X176784755Y-118765465D01*
X176736998Y-118717708D01*
X176641484Y-118669951D01*
X176450455Y-118622194D01*
X176354941Y-118574437D01*
X176307184Y-118526680D01*
X176259427Y-118431165D01*
X176259427Y-118335651D01*
X176307184Y-118240137D01*
X176354941Y-118192380D01*
X176450455Y-118144622D01*
X176689241Y-118144622D01*
X176832512Y-118192380D01*
X177262327Y-119147522D02*
X177262327Y-118144622D01*
X177644384Y-118144622D01*
X177739898Y-118192380D01*
X177787655Y-118240137D01*
X177835412Y-118335651D01*
X177835412Y-118478922D01*
X177787655Y-118574437D01*
X177739898Y-118622194D01*
X177644384Y-118669951D01*
X177262327Y-118669951D01*
X178265227Y-119147522D02*
X178265227Y-118144622D01*
X178838312Y-119147522D02*
X178408498Y-118574437D01*
X178838312Y-118144622D02*
X178265227Y-118717708D01*
X179841212Y-119147522D02*
X179506912Y-118669951D01*
X179268127Y-119147522D02*
X179268127Y-118144622D01*
X179650184Y-118144622D01*
X179745698Y-118192380D01*
X179793455Y-118240137D01*
X179841212Y-118335651D01*
X179841212Y-118478922D01*
X179793455Y-118574437D01*
X179745698Y-118622194D01*
X179650184Y-118669951D01*
X179268127Y-118669951D01*
X186973587Y-127808211D02*
X187735492Y-127808211D01*
X169805577Y-127681028D02*
X170567482Y-127681028D01*
X170186530Y-128061980D02*
X170186530Y-127300076D01*
D10*
X164608000Y-70721600D02*
X164512761Y-70673980D01*
X164369904Y-70673980D01*
X164227047Y-70721600D01*
X164131809Y-70816838D01*
X164084190Y-70912076D01*
X164036571Y-71102552D01*
X164036571Y-71245409D01*
X164084190Y-71435885D01*
X164131809Y-71531123D01*
X164227047Y-71626361D01*
X164369904Y-71673980D01*
X164465142Y-71673980D01*
X164608000Y-71626361D01*
X164655619Y-71578742D01*
X164655619Y-71245409D01*
X164465142Y-71245409D01*
X165084190Y-71673980D02*
X165084190Y-70673980D01*
X165465142Y-70673980D01*
X165560380Y-70721600D01*
X165608000Y-70769219D01*
X165655619Y-70864457D01*
X165655619Y-71007314D01*
X165608000Y-71102552D01*
X165560380Y-71150171D01*
X165465142Y-71197790D01*
X165084190Y-71197790D01*
X166084190Y-71673980D02*
X166084190Y-70673980D01*
X166750857Y-70673980D02*
X166941333Y-70673980D01*
X167036571Y-70721600D01*
X167131809Y-70816838D01*
X167179428Y-71007314D01*
X167179428Y-71340647D01*
X167131809Y-71531123D01*
X167036571Y-71626361D01*
X166941333Y-71673980D01*
X166750857Y-71673980D01*
X166655619Y-71626361D01*
X166560380Y-71531123D01*
X166512761Y-71340647D01*
X166512761Y-71007314D01*
X166560380Y-70816838D01*
X166655619Y-70721600D01*
X166750857Y-70673980D01*
X194349809Y-123997980D02*
X194349809Y-122997980D01*
X194778380Y-123093219D02*
X194826000Y-123045600D01*
X194921238Y-122997980D01*
X195159333Y-122997980D01*
X195254571Y-123045600D01*
X195302190Y-123093219D01*
X195349809Y-123188457D01*
X195349809Y-123283695D01*
X195302190Y-123426552D01*
X194730761Y-123997980D01*
X195349809Y-123997980D01*
X196349809Y-123902742D02*
X196302190Y-123950361D01*
X196159333Y-123997980D01*
X196064095Y-123997980D01*
X195921238Y-123950361D01*
X195826000Y-123855123D01*
X195778380Y-123759885D01*
X195730761Y-123569409D01*
X195730761Y-123426552D01*
X195778380Y-123236076D01*
X195826000Y-123140838D01*
X195921238Y-123045600D01*
X196064095Y-122997980D01*
X196159333Y-122997980D01*
X196302190Y-123045600D01*
X196349809Y-123093219D01*
X206640571Y-122243504D02*
X206640571Y-121910171D01*
X207164380Y-121767314D02*
X207164380Y-122243504D01*
X206164380Y-122243504D01*
X206164380Y-121767314D01*
X207116761Y-121386361D02*
X207164380Y-121243504D01*
X207164380Y-121005409D01*
X207116761Y-120910171D01*
X207069142Y-120862552D01*
X206973904Y-120814933D01*
X206878666Y-120814933D01*
X206783428Y-120862552D01*
X206735809Y-120910171D01*
X206688190Y-121005409D01*
X206640571Y-121195885D01*
X206592952Y-121291123D01*
X206545333Y-121338742D01*
X206450095Y-121386361D01*
X206354857Y-121386361D01*
X206259619Y-121338742D01*
X206212000Y-121291123D01*
X206164380Y-121195885D01*
X206164380Y-120957790D01*
X206212000Y-120814933D01*
X207164380Y-120386361D02*
X206164380Y-120386361D01*
X206164380Y-120005409D01*
X206212000Y-119910171D01*
X206259619Y-119862552D01*
X206354857Y-119814933D01*
X206497714Y-119814933D01*
X206592952Y-119862552D01*
X206640571Y-119910171D01*
X206688190Y-120005409D01*
X206688190Y-120386361D01*
X206783428Y-119386361D02*
X206783428Y-118624457D01*
X206164380Y-117957790D02*
X206164380Y-117862552D01*
X206212000Y-117767314D01*
X206259619Y-117719695D01*
X206354857Y-117672076D01*
X206545333Y-117624457D01*
X206783428Y-117624457D01*
X206973904Y-117672076D01*
X207069142Y-117719695D01*
X207116761Y-117767314D01*
X207164380Y-117862552D01*
X207164380Y-117957790D01*
X207116761Y-118053028D01*
X207069142Y-118100647D01*
X206973904Y-118148266D01*
X206783428Y-118195885D01*
X206545333Y-118195885D01*
X206354857Y-118148266D01*
X206259619Y-118100647D01*
X206212000Y-118053028D01*
X206164380Y-117957790D01*
X207164380Y-116672076D02*
X207164380Y-117243504D01*
X207164380Y-116957790D02*
X206164380Y-116957790D01*
X206307238Y-117053028D01*
X206402476Y-117148266D01*
X206450095Y-117243504D01*
X182395904Y-100333980D02*
X182395904Y-99333980D01*
X182634000Y-99333980D01*
X182776857Y-99381600D01*
X182872095Y-99476838D01*
X182919714Y-99572076D01*
X182967333Y-99762552D01*
X182967333Y-99905409D01*
X182919714Y-100095885D01*
X182872095Y-100191123D01*
X182776857Y-100286361D01*
X182634000Y-100333980D01*
X182395904Y-100333980D01*
X183919714Y-100333980D02*
X183348285Y-100333980D01*
X183634000Y-100333980D02*
X183634000Y-99333980D01*
X183538761Y-99476838D01*
X183443523Y-99572076D01*
X183348285Y-99619695D01*
X193381333Y-109128742D02*
X193333714Y-109176361D01*
X193190857Y-109223980D01*
X193095619Y-109223980D01*
X192952761Y-109176361D01*
X192857523Y-109081123D01*
X192809904Y-108985885D01*
X192762285Y-108795409D01*
X192762285Y-108652552D01*
X192809904Y-108462076D01*
X192857523Y-108366838D01*
X192952761Y-108271600D01*
X193095619Y-108223980D01*
X193190857Y-108223980D01*
X193333714Y-108271600D01*
X193381333Y-108319219D01*
X194333714Y-109223980D02*
X193762285Y-109223980D01*
X194048000Y-109223980D02*
X194048000Y-108223980D01*
X193952761Y-108366838D01*
X193857523Y-108462076D01*
X193762285Y-108509695D01*
X201572952Y-104257980D02*
X201239619Y-103781790D01*
X201001523Y-104257980D02*
X201001523Y-103257980D01*
X201382476Y-103257980D01*
X201477714Y-103305600D01*
X201525333Y-103353219D01*
X201572952Y-103448457D01*
X201572952Y-103591314D01*
X201525333Y-103686552D01*
X201477714Y-103734171D01*
X201382476Y-103781790D01*
X201001523Y-103781790D01*
X202001523Y-103734171D02*
X202334857Y-103734171D01*
X202477714Y-104257980D02*
X202001523Y-104257980D01*
X202001523Y-103257980D01*
X202477714Y-103257980D01*
X203430095Y-103305600D02*
X203334857Y-103257980D01*
X203192000Y-103257980D01*
X203049142Y-103305600D01*
X202953904Y-103400838D01*
X202906285Y-103496076D01*
X202858666Y-103686552D01*
X202858666Y-103829409D01*
X202906285Y-104019885D01*
X202953904Y-104115123D01*
X203049142Y-104210361D01*
X203192000Y-104257980D01*
X203287238Y-104257980D01*
X203430095Y-104210361D01*
X203477714Y-104162742D01*
X203477714Y-103829409D01*
X203287238Y-103829409D01*
X203858666Y-103353219D02*
X203906285Y-103305600D01*
X204001523Y-103257980D01*
X204239619Y-103257980D01*
X204334857Y-103305600D01*
X204382476Y-103353219D01*
X204430095Y-103448457D01*
X204430095Y-103543695D01*
X204382476Y-103686552D01*
X203811047Y-104257980D01*
X204430095Y-104257980D01*
X174214380Y-107098933D02*
X174928666Y-107098933D01*
X175071523Y-107146552D01*
X175166761Y-107241790D01*
X175214380Y-107384647D01*
X175214380Y-107479885D01*
X175214380Y-106098933D02*
X175214380Y-106670361D01*
X175214380Y-106384647D02*
X174214380Y-106384647D01*
X174357238Y-106479885D01*
X174452476Y-106575123D01*
X174500095Y-106670361D01*
M02*
