%FSLAX45Y45*%
G04 Gerber Fmt 4.5, Leading zero omitted, Abs format (unit mm)*
G04 Created by KiCad (PCBNEW (5.1.2-1)-1) date 2019-10-09 15:24:18*
%MOMM*%
%LPD*%
G04 APERTURE LIST*
%ADD10C,0.050000*%
%ADD11C,0.100000*%
%ADD12C,0.200000*%
%ADD13C,0.300000*%
G04 APERTURE END LIST*
D10*
X16508584Y-5801360D02*
G75*
G03X16508584Y-5801360I-227185J0D01*
G01*
X21893385Y-5801360D02*
G75*
G03X21893385Y-5801360I-227185J0D01*
G01*
D11*
X21996400Y-13868400D02*
G75*
G02X21793200Y-14071600I-203200J0D01*
G01*
X16154400Y-14071600D02*
G75*
G02X15951200Y-13868400I0J203200D01*
G01*
X21793200Y-5461000D02*
G75*
G02X21996400Y-5664200I0J-203200D01*
G01*
X15951200Y-5664200D02*
G75*
G02X16154400Y-5461000I203200J0D01*
G01*
X21793200Y-5461000D02*
X16154400Y-5461000D01*
X21996400Y-13878560D02*
X21996400Y-5648960D01*
X16154400Y-14071600D02*
X21793200Y-14071600D01*
X15951200Y-5664200D02*
X15951200Y-13878560D01*
D12*
X17183700Y-10539060D02*
X17258700Y-10614060D01*
X17258700Y-10539060D02*
X17183700Y-10614060D01*
X17183700Y-10739060D02*
X17258700Y-10814060D01*
X17258700Y-10739060D02*
X17183700Y-10814060D01*
X19125400Y-12049760D02*
G75*
G03X19125400Y-12049760I-50000J0D01*
G01*
X19379400Y-12049760D02*
G75*
G03X19379400Y-12049760I-50000J0D01*
G01*
X19633400Y-12049760D02*
G75*
G03X19633400Y-12049760I-50000J0D01*
G01*
X19887400Y-12049760D02*
G75*
G03X19887400Y-12049760I-50000J0D01*
G01*
X20141400Y-12049760D02*
G75*
G03X20141400Y-12049760I-50000J0D01*
G01*
X16763200Y-11480800D02*
G75*
G03X16763200Y-11480800I-50000J0D01*
G01*
X17017200Y-11480800D02*
G75*
G03X17017200Y-11480800I-50000J0D01*
G01*
X17271200Y-11480800D02*
G75*
G03X17271200Y-11480800I-50000J0D01*
G01*
X17525200Y-11480800D02*
G75*
G03X17525200Y-11480800I-50000J0D01*
G01*
X17779200Y-11480800D02*
G75*
G03X17779200Y-11480800I-50000J0D01*
G01*
X18033200Y-11480800D02*
G75*
G03X18033200Y-11480800I-50000J0D01*
G01*
X18287200Y-11480800D02*
G75*
G03X18287200Y-11480800I-50000J0D01*
G01*
X18541200Y-11480800D02*
G75*
G03X18541200Y-11480800I-50000J0D01*
G01*
X18795200Y-11480800D02*
G75*
G03X18795200Y-11480800I-50000J0D01*
G01*
X19049200Y-11480800D02*
G75*
G03X19049200Y-11480800I-50000J0D01*
G01*
X19303200Y-11480800D02*
G75*
G03X19303200Y-11480800I-50000J0D01*
G01*
X19557200Y-11480800D02*
G75*
G03X19557200Y-11480800I-50000J0D01*
G01*
X19811200Y-11480800D02*
G75*
G03X19811200Y-11480800I-50000J0D01*
G01*
X20065200Y-11480800D02*
G75*
G03X20065200Y-11480800I-50000J0D01*
G01*
X20319200Y-11480800D02*
G75*
G03X20319200Y-11480800I-50000J0D01*
G01*
X18922200Y-6690360D02*
G75*
G03X18922200Y-6690360I-50000J0D01*
G01*
X19176200Y-6690360D02*
G75*
G03X19176200Y-6690360I-50000J0D01*
G01*
X19430200Y-6690360D02*
G75*
G03X19430200Y-6690360I-50000J0D01*
G01*
X19684200Y-6690360D02*
G75*
G03X19684200Y-6690360I-50000J0D01*
G01*
X19938200Y-6690360D02*
G75*
G03X19938200Y-6690360I-50000J0D01*
G01*
X20192200Y-6690360D02*
G75*
G03X20192200Y-6690360I-50000J0D01*
G01*
X20446200Y-6690360D02*
G75*
G03X20446200Y-6690360I-50000J0D01*
G01*
X20700200Y-6690360D02*
G75*
G03X20700200Y-6690360I-50000J0D01*
G01*
X20954200Y-6690360D02*
G75*
G03X20954200Y-6690360I-50000J0D01*
G01*
X21208200Y-6690360D02*
G75*
G03X21208200Y-6690360I-50000J0D01*
G01*
X17602400Y-12760960D02*
G75*
G03X17602400Y-12760960I-50000J0D01*
G01*
X18362400Y-12760960D02*
G75*
G03X18362400Y-12760960I-50000J0D01*
G01*
X16763200Y-6690360D02*
G75*
G03X16763200Y-6690360I-50000J0D01*
G01*
X17017200Y-6690360D02*
G75*
G03X17017200Y-6690360I-50000J0D01*
G01*
X17271200Y-6690360D02*
G75*
G03X17271200Y-6690360I-50000J0D01*
G01*
X17525200Y-6690360D02*
G75*
G03X17525200Y-6690360I-50000J0D01*
G01*
X17779200Y-6690360D02*
G75*
G03X17779200Y-6690360I-50000J0D01*
G01*
X18033200Y-6690360D02*
G75*
G03X18033200Y-6690360I-50000J0D01*
G01*
X18287200Y-6690360D02*
G75*
G03X18287200Y-6690360I-50000J0D01*
G01*
X18541200Y-6690360D02*
G75*
G03X18541200Y-6690360I-50000J0D01*
G01*
X16610800Y-7401560D02*
G75*
G03X16610800Y-7401560I-50000J0D01*
G01*
X16610800Y-7655560D02*
G75*
G03X16610800Y-7655560I-50000J0D01*
G01*
X16610800Y-7909560D02*
G75*
G03X16610800Y-7909560I-50000J0D01*
G01*
X16610800Y-8163560D02*
G75*
G03X16610800Y-8163560I-50000J0D01*
G01*
X16610800Y-8417560D02*
G75*
G03X16610800Y-8417560I-50000J0D01*
G01*
X16610800Y-8671560D02*
G75*
G03X16610800Y-8671560I-50000J0D01*
G01*
X16610800Y-8925560D02*
G75*
G03X16610800Y-8925560I-50000J0D01*
G01*
X16610800Y-9179560D02*
G75*
G03X16610800Y-9179560I-50000J0D01*
G01*
X20954200Y-11821160D02*
G75*
G03X20954200Y-11821160I-50000J0D01*
G01*
X20954200Y-12075160D02*
G75*
G03X20954200Y-12075160I-50000J0D01*
G01*
X21208200Y-11821160D02*
G75*
G03X21208200Y-11821160I-50000J0D01*
G01*
X21208200Y-12075160D02*
G75*
G03X21208200Y-12075160I-50000J0D01*
G01*
X21462200Y-11821160D02*
G75*
G03X21462200Y-11821160I-50000J0D01*
G01*
X21462200Y-12075160D02*
G75*
G03X21462200Y-12075160I-50000J0D01*
G01*
X21716200Y-11821160D02*
G75*
G03X21716200Y-11821160I-50000J0D01*
G01*
X21716200Y-12075160D02*
G75*
G03X21716200Y-12075160I-50000J0D01*
G01*
D13*
X16232628Y-14542314D02*
X16232628Y-14242314D01*
X16304057Y-14242314D01*
X16346914Y-14256600D01*
X16375486Y-14285171D01*
X16389771Y-14313743D01*
X16404057Y-14370886D01*
X16404057Y-14413743D01*
X16389771Y-14470886D01*
X16375486Y-14499457D01*
X16346914Y-14528029D01*
X16304057Y-14542314D01*
X16232628Y-14542314D01*
X16532628Y-14542314D02*
X16532628Y-14342314D01*
X16532628Y-14399457D02*
X16546914Y-14370886D01*
X16561200Y-14356600D01*
X16589771Y-14342314D01*
X16618343Y-14342314D01*
X16718343Y-14542314D02*
X16718343Y-14342314D01*
X16718343Y-14242314D02*
X16704057Y-14256600D01*
X16718343Y-14270886D01*
X16732628Y-14256600D01*
X16718343Y-14242314D01*
X16718343Y-14270886D01*
X16904057Y-14542314D02*
X16875486Y-14528029D01*
X16861200Y-14499457D01*
X16861200Y-14242314D01*
X17061200Y-14542314D02*
X17032628Y-14528029D01*
X17018343Y-14499457D01*
X17018343Y-14242314D01*
X17404057Y-14542314D02*
X17404057Y-14242314D01*
X17504057Y-14456600D01*
X17604057Y-14242314D01*
X17604057Y-14542314D01*
X17875486Y-14542314D02*
X17875486Y-14385171D01*
X17861200Y-14356600D01*
X17832628Y-14342314D01*
X17775486Y-14342314D01*
X17746914Y-14356600D01*
X17875486Y-14528029D02*
X17846914Y-14542314D01*
X17775486Y-14542314D01*
X17746914Y-14528029D01*
X17732628Y-14499457D01*
X17732628Y-14470886D01*
X17746914Y-14442314D01*
X17775486Y-14428029D01*
X17846914Y-14428029D01*
X17875486Y-14413743D01*
X18018343Y-14342314D02*
X18018343Y-14642314D01*
X18018343Y-14356600D02*
X18046914Y-14342314D01*
X18104057Y-14342314D01*
X18132628Y-14356600D01*
X18146914Y-14370886D01*
X18161200Y-14399457D01*
X18161200Y-14485171D01*
X18146914Y-14513743D01*
X18132628Y-14528029D01*
X18104057Y-14542314D01*
X18046914Y-14542314D01*
X18018343Y-14528029D01*
X18289771Y-14513743D02*
X18304057Y-14528029D01*
X18289771Y-14542314D01*
X18275486Y-14528029D01*
X18289771Y-14513743D01*
X18289771Y-14542314D01*
X18289771Y-14356600D02*
X18304057Y-14370886D01*
X18289771Y-14385171D01*
X18275486Y-14370886D01*
X18289771Y-14356600D01*
X18289771Y-14385171D01*
X15871200Y-14999100D02*
X15946200Y-15074100D01*
X15946200Y-14999100D02*
X15871200Y-15074100D01*
X16289771Y-14872314D02*
X16318343Y-14872314D01*
X16346914Y-14886600D01*
X16361200Y-14900886D01*
X16375486Y-14929457D01*
X16389771Y-14986600D01*
X16389771Y-15058029D01*
X16375486Y-15115171D01*
X16361200Y-15143743D01*
X16346914Y-15158029D01*
X16318343Y-15172314D01*
X16289771Y-15172314D01*
X16261200Y-15158029D01*
X16246914Y-15143743D01*
X16232628Y-15115171D01*
X16218343Y-15058029D01*
X16218343Y-14986600D01*
X16232628Y-14929457D01*
X16246914Y-14900886D01*
X16261200Y-14886600D01*
X16289771Y-14872314D01*
X16518343Y-15143743D02*
X16532628Y-15158029D01*
X16518343Y-15172314D01*
X16504057Y-15158029D01*
X16518343Y-15143743D01*
X16518343Y-15172314D01*
X16632628Y-14872314D02*
X16832628Y-14872314D01*
X16704057Y-15172314D01*
X17089771Y-14872314D02*
X16946914Y-14872314D01*
X16932628Y-15015171D01*
X16946914Y-15000886D01*
X16975486Y-14986600D01*
X17046914Y-14986600D01*
X17075486Y-15000886D01*
X17089771Y-15015171D01*
X17104057Y-15043743D01*
X17104057Y-15115171D01*
X17089771Y-15143743D01*
X17075486Y-15158029D01*
X17046914Y-15172314D01*
X16975486Y-15172314D01*
X16946914Y-15158029D01*
X16932628Y-15143743D01*
X17232628Y-15172314D02*
X17232628Y-14972314D01*
X17232628Y-15000886D02*
X17246914Y-14986600D01*
X17275486Y-14972314D01*
X17318343Y-14972314D01*
X17346914Y-14986600D01*
X17361200Y-15015171D01*
X17361200Y-15172314D01*
X17361200Y-15015171D02*
X17375486Y-14986600D01*
X17404057Y-14972314D01*
X17446914Y-14972314D01*
X17475486Y-14986600D01*
X17489771Y-15015171D01*
X17489771Y-15172314D01*
X17632628Y-15172314D02*
X17632628Y-14972314D01*
X17632628Y-15000886D02*
X17646914Y-14986600D01*
X17675486Y-14972314D01*
X17718343Y-14972314D01*
X17746914Y-14986600D01*
X17761200Y-15015171D01*
X17761200Y-15172314D01*
X17761200Y-15015171D02*
X17775486Y-14986600D01*
X17804057Y-14972314D01*
X17846914Y-14972314D01*
X17875486Y-14986600D01*
X17889771Y-15015171D01*
X17889771Y-15172314D01*
X18475486Y-14858029D02*
X18218343Y-15243743D01*
X18861200Y-14872314D02*
X18889771Y-14872314D01*
X18918343Y-14886600D01*
X18932628Y-14900886D01*
X18946914Y-14929457D01*
X18961200Y-14986600D01*
X18961200Y-15058029D01*
X18946914Y-15115171D01*
X18932628Y-15143743D01*
X18918343Y-15158029D01*
X18889771Y-15172314D01*
X18861200Y-15172314D01*
X18832628Y-15158029D01*
X18818343Y-15143743D01*
X18804057Y-15115171D01*
X18789771Y-15058029D01*
X18789771Y-14986600D01*
X18804057Y-14929457D01*
X18818343Y-14900886D01*
X18832628Y-14886600D01*
X18861200Y-14872314D01*
X19089771Y-15143743D02*
X19104057Y-15158029D01*
X19089771Y-15172314D01*
X19075486Y-15158029D01*
X19089771Y-15143743D01*
X19089771Y-15172314D01*
X19289771Y-14872314D02*
X19318343Y-14872314D01*
X19346914Y-14886600D01*
X19361200Y-14900886D01*
X19375486Y-14929457D01*
X19389771Y-14986600D01*
X19389771Y-15058029D01*
X19375486Y-15115171D01*
X19361200Y-15143743D01*
X19346914Y-15158029D01*
X19318343Y-15172314D01*
X19289771Y-15172314D01*
X19261200Y-15158029D01*
X19246914Y-15143743D01*
X19232628Y-15115171D01*
X19218343Y-15058029D01*
X19218343Y-14986600D01*
X19232628Y-14929457D01*
X19246914Y-14900886D01*
X19261200Y-14886600D01*
X19289771Y-14872314D01*
X19489771Y-14872314D02*
X19675486Y-14872314D01*
X19575486Y-14986600D01*
X19618343Y-14986600D01*
X19646914Y-15000886D01*
X19661200Y-15015171D01*
X19675486Y-15043743D01*
X19675486Y-15115171D01*
X19661200Y-15143743D01*
X19646914Y-15158029D01*
X19618343Y-15172314D01*
X19532628Y-15172314D01*
X19504057Y-15158029D01*
X19489771Y-15143743D01*
X19861200Y-14872314D02*
X19889771Y-14872314D01*
X19918343Y-14886600D01*
X19932628Y-14900886D01*
X19946914Y-14929457D01*
X19961200Y-14986600D01*
X19961200Y-15058029D01*
X19946914Y-15115171D01*
X19932628Y-15143743D01*
X19918343Y-15158029D01*
X19889771Y-15172314D01*
X19861200Y-15172314D01*
X19832628Y-15158029D01*
X19818343Y-15143743D01*
X19804057Y-15115171D01*
X19789771Y-15058029D01*
X19789771Y-14986600D01*
X19804057Y-14929457D01*
X19818343Y-14900886D01*
X19832628Y-14886600D01*
X19861200Y-14872314D01*
X20075486Y-14872314D02*
X20075486Y-14929457D01*
X20189771Y-14872314D02*
X20189771Y-14929457D01*
X20632628Y-15286600D02*
X20618343Y-15272314D01*
X20589771Y-15229457D01*
X20575486Y-15200886D01*
X20561200Y-15158029D01*
X20546914Y-15086600D01*
X20546914Y-15029457D01*
X20561200Y-14958029D01*
X20575486Y-14915171D01*
X20589771Y-14886600D01*
X20618343Y-14843743D01*
X20632628Y-14829457D01*
X20732628Y-14900886D02*
X20746914Y-14886600D01*
X20775486Y-14872314D01*
X20846914Y-14872314D01*
X20875486Y-14886600D01*
X20889771Y-14900886D01*
X20904057Y-14929457D01*
X20904057Y-14958029D01*
X20889771Y-15000886D01*
X20718343Y-15172314D01*
X20904057Y-15172314D01*
X21261200Y-15172314D02*
X21261200Y-14872314D01*
X21389771Y-15172314D02*
X21389771Y-15015171D01*
X21375486Y-14986600D01*
X21346914Y-14972314D01*
X21304057Y-14972314D01*
X21275486Y-14986600D01*
X21261200Y-15000886D01*
X21575486Y-15172314D02*
X21546914Y-15158029D01*
X21532628Y-15143743D01*
X21518343Y-15115171D01*
X21518343Y-15029457D01*
X21532628Y-15000886D01*
X21546914Y-14986600D01*
X21575486Y-14972314D01*
X21618343Y-14972314D01*
X21646914Y-14986600D01*
X21661200Y-15000886D01*
X21675486Y-15029457D01*
X21675486Y-15115171D01*
X21661200Y-15143743D01*
X21646914Y-15158029D01*
X21618343Y-15172314D01*
X21575486Y-15172314D01*
X21846914Y-15172314D02*
X21818343Y-15158029D01*
X21804057Y-15129457D01*
X21804057Y-14872314D01*
X22075486Y-15158029D02*
X22046914Y-15172314D01*
X21989771Y-15172314D01*
X21961200Y-15158029D01*
X21946914Y-15129457D01*
X21946914Y-15015171D01*
X21961200Y-14986600D01*
X21989771Y-14972314D01*
X22046914Y-14972314D01*
X22075486Y-14986600D01*
X22089771Y-15015171D01*
X22089771Y-15043743D01*
X21946914Y-15072314D01*
X22204057Y-15158029D02*
X22232628Y-15172314D01*
X22289771Y-15172314D01*
X22318343Y-15158029D01*
X22332628Y-15129457D01*
X22332628Y-15115171D01*
X22318343Y-15086600D01*
X22289771Y-15072314D01*
X22246914Y-15072314D01*
X22218343Y-15058029D01*
X22204057Y-15029457D01*
X22204057Y-15015171D01*
X22218343Y-14986600D01*
X22246914Y-14972314D01*
X22289771Y-14972314D01*
X22318343Y-14986600D01*
X22432628Y-15286600D02*
X22446914Y-15272314D01*
X22475486Y-15229457D01*
X22489771Y-15200886D01*
X22504057Y-15158029D01*
X22518343Y-15086600D01*
X22518343Y-15029457D01*
X22504057Y-14958029D01*
X22489771Y-14915171D01*
X22475486Y-14886600D01*
X22446914Y-14843743D01*
X22432628Y-14829457D01*
X15946200Y-15432600D02*
G75*
G03X15946200Y-15432600I-50000J0D01*
G01*
X16389771Y-15568314D02*
X16218343Y-15568314D01*
X16304057Y-15568314D02*
X16304057Y-15268314D01*
X16275486Y-15311171D01*
X16246914Y-15339743D01*
X16218343Y-15354029D01*
X16518343Y-15539743D02*
X16532628Y-15554029D01*
X16518343Y-15568314D01*
X16504057Y-15554029D01*
X16518343Y-15539743D01*
X16518343Y-15568314D01*
X16718343Y-15268314D02*
X16746914Y-15268314D01*
X16775486Y-15282600D01*
X16789771Y-15296886D01*
X16804057Y-15325457D01*
X16818343Y-15382600D01*
X16818343Y-15454029D01*
X16804057Y-15511171D01*
X16789771Y-15539743D01*
X16775486Y-15554029D01*
X16746914Y-15568314D01*
X16718343Y-15568314D01*
X16689771Y-15554029D01*
X16675486Y-15539743D01*
X16661200Y-15511171D01*
X16646914Y-15454029D01*
X16646914Y-15382600D01*
X16661200Y-15325457D01*
X16675486Y-15296886D01*
X16689771Y-15282600D01*
X16718343Y-15268314D01*
X17004057Y-15268314D02*
X17032628Y-15268314D01*
X17061200Y-15282600D01*
X17075486Y-15296886D01*
X17089771Y-15325457D01*
X17104057Y-15382600D01*
X17104057Y-15454029D01*
X17089771Y-15511171D01*
X17075486Y-15539743D01*
X17061200Y-15554029D01*
X17032628Y-15568314D01*
X17004057Y-15568314D01*
X16975486Y-15554029D01*
X16961200Y-15539743D01*
X16946914Y-15511171D01*
X16932628Y-15454029D01*
X16932628Y-15382600D01*
X16946914Y-15325457D01*
X16961200Y-15296886D01*
X16975486Y-15282600D01*
X17004057Y-15268314D01*
X17232628Y-15568314D02*
X17232628Y-15368314D01*
X17232628Y-15396886D02*
X17246914Y-15382600D01*
X17275486Y-15368314D01*
X17318343Y-15368314D01*
X17346914Y-15382600D01*
X17361200Y-15411171D01*
X17361200Y-15568314D01*
X17361200Y-15411171D02*
X17375486Y-15382600D01*
X17404057Y-15368314D01*
X17446914Y-15368314D01*
X17475486Y-15382600D01*
X17489771Y-15411171D01*
X17489771Y-15568314D01*
X17632628Y-15568314D02*
X17632628Y-15368314D01*
X17632628Y-15396886D02*
X17646914Y-15382600D01*
X17675486Y-15368314D01*
X17718343Y-15368314D01*
X17746914Y-15382600D01*
X17761200Y-15411171D01*
X17761200Y-15568314D01*
X17761200Y-15411171D02*
X17775486Y-15382600D01*
X17804057Y-15368314D01*
X17846914Y-15368314D01*
X17875486Y-15382600D01*
X17889771Y-15411171D01*
X17889771Y-15568314D01*
X18475486Y-15254029D02*
X18218343Y-15639743D01*
X18861200Y-15268314D02*
X18889771Y-15268314D01*
X18918343Y-15282600D01*
X18932628Y-15296886D01*
X18946914Y-15325457D01*
X18961200Y-15382600D01*
X18961200Y-15454029D01*
X18946914Y-15511171D01*
X18932628Y-15539743D01*
X18918343Y-15554029D01*
X18889771Y-15568314D01*
X18861200Y-15568314D01*
X18832628Y-15554029D01*
X18818343Y-15539743D01*
X18804057Y-15511171D01*
X18789771Y-15454029D01*
X18789771Y-15382600D01*
X18804057Y-15325457D01*
X18818343Y-15296886D01*
X18832628Y-15282600D01*
X18861200Y-15268314D01*
X19089771Y-15539743D02*
X19104057Y-15554029D01*
X19089771Y-15568314D01*
X19075486Y-15554029D01*
X19089771Y-15539743D01*
X19089771Y-15568314D01*
X19289771Y-15268314D02*
X19318343Y-15268314D01*
X19346914Y-15282600D01*
X19361200Y-15296886D01*
X19375486Y-15325457D01*
X19389771Y-15382600D01*
X19389771Y-15454029D01*
X19375486Y-15511171D01*
X19361200Y-15539743D01*
X19346914Y-15554029D01*
X19318343Y-15568314D01*
X19289771Y-15568314D01*
X19261200Y-15554029D01*
X19246914Y-15539743D01*
X19232628Y-15511171D01*
X19218343Y-15454029D01*
X19218343Y-15382600D01*
X19232628Y-15325457D01*
X19246914Y-15296886D01*
X19261200Y-15282600D01*
X19289771Y-15268314D01*
X19489771Y-15268314D02*
X19675486Y-15268314D01*
X19575486Y-15382600D01*
X19618343Y-15382600D01*
X19646914Y-15396886D01*
X19661200Y-15411171D01*
X19675486Y-15439743D01*
X19675486Y-15511171D01*
X19661200Y-15539743D01*
X19646914Y-15554029D01*
X19618343Y-15568314D01*
X19532628Y-15568314D01*
X19504057Y-15554029D01*
X19489771Y-15539743D01*
X19818343Y-15568314D02*
X19875486Y-15568314D01*
X19904057Y-15554029D01*
X19918343Y-15539743D01*
X19946914Y-15496886D01*
X19961200Y-15439743D01*
X19961200Y-15325457D01*
X19946914Y-15296886D01*
X19932628Y-15282600D01*
X19904057Y-15268314D01*
X19846914Y-15268314D01*
X19818343Y-15282600D01*
X19804057Y-15296886D01*
X19789771Y-15325457D01*
X19789771Y-15396886D01*
X19804057Y-15425457D01*
X19818343Y-15439743D01*
X19846914Y-15454029D01*
X19904057Y-15454029D01*
X19932628Y-15439743D01*
X19946914Y-15425457D01*
X19961200Y-15396886D01*
X20075486Y-15268314D02*
X20075486Y-15325457D01*
X20189771Y-15268314D02*
X20189771Y-15325457D01*
X20632628Y-15682600D02*
X20618343Y-15668314D01*
X20589771Y-15625457D01*
X20575486Y-15596886D01*
X20561200Y-15554029D01*
X20546914Y-15482600D01*
X20546914Y-15425457D01*
X20561200Y-15354029D01*
X20575486Y-15311171D01*
X20589771Y-15282600D01*
X20618343Y-15239743D01*
X20632628Y-15225457D01*
X20889771Y-15268314D02*
X20746914Y-15268314D01*
X20732628Y-15411171D01*
X20746914Y-15396886D01*
X20775486Y-15382600D01*
X20846914Y-15382600D01*
X20875486Y-15396886D01*
X20889771Y-15411171D01*
X20904057Y-15439743D01*
X20904057Y-15511171D01*
X20889771Y-15539743D01*
X20875486Y-15554029D01*
X20846914Y-15568314D01*
X20775486Y-15568314D01*
X20746914Y-15554029D01*
X20732628Y-15539743D01*
X21161200Y-15268314D02*
X21104057Y-15268314D01*
X21075486Y-15282600D01*
X21061200Y-15296886D01*
X21032628Y-15339743D01*
X21018343Y-15396886D01*
X21018343Y-15511171D01*
X21032628Y-15539743D01*
X21046914Y-15554029D01*
X21075486Y-15568314D01*
X21132628Y-15568314D01*
X21161200Y-15554029D01*
X21175486Y-15539743D01*
X21189771Y-15511171D01*
X21189771Y-15439743D01*
X21175486Y-15411171D01*
X21161200Y-15396886D01*
X21132628Y-15382600D01*
X21075486Y-15382600D01*
X21046914Y-15396886D01*
X21032628Y-15411171D01*
X21018343Y-15439743D01*
X21546914Y-15568314D02*
X21546914Y-15268314D01*
X21675486Y-15568314D02*
X21675486Y-15411171D01*
X21661200Y-15382600D01*
X21632628Y-15368314D01*
X21589771Y-15368314D01*
X21561200Y-15382600D01*
X21546914Y-15396886D01*
X21861200Y-15568314D02*
X21832628Y-15554029D01*
X21818343Y-15539743D01*
X21804057Y-15511171D01*
X21804057Y-15425457D01*
X21818343Y-15396886D01*
X21832628Y-15382600D01*
X21861200Y-15368314D01*
X21904057Y-15368314D01*
X21932628Y-15382600D01*
X21946914Y-15396886D01*
X21961200Y-15425457D01*
X21961200Y-15511171D01*
X21946914Y-15539743D01*
X21932628Y-15554029D01*
X21904057Y-15568314D01*
X21861200Y-15568314D01*
X22132628Y-15568314D02*
X22104057Y-15554029D01*
X22089771Y-15525457D01*
X22089771Y-15268314D01*
X22361200Y-15554029D02*
X22332628Y-15568314D01*
X22275486Y-15568314D01*
X22246914Y-15554029D01*
X22232628Y-15525457D01*
X22232628Y-15411171D01*
X22246914Y-15382600D01*
X22275486Y-15368314D01*
X22332628Y-15368314D01*
X22361200Y-15382600D01*
X22375486Y-15411171D01*
X22375486Y-15439743D01*
X22232628Y-15468314D01*
X22489771Y-15554029D02*
X22518343Y-15568314D01*
X22575486Y-15568314D01*
X22604057Y-15554029D01*
X22618343Y-15525457D01*
X22618343Y-15511171D01*
X22604057Y-15482600D01*
X22575486Y-15468314D01*
X22532628Y-15468314D01*
X22504057Y-15454029D01*
X22489771Y-15425457D01*
X22489771Y-15411171D01*
X22504057Y-15382600D01*
X22532628Y-15368314D01*
X22575486Y-15368314D01*
X22604057Y-15382600D01*
X22718343Y-15682600D02*
X22732628Y-15668314D01*
X22761200Y-15625457D01*
X22775486Y-15596886D01*
X22789771Y-15554029D01*
X22804057Y-15482600D01*
X22804057Y-15425457D01*
X22789771Y-15354029D01*
X22775486Y-15311171D01*
X22761200Y-15282600D01*
X22732628Y-15239743D01*
X22718343Y-15225457D01*
M02*
